SplineFontDB: 3.0
FontName: Aenniway-Bold
FullName: Aenniway Bold
FamilyName: Aenniway
Weight: Bold
Copyright: Anna-Lisa Wehmann & Christoph Pfeiffer
Version: 1.5.01
ItalicAngle: -11.9
UnderlinePosition: -153
UnderlineWidth: 51
Ascent: 819
Descent: 205
InvalidEm: 0
LayerCount: 2
Layer: 0 1 "Back" 1
Layer: 1 1 "Zeichen" 0
XUID: [1021 862 158305084 7697856]
StyleMap: 0x0020
FSType: 0
OS2Version: 4
OS2_WeightWidthSlopeOnly: 0
OS2_UseTypoMetrics: 0
CreationTime: 1502261341
ModificationTime: 1505593516
PfmFamily: 65
TTFWeight: 700
TTFWidth: 5
LineGap: 92
VLineGap: 0
Panose: 3 0 8 3 0 0 0 0 0 0
OS2TypoAscent: 819
OS2TypoAOffset: 0
OS2TypoDescent: -205
OS2TypoDOffset: 0
OS2TypoLinegap: 92
OS2WinAscent: 818
OS2WinAOffset: 0
OS2WinDescent: 205
OS2WinDOffset: 0
HheadAscent: 818
HheadAOffset: 0
HheadDescent: -205
HheadDOffset: 0
OS2SubXSize: 666
OS2SubYSize: 717
OS2SubXOff: 0
OS2SubYOff: 143
OS2SupXSize: 666
OS2SupYSize: 717
OS2SupXOff: 0
OS2SupYOff: 492
OS2StrikeYSize: 50
OS2StrikeYPos: 264
OS2CapHeight: 699
OS2XHeight: 363
OS2Vendor: 'CLGR'
OS2CodePages: 00000001.00000000
OS2UnicodeRanges: 00000003.00000000.00000000.00000000
Lookup: 4 0 1 "'liga' Standard Ligatures in Latin lookup 0" { "'liga' Standard Ligatures in Latin lookup 0 subtable"  } ['liga' ('DFLT' <'dflt' > 'latn' <'dflt' > ) ]

StartChar: .notdef
Encoding: 1114112 -1 0
Width: 372
VWidth: 1004
Flags: W
LayerCount: 2
Fore
SplineSet
34 -20 m 1,0,-1
 34 662 l 1,1,-1
 305 662 l 1,2,-1
 305 -20 l 1,3,-1
 34 -20 l 1,0,-1
68 14 m 1,4,-1
 271 14 l 1,5,-1
 271 628 l 1,6,-1
 68 628 l 1,7,-1
 68 14 l 1,4,-1
EndSplineSet
Validated: 1
EndChar

StartChar: exclam
Encoding: 33 33 5
Width: 220
VWidth: 968
Flags: W
LayerCount: 2
Fore
SplineSet
50.0719636931 25.8592515136 m 0,0,1
 49.7421875 27.956130326 49.7421875 27.956130326 49.7421875 29.9482421875 c 0,2,3
 49.7421875 36.9607487777 49.7421875 36.9607487777 53.7280039072 42.1715473531 c 128,-1,4
 57.7138203144 47.3823459285 57.7138203144 47.3823459285 63.7449310148 50.1505028651 c 128,-1,5
 69.7760417152 52.9186598017 69.7760417152 52.9186598017 77.7500668261 54.1749826615 c 0,6,7
 79.8433109284 54.5047754057 79.8433109284 54.5047754057 81.9067284006 54.6713330154 c 128,-1,8
 83.9701458727 54.837890625 83.9701458727 54.837890625 86 54.837890625 c 0,9,10
 93.6673818718 54.837890625 93.6673818718 54.837890625 100.774233679 52.3876782987 c 128,-1,11
 107.881085486 49.9374659725 107.881085486 49.9374659725 114.035579465 45.3243145597 c 128,-1,12
 120.190073445 40.7111631469 120.190073445 40.7111631469 125.469265605 34.030226048 c 2,13,-1
 125.704103804 33.7176224445 l 2,14,15
 126.362256819 32.7954311434 126.362256819 32.7954311434 127.623294733 31.0401135127 c 0,16,17
 138.5078125 15.8892717166 138.5078125 15.8892717166 138.5078125 8.82111899189 c 0,18,19
 137.293671323 -2.54020712984 137.293671323 -2.54020712984 113.987229398 -5.88525239976 c 0,20,21
 108.471045272 -6.7529296875 108.471045272 -6.7529296875 102.993164062 -6.7529296875 c 0,22,23
 88.3362282482 -6.7529296875 88.3362282482 -6.7529296875 74.1125903202 -0.562679148171 c 0,24,25
 52.7725011664 8.72691553427 52.7725011664 8.72691553427 50.0719636931 25.8592515136 c 0,0,1
119.192382812 29.0703125 m 1025,26,-1
93.3266503454 647.939254038 m 0,27,28
 95.9403127964 660.662381439 95.9403127964 660.662381439 100.619873563 668.352675094 c 128,-1,29
 105.299434329 676.04296875 105.299434329 676.04296875 114.447265625 676.04296875 c 0,30,31
 116.266644357 676.04296875 116.266644357 676.04296875 118.22937641 675.582294449 c 0,32,33
 119.088627729 675.380618933 119.088627729 675.380618933 119.883248894 674.996479573 c 0,34,35
 128.196989588 670.977413425 128.196989588 670.977413425 130.278503316 657.779198121 c 0,36,37
 131.489762275 650.090953454 131.489762275 650.090953454 135.234652681 644.845166169 c 0,38,39
 140.920427543 636.877369459 140.920427543 636.877369459 141.735643988 632.258709402 c 0,40,41
 141.886057257 631.406533561 141.886057257 631.406533561 141.8507663 630.541905106 c 0,42,43
 141.110890807 612.414955543 141.110890807 612.414955543 139.245508911 589.715826513 c 128,-1,44
 137.380127014 567.016697483 137.380127014 567.016697483 134.399216428 539.808232115 c 128,-1,45
 131.418305842 512.599766746 131.418305842 512.599766746 127.309341196 480.728122817 c 0,46,47
 112.391103561 365.006409879 112.391103561 365.006409879 112.389648438 288.120117188 c 0,48,49
 112.389648438 273.771206543 112.389648438 273.771206543 112.913630816 260.752450756 c 128,-1,50
 113.437613195 247.733694969 113.437613195 247.733694969 114.472606332 236.178699851 c 128,-1,51
 115.507599469 224.623704732 115.507599469 224.623704732 117.051399974 214.4677979 c 0,52,53
 118.233904904 206.962116605 118.233904904 206.962116605 120.665271103 202.923670584 c 0,54,55
 125.936523438 197.992850709 125.936523438 197.992850709 125.936523438 190.482421875 c 0,56,57
 125.936523438 188.286509469 125.936523438 188.286509469 125.348156846 185.526800616 c 128,-1,58
 124.759790254 182.767091763 124.759790254 182.767091763 123.980968554 180.487510764 c 128,-1,59
 123.202146854 178.207929765 123.202146854 178.207929765 122.240388163 175.994308958 c 0,60,61
 120.149476707 169.598663707 120.149476707 169.598663707 116.711818024 165.975113104 c 128,-1,62
 113.274159341 162.3515625 113.274159341 162.3515625 107.46875 162.3515625 c 0,63,64
 99.0836376542 162.3515625 99.0836376542 162.3515625 88.9187348031 173.009012891 c 0,65,66
 71.3777223633 191.401499357 71.3777223633 191.401499357 63.3288469355 232.497527416 c 0,67,68
 63.29360029 232.677490089 63.29360029 232.677490089 63.2607322714 232.911013497 c 0,69,70
 59.576171875 272.769852488 59.576171875 272.769852488 59.576171875 317.419921875 c 0,71,72
 59.576171875 381.319730819 59.576171875 381.319730819 67.0279754758 455.870165972 c 0,73,74
 79.6574009356 582.177646639 79.6574009356 582.177646639 93.3266503454 647.939254038 c 0,27,28
71.1796875 234.03515625 m 1025,75,-1
EndSplineSet
Validated: 1
EndChar

StartChar: comma
Encoding: 44 44 6
Width: 142
VWidth: 968
Flags: W
LayerCount: 2
Fore
SplineSet
34.1352832203 1.30089518273 m 0,0,1
 44.223996104 34.67108128 44.223996104 34.67108128 59.994214663 46.060403258 c 128,-1,2
 75.6109336846 57.3388671875 75.6109336846 57.3388671875 85.2412109375 57.3388671875 c 0,3,4
 93.9284990847 57.3388671875 93.9284990847 57.3388671875 98.7972573549 51.1933325087 c 128,-1,5
 103.666015625 45.0477978299 103.666015625 45.0477978299 103.666015625 36.201171875 c 0,6,7
 103.666015625 26.6640541808 103.666015625 26.6640541808 99.9788197027 9.69997939309 c 128,-1,8
 96.2643340646 -7.39071993555 96.2643340646 -7.39071993555 79.3253948874 -42.677974933 c 0,9,10
 74.3274156604 -53.0910313654 74.3274156604 -53.0910313654 71.7451023888 -58.0838478813 c 2,11,-1
 65.1522960091 -69.5264313126 l 2,12,13
 62.8934168271 -73.1414930084 62.8934168271 -73.1414930084 60.7377831116 -75.7145103437 c 128,-1,14
 58.5821493961 -78.287527679 58.5821493961 -78.287527679 56.0526911094 -80.1113741676 c 0,15,16
 50.7070324681 -83.9658203125 50.7070324681 -83.9658203125 44.544921875 -83.9658203125 c 0,17,18
 24.7626953125 -83.9658203125 24.7626953125 -83.9658203125 24.7626953125 -51.2958984375 c 0,19,20
 24.7626953125 -29.7050541364 24.7626953125 -29.7050541364 34.1352832203 1.30089518273 c 0,0,1
EndSplineSet
Validated: 1
EndChar

StartChar: period
Encoding: 46 46 7
Width: 181
VWidth: 968
Flags: W
LayerCount: 2
Fore
SplineSet
35.7889298392 20.3175098153 m 0,0,1
 34.98046875 24.7999516706 34.98046875 24.7999516706 34.98046875 28.896484375 c 0,2,3
 34.98046875 35.405940101 34.98046875 35.405940101 37.0168511353 40.934737622 c 0,4,5
 39.4497080512 47.52986517 39.4497080512 47.52986517 46.4659237007 53.5112742975 c 0,6,7
 48.1795151396 54.971311884 48.1795151396 54.971311884 50.0441573958 56.2405737258 c 128,-1,8
 51.908799652 57.5098355676 51.908799652 57.5098355676 53.8945069105 58.571203264 c 128,-1,9
 55.8802141691 59.6325709605 55.8802141691 59.6325709605 57.9835490906 60.4908754187 c 128,-1,10
 60.0868840122 61.3491798769 60.0868840122 61.3491798769 62.2956577903 61.9990441917 c 0,11,12
 75.2883674321 65.8271484375 75.2883674321 65.8271484375 84.447265625 65.8271484375 c 0,13,14
 90.2236958815 65.8271484375 90.2236958815 65.8271484375 94.6302207154 64.3154807991 c 0,15,16
 105.511042869 60.5888650763 105.511042869 60.5888650763 113.026335895 47.7265978579 c 0,17,18
 115.065645847 44.2366758679 115.065645847 44.2366758679 116.425942596 41.1483743311 c 128,-1,19
 117.786239345 38.0600727943 117.786239345 38.0600727943 118.59136186 34.7613467353 c 128,-1,20
 119.396484375 31.4626206763 119.396484375 31.4626206763 119.396484375 28.3447265625 c 2,21,-1
 118.474604696 22.1886013281 l 2,22,23
 112.450568461 3.23934952307 112.450568461 3.23934952307 89.3236552215 -4.09512525313 c 0,24,25
 79.4672263498 -7.2223366194 79.4672263498 -7.2223366194 70.65234375 -7.224609375 c 0,26,27
 63.513108285 -7.224609375 63.513108285 -7.224609375 56.9459917221 -5.1010736153 c 128,-1,28
 50.3788751592 -2.97753785559 50.3788751592 -2.97753785559 44.7417348265 1.17986055634 c 0,29,30
 42.3935201373 2.911760331 42.3935201373 2.911760331 40.6857255974 5.41557589206 c 128,-1,31
 39.0591079587 7.8061373372 39.0591079587 7.8061373372 38.0446622195 10.9438764478 c 0,32,33
 37.178634417 13.6244386937 37.178634417 13.6244386937 36.7431238928 15.5243088551 c 0,34,35
 36.523466809 16.4804965215 36.523466809 16.4804965215 36.289205943 17.6603033201 c 128,-1,36
 36.054945077 18.8401101187 36.054945077 18.8401101187 35.7889298392 20.3175098153 c 0,0,1
EndSplineSet
Validated: 1
EndChar

StartChar: question
Encoding: 63 63 8
Width: 387
VWidth: 968
Flags: W
LayerCount: 2
Fore
SplineSet
143 28 m 0,0,1
 144 29 144 29 142 33 c 0,2,3
 141 34 141 34 143 38 c 0,4,5
 144 40 144 40 145 41 c 0,6,7
 145 43 145 43 146 43 c 0,8,9
 148 43 148 43 148 44 c 0,10,11
 149 46 149 46 151 48 c 0,12,13
 152 49 152 49 154 50 c 2,14,-1
 167 53 l 2,15,16
 169 53 169 53 169 53 c 128,-1,17
 169 53 169 53 170 53 c 2,18,-1
 195 52 l 2,19,20
 196 51 196 51 197 51 c 0,21,22
 197 51 197 51 198 51 c 2,23,-1
 212 44 l 2,24,25
 215 42 215 42 216 38 c 128,-1,26
 217 34 217 34 217 22 c 0,27,28
 217 -1 217 -1 186 -1 c 0,29,30
 182 -1 182 -1 177 -1 c 0,31,32
 171 -1 171 -1 169 -1 c 0,33,34
 166 -1 166 -1 163 -1 c 0,35,36
 158 -1 158 -1 158 -1 c 0,37,38
 154 1 154 1 154 1 c 0,39,40
 152 1 152 1 150 2 c 0,41,42
 147 4 147 4 146 5 c 0,43,44
 143 9 143 9 143 10 c 0,45,46
 142 17 142 17 142 18 c 0,47,48
 142 20 142 20 142 20 c 0,49,50
 140 23 140 23 143 28 c 0,0,1
284 670 m 0,51,52
 307 662 307 662 317 654 c 0,53,54
 322 650 322 650 328 642 c 128,-1,55
 334 634 334 634 336 627 c 0,56,57
 340 615 340 615 340 608 c 0,58,59
 340 607 340 607 340 607 c 0,60,61
 342 603 342 603 336 578 c 0,62,63
 334 568 334 568 326 551 c 0,64,65
 321 540 321 540 315 530 c 0,66,67
 308 518 308 518 301 509 c 0,68,69
 287 490 287 490 284 487 c 0,70,71
 274 476 274 476 228 428 c 0,72,73
 209 408 209 408 189 383 c 0,74,75
 166 354 166 354 156 329 c 0,76,77
 148.421052632 309.421052632 148.421052632 309.421052632 148.421052632 290.639889197 c 0,78,79
 148.421052632 279.684210526 148.421052632 279.684210526 151 269 c 0,80,81
 152 265 152 265 153 263 c 0,82,83
 155 259 155 259 156 258 c 0,84,85
 158 256 158 256 160 254 c 128,-1,86
 162 252 162 252 165 250 c 128,-1,87
 168 248 168 248 171 246 c 0,88,89
 175 244 175 244 181 243 c 128,-1,90
 187 242 187 242 196 241 c 128,-1,91
 205 240 205 240 215 240 c 0,92,93
 223 240 223 240 232 241 c 0,94,95
 243 242 243 242 249 244 c 0,96,97
 276 252 276 252 302 260 c 2,98,-1
 303 260 l 2,99,100
 310 262 310 262 312 261 c 0,101,102
 315 260 315 260 317 259 c 0,103,104
 325 255 325 255 325 235 c 0,105,106
 325 235 325 235 325 233 c 2,107,-1
 325 231 l 1,108,-1
 324 230 l 1,109,-1
 322 226 l 1,110,111
 298 206 298 206 262 197 c 0,112,113
 257 196 257 196 252 195 c 0,114,115
 245 194 245 194 242 193 c 0,116,117
 235 193 235 193 232 192 c 0,118,119
 226 190 226 190 221 190 c 0,120,121
 215 190 215 190 209 190 c 0,122,123
 203 189 203 189 197 189 c 0,124,125
 185 189 185 189 185 189 c 0,126,127
 177 188 177 188 161 191 c 0,128,129
 146 194 146 194 141 196 c 0,130,131
 132 200 132 200 130 202 c 0,132,133
 126 205 126 205 122 209 c 0,134,135
 118 212 118 212 114 217 c 0,136,137
 94 243 94 243 94 284 c 0,138,139
 94 293 94 293 96 308 c 0,140,141
 98 320 98 320 101 334 c 0,142,143
 107 359 107 359 130 389 c 0,144,145
 157 424 157 424 211 473 c 0,146,147
 246 504 246 504 269 541 c 0,148,149
 278 555 278 555 283 568 c 0,150,151
 287 577 287 577 288 589 c 0,152,153
 289 597 289 597 286 603 c 128,-1,154
 283 609 283 609 279 614 c 128,-1,155
 275 619 275 619 268 624 c 0,156,157
 255 633 255 633 231 633 c 0,158,159
 224 633 224 633 218 632 c 0,160,161
 213 631 213 631 203 629 c 0,162,163
 178 623 178 623 157 616 c 0,164,165
 128 605 128 605 112 598 c 0,166,167
 87 586 87 586 86 586 c 0,168,169
 75 582 75 582 68 579 c 128,-1,170
 61 576 61 576 58 575 c 0,171,172
 58 574 58 574 52 574 c 0,173,174
 49 574 49 574 46 576 c 128,-1,175
 43 578 43 578 41 579 c 0,176,177
 40 581 40 581 37 583 c 0,178,179
 33 586 33 586 31 590 c 128,-1,180
 29 594 29 594 29 599 c 2,181,-1
 31 606 l 1,182,183
 41 616 41 616 62 628 c 0,184,185
 69 632 69 632 74 634 c 0,186,187
 77 636 77 636 88 641 c 0,188,189
 95 644 95 644 103 647 c 0,190,191
 119 653 119 653 119 653 c 0,192,193
 130 656 130 656 180 669 c 0,194,195
 210.909090909 677.757575758 210.909090909 677.757575758 237.572084481 677.757575758 c 0,196,197
 262.666666667 677.757575758 262.666666667 677.757575758 284 670 c 0,51,52
EndSplineSet
Validated: 1
EndChar

StartChar: A
Encoding: 65 65 9
Width: 508
VWidth: 1084
Flags: W
LayerCount: 2
Fore
SplineSet
121 190 m 2,0,-1
 118 204 l 2,1,2
 117 205 117 205 117 206 c 128,-1,3
 117 207 117 207 118 209 c 2,4,-1
 121 216 l 2,5,6
 122 219 122 219 124 220 c 2,7,-1
 126 221 l 2,8,9
 127 222 127 222 128 222 c 128,-1,10
 129 222 129 222 130 222 c 0,11,12
 203 227 203 227 256 239 c 1,13,14
 267 252 267 252 270 257 c 0,15,16
 275 264 275 264 278 268 c 0,17,18
 281 274 281 274 281 274 c 0,19,20
 282 275 282 275 287 315 c 0,21,22
 292 346 292 346 292 353 c 0,23,24
 295 395 295 395 312 476 c 0,25,26
 324 530 324 530 342 577 c 0,27,28
 359 622 359 622 384 657 c 0,29,30
 417 705 417 705 447 706 c 0,31,32
 479 707 479 707 479 648 c 0,33,34
 479 630 479 630 476 602 c 0,35,36
 474 587 474 587 468 563 c 0,37,38
 443 471 443 471 422 428 c 0,39,40
 410 404 410 404 407 397 c 0,41,42
 407 397 407 397 391 365 c 0,43,44
 387 357 387 357 373 331 c 0,45,46
 365 315 365 315 355 298 c 0,47,48
 346 280 346 280 336 263 c 0,49,50
 336 258 336 258 336 257 c 0,51,52
 336 254 336 254 336 252 c 1,53,54
 353 256 353 256 379 261 c 2,55,-1
 443 274 l 2,56,57
 470 279 470 279 473 279 c 0,58,59
 473 280 473 280 479 279 c 0,60,61
 495 277 495 277 496 277 c 0,62,63
 502 277 502 277 510 275 c 0,64,65
 519 273 519 273 522 269 c 128,-1,66
 525 265 525 265 525 260 c 2,67,-1
 524 256 l 2,68,69
 523 254 523 254 520 252 c 128,-1,70
 517 250 517 250 511 248 c 0,71,72
 507 246 507 246 498 243 c 0,73,74
 492 241 492 241 481 238 c 128,-1,75
 470 235 470 235 460 233 c 0,76,77
 441 227 441 227 434 226 c 0,78,79
 407 221 407 221 404 220 c 0,80,81
 382 213 382 213 370 211 c 0,82,83
 349 207 349 207 332 202 c 1,84,85
 329 156 329 156 330 125 c 0,86,87
 331 68 331 68 331 42 c 0,88,89
 331 40 331 40 332 30 c 0,90,91
 332 19 332 19 332 17 c 128,-1,92
 332 15 332 15 331 8 c 0,93,94
 331 1 331 1 329 -1 c 0,95,96
 325 -5 325 -5 324 -5 c 128,-1,97
 323 -5 323 -5 321 -6 c 2,98,-1
 305 -8 l 2,99,100
 304 -8 304 -8 304 -8 c 0,101,102
 287 -2 287 -2 287 3 c 0,103,104
 287 4 287 4 287 4 c 0,105,106
 284 7 284 7 284 34 c 0,107,108
 284 37 284 37 283 46 c 0,109,110
 283 55 283 55 283 55 c 0,111,112
 282 58 282 58 282 63 c 0,113,114
 280 91 280 91 271 114 c 0,115,116
 264 132 264 132 245 144 c 1,117,118
 194 85 194 85 175 67 c 0,119,120
 76 -28 76 -28 7 -28 c 0,121,122
 -19 -28 -19 -28 -43 -3 c 0,123,124
 -45 -2 -45 -2 -45.4789512464 -0.08609728739 c 128,-1,125
 -45.9579024928 1.82780542522 -45.9579024928 1.82780542522 -46.192233541 2.87562472517 c 128,-1,126
 -46.4265645892 3.92344402511 -46.4265645892 3.92344402511 -45.8024318931 6.66119170219 c 128,-1,127
 -45.1782991971 9.39893937927 -45.1782991971 9.39893937927 -42.9102924923 11.3613079009 c 0,128,129
 -41.7001168113 12.4083994536 -41.7001168113 12.4083994536 -40.1802692012 12.9093876178 c 0,130,131
 -37.4826916853 13.798591508 -37.4826916853 13.798591508 -35.3819203263 14.221561379 c 128,-1,132
 -33.2811489673 14.64453125 -33.2811489673 14.64453125 -30.8829912609 14.64453125 c 2,133,-1
 -15.2413896984 13.98046875 l 2,134,135
 68.3697519774 13.98046875 68.3697519774 13.98046875 186.431303416 154.800234311 c 0,136,137
 192.109825158 161.572619335 192.109825158 161.572619335 198.823421285 169.692831818 c 1,138,139
 183.142570408 176.141348961 183.142570408 176.141348961 167.141777703 179.270869793 c 128,-1,140
 151.140984998 182.400390625 151.140984998 182.400390625 133.998046875 182.400390625 c 0,141,142
 130.458859264 182.400390625 130.458859264 182.400390625 126.229429632 184.700195312 c 128,-1,143
 122 187 122 187 121 190 c 2,0,-1
344.574190778 381.322394326 m 1,144,145
 346.368409517 384.803698026 346.368409517 384.803698026 347.927021239 387.824146988 c 0,146,147
 364.074505784 419.116515848 364.074505784 419.116515848 380.935413825 454.223686492 c 0,148,149
 397.572730825 488.865303986 397.572730825 488.865303986 417.718892593 556.301151191 c 0,150,151
 422.687049436 572.931210533 422.687049436 572.931210533 426.508802276 587.187316817 c 128,-1,152
 430.330555116 601.443423101 430.330555116 601.443423101 432.776782068 612.35472473 c 128,-1,153
 435.223009019 623.266026359 435.223009019 623.266026359 436.46697326 631.215649077 c 128,-1,154
 437.7109375 639.165271796 437.7109375 639.165271796 437.7109375 643.901340364 c 0,155,156
 437.7109375 647.269486713 437.7109375 647.269486713 437.489202393 650.466585236 c 128,-1,157
 437.267467286 653.663683759 437.267467286 653.663683759 436.980585902 655.694428679 c 128,-1,158
 436.693704518 657.725173599 436.693704518 657.725173599 436.378943944 658.993097235 c 1,159,160
 432.404201132 656.177726851 432.404201132 656.177726851 428.141896531 649.149815949 c 0,161,162
 405.24915171 611.403060159 405.24915171 611.403060159 389.360933285 571.546164322 c 128,-1,163
 373.47271486 531.689268484 373.47271486 531.689268484 364.558185962 489.660742025 c 0,164,165
 351.423310874 427.759193039 351.423310874 427.759193039 344.574190778 381.322394326 c 1,144,145
281.164367064 188.500779049 m 1,166,-1
 273.721551129 179.562319525 l 1,167,168
 277.46208837 176.394440647 277.46208837 176.394440647 280.601849866 173.468397701 c 1,169,170
 280.613493641 173.774473381 280.613493641 173.774473381 280.624406715 174.062676765 c 128,-1,171
 280.634405532 174.326735542 280.634405532 174.326735542 280.660449282 174.998484024 c 0,172,173
 280.935754341 182.099455864 280.935754341 182.099455864 281.164367064 188.500779049 c 1,166,-1
EndSplineSet
Validated: 33
EndChar

StartChar: B
Encoding: 66 66 10
Width: 550
VWidth: 875
Flags: W
LayerCount: 2
Fore
SplineSet
-72.3914847787 579.751367297 m 1,0,1
 66.6470215475 647.302154153 66.6470215475 647.302154153 180.425716936 672.854155554 c 0,2,3
 203.429575464 677.251944736 203.429575464 677.251944736 225.6339241 680.17087326 c 128,-1,4
 247.838272736 683.089801784 247.838272736 683.089801784 269.362847149 684.544900892 c 128,-1,5
 290.887421563 686 290.887421563 686 311.849609375 686 c 0,6,7
 474.800148151 686 474.800148151 686 474.849607723 609.044204107 c 0,8,9
 474.849814794 608.722015583 474.849814794 608.722015583 474.824111851 608.400853869 c 0,10,11
 472.075626181 574.058156635 472.075626181 574.058156635 434.906432728 531.666599115 c 128,-1,12
 397.737239275 489.275041594 397.737239275 489.275041594 326.056089234 436.403722508 c 0,13,14
 233.675541572 365.643848022 233.675541572 365.643848022 215.872826089 338.423492526 c 0,15,16
 215.169749882 337.160590473 215.169749882 337.160590473 214.547110609 336.069173743 c 128,-1,17
 213.924471335 334.977757014 213.924471335 334.977757014 212.635724971 332.740563581 c 0,18,19
 210.232044286 328.571383496 210.232044286 328.571383496 209.760994529 327.513551931 c 0,20,21
 209.623685843 327.205277549 209.623685843 327.205277549 209.22131471 326.04126416 c 128,-1,22
 208.818943577 324.87725077 208.818943577 324.87725077 208.363440991 323.379289245 c 0,23,24
 208.130002395 322.611014178 208.130002395 322.611014178 208.003939782 321.788348156 c 0,25,26
 208.314105494 320.978485408 208.314105494 320.978485408 208.702415222 320.211111938 c 128,-1,27
 209.090724949 319.443738468 209.090724949 319.443738468 209.721734825 318.36977831 c 128,-1,28
 210.247618703 317.475237833 210.247618703 317.475237833 211.138444844 316.468675152 c 128,-1,29
 212.029270985 315.46211247 212.029270985 315.46211247 213.342498923 314.367481237 c 0,30,31
 227.171219375 302.790045919 227.171219375 302.790045919 243.683612138 293.559752962 c 128,-1,32
 260.196004901 284.329460005 260.196004901 284.329460005 279.624031564 277.379042968 c 128,-1,33
 299.052058226 270.42862593 299.052058226 270.42862593 321.279257753 265.852311357 c 0,34,35
 328.654767985 264.287779407 328.654767985 264.287779407 335.715415982 262.739850829 c 128,-1,36
 342.776063979 261.191922251 342.776063979 261.191922251 349.547949744 259.654687101 c 128,-1,37
 356.319835509 258.117451951 356.319835509 258.117451951 362.785029884 256.594532982 c 128,-1,38
 369.250224258 255.071614012 369.250224258 255.071614012 375.429219212 253.558284403 c 128,-1,39
 381.608214166 252.044954794 381.608214166 252.044954794 387.489062443 250.543575299 c 128,-1,40
 393.369910721 249.042195803 393.369910721 249.042195803 398.967122389 247.549301601 c 128,-1,41
 404.564334057 246.056407398 404.564334057 246.056407398 409.871943762 244.573097242 c 128,-1,42
 415.179553468 243.089787085 415.179553468 243.089787085 420.206089376 241.613858155 c 128,-1,43
 425.232625283 240.137929224 425.232625283 240.137929224 429.977730074 238.669297148 c 0,44,45
 456.238482702 230.030523496 456.238482702 230.030523496 474.18471719 216.657794445 c 128,-1,46
 492.130951678 203.285065395 492.130951678 203.285065395 501.490280527 184.968690869 c 128,-1,47
 510.849609375 166.652316342 510.849609375 166.652316342 510.849609375 144 c 0,48,49
 510.80908825 142.638018652 510.80908825 142.638018652 510.754687006 141.783207018 c 0,50,51
 508.648783348 123.880165353 508.648783348 123.880165353 499.850520815 106.419598278 c 128,-1,52
 491.052258282 88.9590312022 491.052258282 88.9590312022 476.065636196 72.4805489418 c 128,-1,53
 461.07901411 56.0020666814 461.07901411 56.0020666814 439.990916057 40.3558972488 c 0,54,55
 376.122318687 -5.9999999529 376.122318687 -5.9999999529 258.848741319 -5.9999999529 c 2,56,-1
 249.849966709 -5.99902342952 l 2,57,58
 215.603363734 -6.0005531152 215.603363734 -6.0005531152 176.496485577 8.40644860836 c 0,59,60
 159.984367823 14.1103767619 159.984367823 14.1103767619 143.879063651 21.9143777713 c 128,-1,61
 127.773759479 29.7183787807 127.773759479 29.7183787807 112.349605751 39.4925963101 c 0,62,63
 56.2048745564 75.0720398027 56.2048745564 75.0720398027 42.0719991097 117.324658876 c 0,64,65
 40.3843729558 122.3723506 40.3843729558 122.3723506 39.9263868811 128.641387733 c 128,-1,66
 39.4684008064 134.910424866 39.4684008064 134.910424866 40.2324119185 142.528141861 c 128,-1,67
 40.9964230305 150.145858856 40.9964230305 150.145858856 42.6858103094 158.639237002 c 128,-1,68
 44.3751975884 167.132615147 44.3751975884 167.132615147 47.1286407076 177.555082565 c 2,69,-1
 47.5742567888 178.808705617 l 1,70,-1
 50.9697646013 186.315541555 l 2,71,72
 52.3911355864 189.457928315 52.3911355864 189.457928315 55.7437202202 190.573949556 c 128,-1,73
 59.096304854 191.689970796 59.096304854 191.689970796 62.1174885563 190.026438692 c 0,74,75
 64.3988778584 188.770254124 64.3988778584 188.770254124 65.5035224283 186.411759436 c 0,76,77
 65.8449925499 185.68269645 65.8449925499 185.68269645 66.169500839 184.908511925 c 128,-1,78
 66.4940091281 184.134327399 66.4940091281 184.134327399 66.8124693414 183.293760047 c 2,79,-1
 68.0914324866 180.243497672 l 2,80,81
 70.4587617575 176.040592891 70.4587617575 176.040592891 73.4560614349 170.46489183 c 128,-1,82
 76.4533611122 164.889190768 76.4533611122 164.889190768 80.1045943147 157.898345211 c 0,83,84
 81.9036849906 154.453710381 81.9036849906 154.453710381 83.499745635 151.428969482 c 128,-1,85
 85.0958062794 148.404228582 85.0958062794 148.404228582 86.4716338112 145.831660192 c 128,-1,86
 87.8474613429 143.259091802 87.8474613429 143.259091802 89.0081409783 141.12820227 c 128,-1,87
 90.1688206137 138.997312738 90.1688206137 138.997312738 91.111450405 137.313411735 c 0,88,89
 94.7153825048 130.875396588 94.7153825048 130.875396588 100.861341677 122.745578273 c 0,90,91
 101.696678513 121.640602383 101.696678513 121.640602383 102.587483388 120.538855256 c 128,-1,92
 103.478288262 119.437108129 103.478288262 119.437108129 104.486005903 118.241289277 c 1,93,94
 200.692421259 583.119200064 200.692421259 583.119200064 204.976126743 605.327157231 c 0,95,96
 206.040837788 610.841578592 206.040837788 610.841578592 210.779153909 614.927523011 c 0,97,98
 219.278282209 622 219.278282209 622 229.848632812 622 c 0,99,100
 241.525183065 622 241.525183065 622 248.68739622 615.23816923 c 128,-1,101
 255.849609375 608.476338461 255.849609375 608.476338461 255.849609375 597 c 0,102,103
 255.849609375 593.025999984 255.849609375 593.025999984 253.716925665 582.736988828 c 128,-1,104
 251.584241954 572.447977673 251.584241954 572.447977673 245.695534916 546.538875352 c 0,105,106
 245.454424983 545.331452987 245.454424983 545.331452987 243.944505672 538.093817422 c 128,-1,107
 242.434586362 530.856181856 242.434586362 530.856181856 239.635789444 517.493436389 c 128,-1,108
 236.836992525 504.130690922 236.836992525 504.130690922 232.822764053 484.994353388 c 0,109,110
 224.378547809 444.738490128 224.378547809 444.738490128 219.448024516 418.402937037 c 1,111,112
 240.082254007 435.380217635 240.082254007 435.380217635 270.590171748 461.431416274 c 0,113,114
 292.174069048 479.862125492 292.174069048 479.862125492 306.663142357 492.136605132 c 128,-1,115
 321.152215665 504.411084773 321.152215665 504.411084773 328.288772666 510.312037176 c 0,116,117
 357.406210295 536.264253556 357.406210295 536.264253556 378.580720673 558.205743105 c 128,-1,118
 399.755231051 580.147232655 399.755231051 580.147232655 408.802559371 592.363505801 c 128,-1,119
 417.849887691 604.579778946 417.849887691 604.579778946 417.849609375 609 c 0,120,121
 417.849609375 611.272681433 417.849609375 611.272681433 415.0135377 614.323313363 c 128,-1,122
 412.177466024 617.373945292 412.177466024 617.373945292 403.306656968 621.891583508 c 128,-1,123
 394.435847912 626.409221723 394.435847912 626.409221723 380.88131785 630.282283751 c 0,124,125
 361.397800652 636.127907482 361.397800652 636.127907482 338.166878848 639.063953741 c 128,-1,126
 314.935957045 642 314.935957045 642 287.849609375 642 c 0,127,128
 234.058530647 642 234.058530647 642 171.661505832 628.231654218 c 1,129,130
 118.779974269 612.211520092 118.779974269 612.211520092 67.106531517 590.065827503 c 0,131,132
 41.676385837 579.166788355 41.676385837 579.166788355 26.6475035806 572.612593292 c 128,-1,133
 11.6186213243 566.058398229 11.6186213243 566.058398229 8.97897164883 564.738573391 c 0,134,135
 -14.7150479104 552.896036995 -14.7150479104 552.896036995 -40.8033619262 555.233054669 c 0,136,137
 -62.6110163752 557.185856997 -62.6110163752 557.185856997 -73.470863179 565.925876088 c 2,138,-1
 -73.9443833723 566.338621705 l 1,139,-1
 -72.3914847787 579.751367297 l 1,0,1
466.849609375 609.0390625 m 1025,140,-1
189.006696452 265.767406881 m 1,141,142
 173.793007361 195.190290585 173.793007361 195.190290585 164.417360502 150.867524068 c 128,-1,143
 155.041713644 106.544757551 155.041713644 106.544757551 151.000671302 86.1393062077 c 1,144,145
 161.230366817 79.0348015303 161.230366817 79.0348015303 172.772218401 73.4191920959 c 128,-1,146
 184.314069986 67.8035826615 184.314069986 67.8035826615 199.080511852 62.6940986052 c 0,147,148
 230.886289598 51.6901366861 230.886289598 51.6901366861 260.254726049 49.9885592486 c 0,149,150
 306.811777334 47.2911025611 306.811777334 47.2911025611 353.815447885 61.8843872678 c 0,151,152
 400.595478473 76.4080899293 400.595478473 76.4080899293 433.212926393 105.24453974 c 0,153,154
 455.850049551 125.257579 455.850049551 125.257579 455.848632826 149.000470312 c 0,155,156
 455.849781603 168.541160402 455.849781603 168.541160402 419.828179777 188.674812527 c 0,157,158
 401.957348161 196.31932384 401.957348161 196.31932384 301.198096768 221.19761657 c 0,159,160
 237.858196377 236.578974054 237.858196377 236.578974054 189.006696452 265.767406881 c 1,141,142
EndSplineSet
Validated: 33
EndChar

StartChar: C
Encoding: 67 67 11
Width: 466
VWidth: 875
Flags: W
LayerCount: 2
Fore
SplineSet
329.386631648 674.083684038 m 0,0,1
 332.615774202 673.341297078 332.615774202 673.341297078 335.72417861 672.514374225 c 128,-1,2
 338.832583018 671.687451372 338.832583018 671.687451372 341.83838894 670.77073817 c 128,-1,3
 344.844194862 669.854024967 344.844194862 669.854024967 347.732422374 668.849006327 c 128,-1,4
 350.620649886 667.843987687 350.620649886 667.843987687 353.39983488 666.74908289 c 128,-1,5
 356.179019873 665.654178094 356.179019873 665.654178094 358.844426445 664.4669534 c 128,-1,6
 361.509833016 663.279728705 361.509833016 663.279728705 364.059753035 662.002522048 c 128,-1,7
 366.609673055 660.725315391 366.609673055 660.725315391 369.04961464 659.351774376 c 128,-1,8
 371.489556225 657.97823336 371.489556225 657.97823336 373.808207476 656.51436966 c 0,9,10
 382.925115992 650.760698974 382.925115992 650.760698974 392.617467851 642.349303149 c 0,11,12
 397.410474624 638.189747476 397.410474624 638.189747476 402.337897158 633.390610084 c 128,-1,13
 407.265319693 628.591472692 407.265319693 628.591472692 412.341168032 623.144469209 c 2,14,-1
 413.032471341 622.312454513 l 2,15,16
 414.279310375 620.497195598 414.279310375 620.497195598 414.99543935 619.305208782 c 128,-1,17
 415.711568326 618.113221966 415.711568326 618.113221966 416.33489875 616.770057108 c 0,18,19
 418.100681441 612.965113271 418.100681441 612.965113271 417.595156835 609.414499495 c 0,20,21
 416.131347742 598.931737607 416.131347742 598.931737607 400.075631597 601.615257191 c 0,22,23
 397.808440342 601.993137 397.808440342 601.993137 395.172773369 602.627239565 c 128,-1,24
 392.537106396 603.26134213 392.537106396 603.26134213 389.411765947 604.168455048 c 128,-1,25
 386.38177357 605.047893711 386.38177357 605.047893711 382.824233398 606.191041168 c 128,-1,26
 379.266693227 607.334188624 379.266693227 607.334188624 375.148969888 608.749800941 c 0,27,28
 366.985851427 611.556160207 366.985851427 611.556160207 356.450851195 615.48700497 c 0,29,30
 348.996952143 618.268804445 348.996952143 618.268804445 343.231093376 620.262233821 c 128,-1,31
 337.545524132 622.227904713 337.545524132 622.227904713 334.066599226 623.255867724 c 2,32,-1
 330.678614054 624.165551409 l 1,33,34
 265.114514893 616.598415738 265.114514893 616.598415738 161.295711733 476.840425715 c 0,35,36
 143.931649874 452.966639324 143.931649874 452.966639324 129.762197257 428.226832348 c 128,-1,37
 115.592744639 403.487025371 115.592744639 403.487025371 104.636198842 377.924530133 c 128,-1,38
 93.6796530451 352.362034894 93.6796530451 352.362034894 85.9263275454 325.967888104 c 0,39,40
 76.4251338694 293.615686236 76.4251338694 293.615686236 74.3232153286 262.936505929 c 128,-1,41
 72.2297331446 232.380460988 72.2297331446 232.380460988 77.4702918128 203.462703346 c 0,42,43
 80.7844170909 185.15702927 80.7844170909 185.15702927 85.2451186949 168.891622222 c 128,-1,44
 89.705820299 152.626215174 89.705820299 152.626215174 95.2353292123 138.576188513 c 128,-1,45
 100.764838126 124.526161851 100.764838126 124.526161851 107.390093395 112.538894626 c 0,46,47
 127.006531223 77.0463026148 127.006531223 77.0463026148 156.283726304 59.3576559321 c 0,48,49
 194.408083387 36.325522841 194.408083387 36.325522841 253.429801193 57.8535981499 c 0,50,51
 257.742470951 59.4265683607 257.742470951 59.4265683607 262.23928892 61.3593819304 c 128,-1,52
 266.759522679 63.3022600295 266.759522679 63.3022600295 271.461588991 65.6072496302 c 0,53,54
 280.878433105 70.2245409373 280.878433105 70.2245409373 290.299973652 75.8749162239 c 128,-1,55
 299.830859478 81.5954721833 299.830859478 81.5954721833 309.014756971 87.6083526657 c 128,-1,56
 318.191046125 93.6174766284 318.191046125 93.6174766284 328.328092578 100.814248568 c 128,-1,57
 338.634863273 108.131413777 338.634863273 108.131413777 347.189321992 114.338334283 c 128,-1,58
 355.669450589 120.491008833 355.669450589 120.491008833 366.485269841 128.265665183 c 128,-1,59
 377.120744773 135.908390961 377.120744773 135.908390961 385.192725627 141.443241825 c 0,60,61
 386.295457331 142.199345173 386.295457331 142.199345173 387.588648611 143.15722201 c 128,-1,62
 388.88183989 144.115098847 388.88183989 144.115098847 390.34403803 145.261813336 c 2,63,-1
 395.623074663 149.487394079 l 2,64,65
 398.099757907 151.521354152 398.099757907 151.521354152 401.259942366 153.821518101 c 2,66,-1
 407.479569347 157.919366653 l 2,67,68
 410.572563621 159.717500115 410.572563621 159.717500115 414.872364178 161.707929214 c 128,-1,69
 419.172164735 163.698358313 419.172164735 163.698358313 424.988182858 166.054888365 c 0,70,71
 427.150869394 166.93065171 427.150869394 166.93065171 429.034109347 167.698175966 c 128,-1,72
 430.917349301 168.465700222 430.917349301 168.465700222 432.518613364 169.123936657 c 0,73,74
 435.743886053 170.449755467 435.743886053 170.449755467 439.591283889 168.663546102 c 128,-1,75
 443.438681725 166.877336737 443.438681725 166.877336737 444.50736819 163.557986097 c 2,76,-1
 444.888056924 162.579135618 l 2,77,78
 445.123159352 162.066973684 445.123159352 162.066973684 444.849401495 160.152410879 c 2,79,-1
 444.498718001 157.627968046 l 2,80,81
 442.252377445 153.723093947 442.252377445 153.723093947 440.64801474 151.081162011 c 0,82,83
 440.169812707 150.293698416 440.169812707 150.293698416 439.871243465 149.801041667 c 2,84,-1
 438.085110653 146.836197917 l 2,85,86
 437.830290213 146.413215491 437.830290213 146.413215491 437.525384236 146.024782826 c 0,87,88
 389.043127528 84.2611782507 389.043127528 84.2611782507 323.359664296 38.3621017812 c 0,89,90
 277.127436704 6.19723376442 277.127436704 6.19723376442 228.062090747 -2.80190456705 c 0,91,92
 216.526050415 -5.68043936273 216.526050415 -5.68043936273 205.795158566 -6.46980719523 c 0,93,94
 173.477434671 -8.85112972295 173.477434671 -8.85112972295 146.346063246 3.2820662506 c 0,95,96
 110.653969557 17.9605190665 110.653969557 17.9605190665 82.8217660061 50.9697313988 c 0,97,98
 55.2716604026 83.6417985062 55.2716604026 83.6417985062 39.6853130869 124.708659674 c 128,-1,99
 24.1740721925 165.575625094 24.1740721925 165.575625094 19.8087545724 211.286262673 c 2,100,-1
 19.4451777916 216.233896035 l 2,101,102
 16.9795282109 249.733445187 16.9795282109 249.733445187 20.3132314495 282.424360861 c 128,-1,103
 23.646934688 315.115276535 23.646934688 315.115276535 32.7760896106 346.92063102 c 0,104,105
 57.1837678149 431.951474755 57.1837678149 431.951474755 111.406755947 506.68466429 c 0,106,107
 183.453497279 605.986550389 183.453497279 605.986550389 261.572733487 653.036995695 c 0,108,109
 266.636517151 656.086548615 266.636517151 656.086548615 271.42302132 658.696727581 c 128,-1,110
 276.20952549 661.306906547 276.20952549 661.306906547 280.79403463 663.514814316 c 128,-1,111
 285.378543771 665.722722086 285.378543771 665.722722086 289.74769712 667.506929502 c 128,-1,112
 294.116850469 669.291136917 294.116850469 669.291136917 298.258320702 670.644930064 c 0,113,114
 315.512649902 676.2851475 315.512649902 676.2851475 329.386631648 674.083684038 c 0,0,1
405.756835938 617.008789062 m 1025,115,-1
406.5390625 617.63671875 m 1025,116,-1
432.041015625 150.331054688 m 1025,117,-1
407.3359375 618.27734375 m 1025,118,-1
EndSplineSet
Validated: 33
EndChar

StartChar: D
Encoding: 68 68 12
Width: 674
VWidth: 875
Flags: W
LayerCount: 2
Fore
SplineSet
324.940429688 678.169921875 m 0,0,1
 485.746976047 678.169921875 485.746976047 678.169921875 575.346625445 558.367647499 c 0,2,3
 645.559570312 466.087091709 645.559570312 466.087091709 645.559570312 354.610351562 c 0,4,5
 645.559570312 227.519738719 645.559570312 227.519738719 559.568755285 151.645312264 c 0,6,7
 541.102160523 135.175079241 541.102160523 135.175079241 524.790472519 123.380235868 c 128,-1,8
 508.478784514 111.585392496 508.478784514 111.585392496 494.13731303 104.414911949 c 0,9,10
 411.264745374 62.9781365583 411.264745374 62.9781365583 315.615044108 32.4099691004 c 0,11,12
 219.723565012 1.76421835585 219.723565012 1.76421835585 144.425294583 -5.17146043165 c 0,13,14
 125.439412998 -7.169921875 125.439412998 -7.169921875 111.299804688 -7.169921875 c 0,15,16
 94.7231664616 -7.169921875 94.7231664616 -7.169921875 84.8015246371 1.03437331659 c 128,-1,17
 74.8798828125 9.23866850818 74.8798828125 9.23866850818 74.8798828125 24.349609375 c 0,18,19
 74.8798828125 34.3452721248 74.8798828125 34.3452721248 86.8466995438 39.9288326882 c 0,20,21
 94.944294964 43.7086430404 94.944294964 43.7086430404 112.40797059 47.8176227569 c 0,22,23
 126.070579459 51.0322600372 126.070579459 51.0322600372 129.49188143 52.1860848026 c 2,24,-1
 130.563582262 52.5929016287 l 2,25,26
 151.880854011 58.9819773469 151.880854011 58.9819773469 192.128634485 65.3054267369 c 0,27,28
 211.764410429 68.3899794661 211.764410429 68.3899794661 225.610948461 70.8968290995 c 128,-1,29
 239.457486494 73.403678733 239.457486494 73.403678733 247.118159807 75.2476013887 c 0,30,31
 310.914199323 90.6028167643 310.914199323 90.6028167643 355.080679654 106.364670158 c 0,32,33
 440.648131157 136.900919168 440.648131157 136.900919168 470.10762038 155.567102088 c 0,34,35
 518.497633539 186.230279258 518.497633539 186.230279258 551.975211115 227.359765634 c 0,36,37
 584.48046875 267.294479148 584.48046875 267.294479148 584.48046875 349.709960938 c 0,38,39
 584.48046875 369.791894994 584.48046875 369.791894994 581.586501144 392.939791308 c 0,40,41
 575.900688625 453.590346845 575.900688625 453.590346845 536.039842713 508.161157579 c 0,42,43
 488.704998466 572.964790747 488.704998466 572.964790747 438.341885725 595.225404977 c 0,44,45
 370.55054067 624.824710978 370.55054067 624.824710978 309.785519313 621.027015407 c 0,46,47
 184.593971325 612.360520932 184.593971325 612.360520932 79.6395440898 540.144383184 c 0,48,49
 32.5327908051 506.349609375 32.5327908051 506.349609375 17.2197265625 506.349609375 c 0,50,51
 -1.5595703125 506.349609375 -1.5595703125 506.349609375 -1.5595703125 522.190429688 c 0,52,53
 -1.5595703125 532.20542049 -1.5595703125 532.20542049 5.63404713329 543.622105019 c 128,-1,54
 12.8276645791 555.038789547 12.8276645791 555.038789547 27.0485739286 569.78665195 c 0,55,56
 82.4922606712 631.279690631 82.4922606712 631.279690631 210.383399087 663.251728504 c 0,57,58
 276.022260663 678.169921875 276.022260663 678.169921875 324.940429688 678.169921875 c 0,0,1
280.447632478 514.808999033 m 0,59,60
 281.084180817 516.262099831 281.084180817 516.262099831 282.564476898 519.738281975 c 128,-1,61
 284.044772979 523.21446412 284.044772979 523.21446412 284.663107907 524.592714775 c 128,-1,62
 285.281442835 525.970965431 285.281442835 525.970965431 286.645712448 528.707305236 c 128,-1,63
 288.00998206 531.443645041 288.00998206 531.443645041 288.89034965 532.60767851 c 128,-1,64
 289.770717241 533.771711979 289.770717241 533.771711979 291.267481646 535.549467909 c 128,-1,65
 292.76424605 537.327223839 292.76424605 537.327223839 294.155167563 538.058298586 c 128,-1,66
 295.546089076 538.789373333 295.546089076 538.789373333 297.423869534 539.389803854 c 128,-1,67
 299.301649992 539.990234375 299.301649992 539.990234375 301.419921875 539.990234375 c 0,68,69
 311.58580336 539.990234375 311.58580336 539.990234375 316.041527155 522.170298832 c 0,70,71
 319.219726562 509.454333557 319.219726562 509.454333557 319.219726562 493.76953125 c 0,72,73
 319.219726562 480.537390907 319.219726562 480.537390907 316.626941514 466.100502307 c 128,-1,74
 314.034156467 451.663613706 314.034156467 451.663613706 309.102563854 436.635214597 c 2,75,-1
 308.201797116 433.030351494 l 1,76,77
 238.770385409 215.880711055 238.770385409 215.880711055 230.019048845 95.3105086611 c 0,78,79
 228.977618748 86.8962104432 228.977618748 86.8962104432 228.461393048 83.7947346794 c 0,80,81
 227.773234657 79.6671551679 227.773234657 79.6671551679 226.254313786 76.6308262945 c 0,82,83
 223.70096002 71.5266619437 223.70096002 71.5266619437 218.120117188 72.2099609375 c 0,84,85
 213.184194639 72.357788448 213.184194639 72.357788448 209.843830174 75.8809039977 c 0,86,87
 205.126160485 82.4222520161 205.126160485 82.4222520161 200.359762412 91.0013886035 c 0,88,89
 185.620117188 117.322708227 185.620117188 117.322708227 185.620117188 159.58984375 c 2,90,-1
 185.620117188 167.4296875 l 2,91,92
 185.620117188 167.622012445 185.620117188 167.622012445 185.633978045 167.868626385 c 0,93,94
 196.529528363 270.005272734 196.529528363 270.005272734 241.893039366 414.970591668 c 0,95,96
 257.115638375 457.594880193 257.115638375 457.594880193 266.389705028 481.683966562 c 128,-1,97
 275.663771681 505.773052931 275.663771681 505.773052931 280.447632478 514.808999033 c 0,59,60
EndSplineSet
Validated: 33
EndChar

StartChar: E
Encoding: 69 69 13
Width: 467
VWidth: 875
Flags: W
LayerCount: 2
Fore
SplineSet
129.279502855 580.960079869 m 0,0,1
 137.151806805 606.827694073 137.151806805 606.827694073 209.798530814 645.225373254 c 0,2,3
 289.348897065 685.00055638 289.348897065 685.00055638 335.999645532 684.99902343 c 0,4,5
 371.595472787 685.00060063 371.595472787 685.00060063 409.165668667 659.361866849 c 2,6,-1
 409.567743189 659.068748659 l 2,7,8
 411.677686653 657.42769853 411.677686653 657.42769853 415.390791932 654.67042244 c 128,-1,9
 419.103897212 651.913146349 419.103897212 651.913146349 420.973815549 650.479203114 c 128,-1,10
 422.843733887 649.045259878 422.843733887 649.045259878 425.413242861 646.728727081 c 128,-1,11
 427.982751835 644.412194285 427.982751835 644.412194285 429.211860475 642.670298157 c 128,-1,12
 430.440969116 640.928402028 430.440969116 640.928402028 431.372340027 638.603041579 c 128,-1,13
 432.303710938 636.277681129 432.303710938 636.277681129 432.303710938 633.84375 c 0,14,15
 432.005496761 624.098772951 432.005496761 624.098772951 422.961724594 625.365234375 c 0,16,17
 419.306490537 625.365234375 419.306490537 625.365234375 402.748211903 628.458386488 c 2,18,-1
 401.775524061 628.640070908 l 1,19,-1
 400.789308654 628.824179991 l 1,20,-1
 399.751861234 629.017645187 l 2,21,22
 387.62965669 630.967576923 387.62965669 630.967576923 374.595844224 631.97311285 c 128,-1,23
 361.562031759 632.978648777 361.562031759 632.978648777 347.999023438 633 c 0,24,25
 324.510177393 633 324.510177393 633 283.191946073 619.022693303 c 0,26,27
 282.012874742 618.47307791 282.012874742 618.47307791 279.960999354 617.585218068 c 128,-1,28
 277.909123966 616.697358225 277.909123966 616.697358225 275.079039087 615.508153187 c 128,-1,29
 272.248954208 614.318948149 272.248954208 614.318948149 268.286971783 612.676717316 c 128,-1,30
 264.250885355 611.004342973 264.250885355 611.004342973 260.472467475 609.361756391 c 128,-1,31
 256.694049594 607.71916981 256.694049594 607.71916981 253.195718621 606.116806343 c 128,-1,32
 249.697387649 604.514442876 249.697387649 604.514442876 246.464200318 602.946173244 c 0,33,34
 239.593201415 599.612029347 239.593201415 599.612029347 236.102561101 597.018055483 c 0,35,36
 226.880619924 566.875376994 226.880619924 566.875376994 216.977424043 536.232973 c 128,-1,37
 207.074228161 505.590569007 207.074228161 505.590569007 195.62299166 471.734517268 c 2,38,-1
 162.560973685 376.429425303 l 1,39,40
 205.302344615 389.191179994 205.302344615 389.191179994 275.36434646 403.045906954 c 0,41,42
 281.071315472 404.028627363 281.071315472 404.028627363 285.608589807 404.505036338 c 128,-1,43
 290.145864141 404.981445312 290.145864141 404.981445312 294.03125 404.981445312 c 2,44,-1
 297.68763584 404.852266635 l 2,45,46
 309.143554688 404.152981564 309.143554688 404.152981564 309.143554688 394.950195312 c 0,47,48
 309.143554688 391.60966372 309.143554688 391.60966372 306.824322119 388.129219798 c 0,49,50
 304.961406126 385.333579667 304.961406126 385.333579667 301.762824577 382.592132883 c 128,-1,51
 298.564243027 379.850686099 298.564243027 379.850686099 294.9663175 377.554984806 c 128,-1,52
 291.368391973 375.259283513 291.368391973 375.259283513 285.500114669 371.936798839 c 0,53,54
 285.13445235 371.72976918 285.13445235 371.72976918 284.749113376 371.562186106 c 0,55,56
 282.528967911 370.596649717 282.528967911 370.596649717 267.674743403 364.596138906 c 128,-1,57
 252.820518896 358.595628095 252.820518896 358.595628095 223.448826301 346.792770045 c 0,58,59
 169.122675718 324.961416796 169.122675718 324.961416796 139.773538171 309.361456052 c 1,60,61
 120.883161312 251.00448634 120.883161312 251.00448634 111.228367731 217.568520939 c 0,62,63
 93 154.084261827 93 154.084261827 93 120 c 0,64,65
 93 55.5280946313 93 55.5280946313 129.501409925 52.9822162754 c 0,66,67
 130.430137162 52.9129943696 130.430137162 52.9129943696 131.350414006 52.8793487473 c 128,-1,68
 132.270690849 52.845703125 132.270690849 52.845703125 133.233398438 52.845703125 c 0,69,70
 147.821959737 52.845703125 147.821959737 52.845703125 166.812262716 61.2581283635 c 128,-1,71
 185.802565695 69.6705536021 185.802565695 69.6705536021 208.566905239 86.7669736619 c 0,72,73
 228.339884295 101.616942421 228.339884295 101.616942421 260.856584781 136.596372754 c 0,74,75
 266.008505308 142.13823887 266.008505308 142.13823887 272.591250113 149.44438659 c 1,76,-1
 282.578860511 160.482221219 l 2,77,78
 284.304600786 162.374087701 284.304600786 162.374087701 286.137253729 164.295802425 c 128,-1,79
 287.969906672 166.217517149 287.969906672 166.217517149 289.907384025 168.167319102 c 0,80,81
 294.221372226 172.510078507 294.221372226 172.510078507 297.158840056 174.399889772 c 0,82,83
 299.021050639 175.600260647 299.021050639 175.600260647 300.865789217 176.300130323 c 128,-1,84
 302.710527795 177 302.710527795 177 305 177 c 0,85,86
 320 177 320 177 320 160 c 0,87,88
 320 155.422887513 320 155.422887513 318.097826037 150.110183203 c 128,-1,89
 316.195652075 144.797478893 316.195652075 144.797478893 312.060362418 138.143654634 c 128,-1,90
 307.92507276 131.489830374 307.92507276 131.489830374 303.009590459 124.825873899 c 128,-1,91
 298.094108158 118.161917423 298.094108158 118.161917423 290.504904251 108.675710185 c 0,92,93
 263.188892602 73.2666698847 263.188892602 73.2666698847 234.742423817 46.8505987874 c 0,94,95
 176.708096618 -6 176.708096618 -6 128 -6 c 0,96,97
 78.0218415022 -6 78.0218415022 -6 47.9715486275 44.4412236623 c 0,98,99
 42.9602269872 53.0327419956 42.9602269872 53.0327419956 39.624953111 62.4586843081 c 128,-1,100
 36.2896792349 71.8846266206 36.2896792349 71.8846266206 34.6448396174 82.0005340762 c 128,-1,101
 33 92.1164415317 33 92.1164415317 33 103 c 0,102,103
 33 206.286665764 33 206.286665764 139.461255324 486.497975755 c 0,104,105
 149.41792726 512.369348184 149.41792726 512.369348184 165.831428509 563.482322646 c 1,106,107
 164.639387559 562.816603013 164.639387559 562.816603013 163.912888027 562.410000236 c 0,108,109
 156.891029544 558.481425155 156.891029544 558.481425155 151.368485987 555.718202955 c 128,-1,110
 145.84594243 552.954980756 145.84594243 552.954980756 141.552597054 551.247173745 c 0,111,112
 139.96891824 550.617217954 139.96891824 550.617217954 138.265994644 550.68746118 c 0,113,114
 126.587890625 551.169166698 126.587890625 551.169166698 126.587890625 565.217773438 c 0,115,116
 126.587890625 571.317745797 126.587890625 571.317745797 129.279502855 580.960079869 c 0,0,1
404.65625 652.75390625 m 1025,117,-1
EndSplineSet
Validated: 33
EndChar

StartChar: F
Encoding: 70 70 14
Width: 490
VWidth: 875
Flags: W
LayerCount: 2
Fore
SplineSet
539.57714507 683.585544371 m 0,0,1
 544.493022751 683.828701707 544.493022751 683.828701707 549.125267316 683.949044266 c 128,-1,2
 553.75751188 684.069386824 553.75751188 684.069386824 558.203051895 684.069386824 c 0,3,4
 582.894488941 684.069386824 582.894488941 684.069386824 600.757157094 680.393104183 c 128,-1,5
 618.619825247 676.716821542 618.619825247 676.716821542 630.745220299 668.04934969 c 128,-1,6
 642.87061535 659.381877838 642.87061535 659.381877838 646.701180589 645.762740061 c 0,7,8
 646.766177071 645.531652482 646.766177071 645.531652482 646.82827701 645.232132285 c 0,9,10
 648 637.164167111 648 637.164167111 648 631.596679688 c 0,11,12
 648 614.596679688 648 614.596679688 634 614.596679688 c 0,13,14
 624.500988177 614.596679688 624.500988177 614.596679688 609.558830658 624.941250278 c 0,15,16
 605.840987755 627.331292144 605.840987755 627.331292144 598.881295326 629.166090276 c 128,-1,17
 591.921602897 631.000888407 591.921602897 631.000888407 580.925415468 632.14275057 c 128,-1,18
 569.929228039 633.284612733 569.929228039 633.284612733 556.534824497 633.284612733 c 0,19,20
 545.445306913 633.284612733 545.445306913 633.284612733 532.415246793 632.607463825 c 0,21,22
 527.479707621 632.350934668 527.479707621 632.350934668 522.16952139 631.982172673 c 128,-1,23
 516.859335159 631.613410677 516.859335159 631.613410677 511.171800655 631.132242986 c 128,-1,24
 505.484266151 630.651075295 505.484266151 630.651075295 499.420735882 630.057080421 c 128,-1,25
 493.357205613 629.463085547 493.357205613 629.463085547 486.921877124 628.756941154 c 128,-1,26
 480.486548635 628.050796761 480.486548635 628.050796761 473.673415756 627.231174139 c 128,-1,27
 466.860282877 626.411551517 466.860282877 626.411551517 459.680901831 625.480035553 c 128,-1,28
 452.501520785 624.548519588 452.501520785 624.548519588 444.942526724 623.502874348 c 128,-1,29
 437.383532663 622.457229107 437.383532663 622.457229107 429.463380572 621.299890001 c 0,30,31
 414.596642115 619.127441586 414.596642115 619.127441586 400.466144787 616.731074176 c 128,-1,32
 386.335647459 614.334706766 386.335647459 614.334706766 373.798856212 611.876397694 c 128,-1,33
 361.262064964 609.418088623 361.262064964 609.418088623 350.216112153 606.913572447 c 128,-1,34
 339.170159341 604.409056271 339.170159341 604.409056271 329.962608098 601.933800262 c 0,35,36
 328.720707106 598.578975971 328.720707106 598.578975971 327.277584763 594.528546222 c 128,-1,37
 325.834462419 590.478116473 325.834462419 590.478116473 323.538137046 583.917507191 c 0,38,39
 317.692519566 567.717159033 317.692519566 567.717159033 296.641108451 508.518790726 c 0,40,41
 279.912140131 461.475501201 279.912140131 461.475501201 268.815118009 431.212065628 c 1,42,43
 336.029281415 448.423019799 336.029281415 448.423019799 387.154000695 455.802709697 c 0,44,45
 390.811351038 456.33061084 390.811351038 456.33061084 394.294421041 456.752937385 c 128,-1,46
 397.777491043 457.175263929 397.777491043 457.175263929 401.120309328 457.494986251 c 128,-1,47
 404.463127614 457.814708573 404.463127614 457.814708573 407.638772137 458.02786584 c 128,-1,48
 410.814416661 458.241023107 410.814416661 458.241023107 413.849430594 458.348578618 c 128,-1,49
 416.884444527 458.456134129 416.884444527 458.456134129 419.759391276 458.456134129 c 0,50,51
 444.263081293 458.456134129 444.263081293 458.456134129 457.360077252 450.445556816 c 0,52,53
 463.439518142 445.153657988 463.439518142 445.153657988 464.178118709 440.025718354 c 0,54,55
 464.178118709 430.682807386 464.178118709 430.682807386 447.723080958 425.908013434 c 0,56,57
 445.883130306 425.374741433 445.883130306 425.374741433 443.919449498 424.903417842 c 0,58,59
 437.718708949 423.201707226 437.718708949 423.201707226 376.40700302 407.075637013 c 0,60,61
 366.219497401 404.396141664 366.219497401 404.396141664 356.91031675 401.907350595 c 128,-1,62
 347.601136099 399.418559525 347.601136099 399.418559525 339.202111311 397.129109318 c 128,-1,63
 330.803086522 394.83965911 330.803086522 394.83965911 323.294116357 392.744515848 c 128,-1,64
 315.785146192 390.649372585 315.785146192 390.649372585 309.182871635 388.753052643 c 128,-1,65
 302.580597077 386.856732702 302.580597077 386.856732702 296.88111946 385.15859705 c 128,-1,66
 291.181641843 383.460461399 291.181641843 383.460461399 286.386412238 381.960906208 c 0,67,68
 279.287194696 379.742184076 279.287194696 379.742184076 272.88915379 377.536824532 c 128,-1,69
 266.491112884 375.331464989 266.491112884 375.331464989 261.2357664 373.305814093 c 128,-1,70
 255.980419915 371.280163197 255.980419915 371.280163197 251.726034209 369.424879068 c 128,-1,71
 247.471648504 367.569594939 247.471648504 367.569594939 244.26023055 365.906105625 c 0,72,73
 222.585430168 315.643825284 222.585430168 315.643825284 194.279194092 254.277857954 c 0,74,75
 122 93.8774546262 122 93.8774546262 122 52.5966796875 c 0,76,77
 122 46.5698857578 122 46.5698857578 125.06449402 40.3574490351 c 0,78,79
 130.000000781 31.647336503 130.000000781 31.647336503 130 24.5966796875 c 0,80,81
 130 16.6154674677 130 16.6154674677 127.089266393 10.1180662772 c 128,-1,82
 124.178532785 3.62066508675 124.178532785 3.62066508675 118.251078132 -0.331207042084 c 0,83,84
 112.909489692 -3.89226600215 112.909489692 -3.89226600215 106.531480114 -5.64779315732 c 128,-1,85
 100.153470535 -7.4033203125 100.153470535 -7.4033203125 93 -7.4033203125 c 0,86,87
 62 -7.4033203125 62 -7.4033203125 62 46.5966796875 c 0,88,89
 62 47.062301866 62 47.062301866 62.0540180139 47.5247800464 c 0,90,91
 67.7171011204 96.009575809 67.7171011204 96.009575809 86.0995624752 145.909799784 c 0,92,93
 104.288837368 195.288279239 104.288837368 195.288279239 135.823554881 260.301937859 c 0,94,95
 157.296342093 304.570714708 157.296342093 304.570714708 169.811056054 332.387253579 c 1,96,97
 163.057600632 329.028871387 163.057600632 329.028871387 154.922447756 325.041908381 c 128,-1,98
 146.78729488 321.054945375 146.78729488 321.054945375 137.245700704 316.426447934 c 128,-1,99
 127.704106528 311.797950492 127.704106528 311.797950492 116.499094009 306.402423126 c 0,100,101
 83.6899510507 290.285356609 83.6899510507 290.285356609 65.2145439329 282.941018149 c 128,-1,102
 46.739136815 275.596679688 46.739136815 275.596679688 37 275.596679688 c 2,103,-1
 34 275.596679688 l 1,104,-1
 33 275.596679688 l 1,105,-1
 29.4229900588 276.440912791 l 2,106,107
 23.363821784 279.469757284 23.363821784 279.469757284 20.181910892 285.237649394 c 128,-1,108
 17 291.005541505 17 291.005541505 17 298.096679688 c 0,109,110
 17 310.974805819 17 310.974805819 45.7849225193 329.397156231 c 0,111,112
 58.6986394665 337.1453864 58.6986394665 337.1453864 79.6755862228 348.132548414 c 128,-1,113
 100.652532979 359.119710428 100.652532979 359.119710428 130.496528929 373.788793183 c 0,114,115
 179.850911274 397.614291263 179.850911274 397.614291263 200.562745084 409.152293962 c 1,116,117
 244.543036964 523.873358284 244.543036964 523.873358284 265.150438178 583.488000214 c 1,118,119
 215.555438868 567.314137087 215.555438868 567.314137087 171.808351113 551.105743948 c 0,120,121
 83.4662726098 517.596679688 83.4662726098 517.596679688 58 517.596679688 c 0,122,123
 52.9170708052 517.596679688 52.9170708052 517.596679688 48.5849455825 520.195961867 c 128,-1,124
 44.2528203599 522.795244046 44.2528203599 522.795244046 41.3435976453 527.159078118 c 0,125,126
 39.7682645473 529.522077765 39.7682645473 529.522077765 38.8841322737 532.17468153 c 128,-1,127
 38 534.827285295 38 534.827285295 38 537.596679688 c 0,128,129
 38 543.195923646 38 543.195923646 41.0174972663 548.361994154 c 128,-1,130
 44.0349945327 553.528064661 44.0349945327 553.528064661 48.574897671 557.423939887 c 128,-1,131
 53.1148008093 561.319815114 53.1148008093 561.319815114 59.8983567638 565.465689562 c 0,132,133
 63.262881507 567.428055189 63.262881507 567.428055189 67.2349315534 569.32116298 c 128,-1,134
 71.2069815997 571.214270771 71.2069815997 571.214270771 75.8059085104 573.048519513 c 128,-1,135
 80.404835421 574.882768256 80.404835421 574.882768256 85.5515449717 576.657441228 c 128,-1,136
 90.6982545223 578.432114201 90.6982545223 578.432114201 96.6201596803 580.234684602 c 0,137,138
 144.867709025 595.615847224 144.867709025 595.615847224 182.929076481 607.420977386 c 128,-1,139
 220.990443937 619.226107549 220.990443937 619.226107549 248.725978381 627.411164984 c 128,-1,140
 276.619456773 635.64248685 276.619456773 635.64248685 311.526190709 644.234090834 c 128,-1,141
 346.432924646 652.825694819 346.432924646 652.825694819 388.419834736 661.798919154 c 0,142,143
 472.718580846 679.814809306 472.718580846 679.814809306 539.57714507 683.585544371 c 0,0,1
EndSplineSet
Validated: 1
EndChar

StartChar: G
Encoding: 71 71 15
Width: 541
VWidth: 965
Flags: W
LayerCount: 2
Fore
SplineSet
461.648109244 364.911125419 m 1,0,1
 448.096520762 331.766320897 448.096520762 331.766320897 438.037668206 306.103827554 c 128,-1,2
 427.978815649 280.441334211 427.978815649 280.441334211 421.446391279 262.353392411 c 0,3,4
 408.336681682 226.046022283 408.336681682 226.046022283 396.705140686 173.953666775 c 0,5,6
 382.187139469 108.943355441 382.187139469 108.943355441 385.115796066 75.6141133333 c 0,7,8
 386.788759893 56.5692532333 386.788759893 56.5692532333 399.739418346 27.0672361759 c 0,9,10
 410.642578262 6.32333701428 410.642578262 6.32333701428 410.642578125 -2.5166015625 c 0,11,12
 410.642578125 -17.4581864671 410.642578125 -17.4581864671 397.808454611 -18.9931914506 c 0,13,14
 397.45031379 -19.0360263154 397.45031379 -19.0360263154 397.089771351 -19.0464581485 c 0,15,16
 376.017159977 -19.6561671346 376.017159977 -19.6561671346 359.270398392 2.53839171324 c 0,17,18
 337.618686963 32.9882104231 337.618686963 32.9882104231 331.531696222 72.5899765825 c 0,19,20
 329.730867084 81.1758636203 329.730867084 81.1758636203 330.449768494 93.6681658964 c 128,-1,21
 331.169345655 106.157539983 331.169345655 106.157539983 332.221624011 113.761855496 c 0,22,23
 332.70672063 117.27622568 332.70672063 117.27622568 333.404185765 121.904422592 c 1,24,25
 332.226050402 120.168775411 332.226050402 120.168775411 331.844778598 119.605316378 c 128,-1,26
 331.463506795 119.041857345 331.463506795 119.041857345 330.594474937 117.753405199 c 0,27,28
 315.908915649 95.9784352118 315.908915649 95.9784352118 310.816220371 89.1768355069 c 0,29,30
 296.819106025 70.5123577567 296.819106025 70.5123577567 274.118331527 46.2629035688 c 0,31,32
 250.865774439 21.4264014578 250.865774439 21.4264014578 226.351569321 8.63566681972 c 0,33,34
 201.37048053 -4.396484375 201.37048053 -4.396484375 176.202148438 -4.396484375 c 0,35,36
 121.746430078 -4.396484375 121.746430078 -4.396484375 79.9338412647 31.9002304493 c 0,37,38
 7.29474030938 89.9648712829 7.29474030938 89.9648712829 61.4544996165 256.713708596 c 0,39,40
 97.2921594781 363.384099145 97.2921594781 363.384099145 164.325034598 461.451004855 c 0,41,42
 263.273965128 605.750581393 263.273965128 605.750581393 380.106013053 663.650342815 c 0,43,44
 387.259241134 667.359111619 387.259241134 667.359111619 394.494064613 670.165897198 c 128,-1,45
 401.728888091 672.972682778 401.728888091 672.972682778 409.02359561 674.868729807 c 128,-1,46
 416.318303129 676.764776836 416.318303129 676.764776836 423.672610483 677.724185293 c 128,-1,47
 431.026917836 678.68359375 431.026917836 678.68359375 438.341796875 678.68359375 c 0,48,49
 486.291499839 678.68359375 486.291499839 678.68359375 501.095581848 631.993114079 c 0,50,51
 501.247409629 631.514265615 501.247409629 631.514265615 501.555716942 630.547940368 c 0,52,53
 502.843913836 626.510354731 502.843913836 626.510354731 503.501513972 624.262910987 c 128,-1,54
 504.159114109 622.015467244 504.159114109 622.015467244 504.8303491 618.592172848 c 128,-1,55
 505.501584092 615.168878452 505.501584092 615.168878452 505.501953125 612.543945312 c 0,56,57
 505.501953125 606.234505488 505.501953125 606.234505488 502.265603407 601.370412926 c 128,-1,58
 499.029253689 596.506320364 499.029253689 596.506320364 493.273913051 594.734757854 c 0,59,60
 492.565760982 594.359896345 492.565760982 594.359896345 490.800839711 593.841569267 c 128,-1,61
 489.03591844 593.323242188 489.03591844 593.323242188 488.322265625 593.323242188 c 0,62,63
 476.549428967 593.323242188 476.549428967 593.323242188 459.29961448 608.263345272 c 0,64,65
 458.960440693 608.573586115 458.960440693 608.573586115 458.883096159 608.650853018 c 0,66,67
 445.806782747 621.71404172 445.806782747 621.71404172 429.043313971 622.902331399 c 0,68,69
 385.594535629 622.445337117 385.594535629 622.445337117 310.615532702 550.425449805 c 0,70,71
 217.564021288 458.315092216 217.564021288 458.315092216 160.016524585 342.204185164 c 0,72,73
 139.957791642 301.733326649 139.957791642 301.733326649 126.174345069 264.769441209 c 128,-1,74
 112.390898496 227.805555768 112.390898496 227.805555768 105.002961914 194.91216053 c 128,-1,75
 97.6150253324 162.018765291 97.6150253324 162.018765291 96.4823918341 132.985203846 c 0,76,77
 96.24731254 96.5594891357 96.24731254 96.5594891357 117.846468037 75.4002367607 c 0,78,79
 145.584346138 48.2267020873 145.584346138 48.2267020873 180.282985693 53.3488195533 c 0,80,81
 215.310937383 58.5191355103 215.310937383 58.5191355103 251.225782993 105.748666359 c 0,82,83
 281.231961869 145.207965793 281.231961869 145.207965793 294.37402998 163.490427204 c 0,84,85
 297.585233724 167.958116727 297.585233724 167.958116727 301.306923873 173.552997688 c 128,-1,86
 305.028614022 179.147878648 305.028614022 179.147878648 309.253924987 185.859928539 c 128,-1,87
 313.479235952 192.57197843 313.479235952 192.57197843 318.220273344 200.428652125 c 128,-1,88
 322.961310736 208.285325821 322.961310736 208.285325821 328.166879723 217.204452583 c 0,89,90
 348.93734755 252.79192174 348.93734755 252.79192174 367.692752997 295.075447273 c 0,91,92
 381.636575011 327.093731859 381.636575011 327.093731859 393.741605645 349.768551344 c 128,-1,93
 405.846636279 372.443370829 405.846636279 372.443370829 416.490027925 386.279984532 c 0,94,95
 420.613003044 391.639931428 420.613003044 391.639931428 425.430823611 394.912049641 c 128,-1,96
 430.248644179 398.184167855 430.248644179 398.184167855 436.298687842 398.182616165 c 2,97,-1
 438.229351905 398.183592727 l 2,98,99
 438.655752314 398.183808407 438.655752314 398.183808407 439.172889629 398.121336778 c 128,-1,100
 439.690026943 398.058865148 439.690026943 398.058865148 440.056508871 397.97309106 c 0,101,102
 445.57792715 396.68081829 445.57792715 396.68081829 450.332422408 393.838710425 c 128,-1,103
 455.086917666 390.99660256 455.086917666 390.99660256 458.764151808 386.77185991 c 0,104,105
 463.682616921 381.640123137 463.682616921 381.640123137 463.682617188 373.86328125 c 2,106,-1
 463.812885065 370.205786744 l 2,107,108
 461.648109244 364.911125419 461.648109244 364.911125419 461.648109244 364.911125419 c 1,0,1
463.812885065 370.205786744 m 1,109,-1
 463.812885065 370.205786744 l 1,109,-1
EndSplineSet
Validated: 33
EndChar

StartChar: H
Encoding: 72 72 16
Width: 635
VWidth: 965
Flags: W
LayerCount: 2
Fore
SplineSet
325.033203125 641 m 0,0,1
 350.027295143 641 350.027295143 641 350.034179598 595.025612026 c 0,2,3
 347.555495788 544.647338001 347.555495788 544.647338001 338.848463403 494.156014331 c 0,4,5
 336.678921426 481.576057323 336.678921426 481.576057323 334.60698656 470.432962541 c 128,-1,6
 332.535051695 459.289867759 332.535051695 459.289867759 330.545771014 449.508521632 c 128,-1,7
 328.556490332 439.727175505 328.556490332 439.727175505 326.651431207 431.33124627 c 128,-1,8
 324.746372081 422.935317034 324.746372081 422.935317034 322.923760993 415.917629162 c 0,9,10
 319.804922597 403.909431233 319.804922597 403.909431233 314.754603371 385.466872984 c 128,-1,11
 309.704284146 367.024314735 309.704284146 367.024314735 302.876802767 342.693353711 c 1,12,13
 320.923983258 350.638468933 320.923983258 350.638468933 344.304126654 360.590332594 c 0,14,15
 376.805150283 374.425416027 376.805150283 374.425416027 404.453612356 388.050073591 c 1,16,17
 416.159524875 419.175384566 416.159524875 419.175384566 421.505635246 433.432572407 c 128,-1,18
 426.851745618 447.689760247 426.851745618 447.689760247 427.483943151 449.470801094 c 0,19,20
 475.992275385 577.815053278 475.992275385 577.815053278 524.957610381 628.820485376 c 0,21,22
 574.00687686 681 574.00687686 681 649.033203125 681 c 0,23,24
 669.552802216 681 669.552802216 681 688.355222029 675.173206234 c 128,-1,25
 707.157641843 669.346412468 707.157641843 669.346412468 724.041219895 657.739293439 c 0,26,27
 740.749238204 645.882402002 740.749238204 645.882402002 749.391220664 630.289574079 c 128,-1,28
 758.033203125 614.696746156 758.033203125 614.696746156 758.033203125 596 c 0,29,30
 758.033203125 559.100927423 758.033203125 559.100927423 717.932960125 518.999132197 c 0,31,32
 627.635640577 432.327037564 627.635640577 432.327037564 450.369331049 346.60163723 c 1,33,34
 431.618822232 275.813016827 431.618822232 275.813016827 422.418409633 226.92808295 c 128,-1,35
 413.217997034 178.043149073 413.217997034 178.043149073 413.033203125 148.974571574 c 0,36,37
 413.033203125 77.2454537663 413.033203125 77.2454537663 439.195772539 57.6280728774 c 0,38,39
 439.527615386 57.3792484055 439.527615386 57.3792484055 439.831947016 57.0974407551 c 0,40,41
 442.004991616 55.0852260098 442.004991616 55.0852260098 451.451165307 48.6150324034 c 0,42,43
 456.523374035 45.1411548245 456.523374035 45.1411548245 460.929289055 41.8185075506 c 128,-1,44
 465.335204075 38.4958602767 465.335204075 38.4958602767 469.097218338 35.3011155274 c 0,45,46
 478.468963331 27.3428456543 478.468963331 27.3428456543 479.007774163 20.6012185554 c 0,47,48
 479.033965237 20.2735145758 479.033965237 20.2735145758 479.033180323 19.9447665651 c 0,49,50
 479.003926478 7.69228144461 479.003926478 7.69228144461 467.226063205 1.77131987662 c 0,51,52
 466.585696326 1.48193871119 466.585696326 1.48193871119 466.427261276 1.42287593996 c 0,53,54
 461.601864846 -0.3759765625 461.601864846 -0.3759765625 456.33984375 -0.3759765625 c 0,55,56
 453.64220202 -0.3759765625 453.64220202 -0.3759765625 450.854740171 0.100446965124 c 0,57,58
 367.09792327 14.4010471616 367.09792327 14.4010471616 362.043219244 106.61723505 c 0,59,60
 361.428197793 117.847736248 361.428197793 117.847736248 361.4296875 129.80859375 c 0,61,62
 361.4296875 179.779068126 361.4296875 179.779068126 372.106246679 243.015561321 c 0,63,64
 376.786494114 280.575235624 376.786494114 280.575235624 386.162415924 322.943787063 c 1,65,66
 367.338273254 314.866685166 367.338273254 314.866685166 337.05164804 301.361302415 c 0,67,68
 299.530096238 284.632187378 299.530096238 284.632187378 288.691227509 279.84260051 c 1,69,70
 286.03434258 271.820860464 286.03434258 271.820860464 282.841989997 261.534243734 c 128,-1,71
 279.649637414 251.247627004 279.649637414 251.247627004 275.912519055 238.66519817 c 128,-1,72
 272.175400695 226.082769335 272.175400695 226.082769335 267.891993792 211.198096568 c 128,-1,73
 263.608586889 196.313423801 263.608586889 196.313423801 258.772837696 179.105756409 c 0,74,75
 244.024468751 126.635398588 244.024468751 126.635398588 220.105031043 70.483591543 c 0,76,77
 195.559610406 12.8693821312 195.559610406 12.8693821312 176.97281057 0.213227859207 c 0,78,79
 164.908767966 -8 164.908767966 -8 158.033203125 -8 c 0,80,81
 124.485095576 -8 124.485095576 -8 91.5654895929 19.6110516663 c 0,82,83
 28.279418687 71.4850053171 28.279418687 71.4850053171 23.0425723343 140.604574065 c 0,84,85
 23.0153893596 141.33035949 23.0153893596 141.33035949 23.0076946798 141.737183501 c 128,-1,86
 23 142.144007512 23 142.144007512 23 142.743164062 c 0,87,88
 23 157.178946182 23 157.178946182 30.4978289804 172.981258249 c 128,-1,89
 37.9956579609 188.783570316 37.9956579609 188.783570316 52.6223578388 206.441221435 c 2,90,-1
 52.9561235706 206.819235703 l 2,91,92
 92.4391130987 248.792604965 92.4391130987 248.792604965 175.024455314 288.320034104 c 0,93,94
 190.282030419 295.532975041 190.282030419 295.532975041 206.23268741 302.343356845 c 0,95,96
 214.141416295 305.721309996 214.141416295 305.721309996 220.338832999 308.375324173 c 128,-1,97
 226.536249702 311.02933835 226.536249702 311.02933835 231.016835708 312.957040832 c 0,98,99
 237.183155837 315.610202304 237.183155837 315.610202304 241.170525935 317.718525147 c 0,100,101
 260.664366165 380.788508715 260.664366165 380.788508715 278.067820867 463.278412204 c 0,102,103
 295.872339043 547.669358533 295.872339043 547.669358533 297.033203125 598.081355749 c 0,104,105
 297.033203125 641 297.033203125 641 325.033203125 641 c 0,0,1
58.783203125 201.337890625 m 1025,106,-1
463.6328125 8.9189453125 m 1025,107,-1
471.033203125 19.9638671875 m 1025,108,-1
342.034179688 595.024414062 m 1025,109,-1
468.699060569 413.324108236 m 1,110,111
 502.829197867 427.450677948 502.829197867 427.450677948 539.219973988 447.455710715 c 128,-1,112
 575.610750108 467.460743481 575.610750108 467.460743481 615.179703162 493.843658049 c 0,113,114
 656.235606187 520.620745332 656.235606187 520.620745332 682.858946793 550.715451321 c 0,115,116
 707.483398438 576.945815905 707.483398438 576.945815905 707.483398438 596.399414062 c 0,117,118
 707.483398438 609.734937 707.483398438 609.734937 695.359422809 620.78847492 c 0,119,120
 680.38619351 634 680.38619351 634 643.533203125 634 c 128,-1,121
 606.812364953 634 606.812364953 634 573.808673402 602.882429926 c 0,122,123
 508.623471488 542.679433072 508.623471488 542.679433072 468.699060569 413.324108236 c 1,110,111
225.74268396 256.082539467 m 1,124,125
 162.254806129 236.825713417 162.254806129 236.825713417 108.534363273 192.638757603 c 0,126,127
 91.9801269041 178.449215283 91.9801269041 178.449215283 84.0066650145 164.508463511 c 128,-1,128
 76.033203125 150.567711739 76.033203125 150.567711739 76.033203125 137 c 0,129,130
 76.033203125 125.37091568 76.033203125 125.37091568 83.0583833565 110.334827584 c 128,-1,131
 90.0835635881 95.2987394879 90.0835635881 95.2987394879 104.488140562 77.3864611347 c 0,132,133
 106.154729011 75.3140405534 106.154729011 75.3140405534 108.01542671 73.2383642089 c 128,-1,134
 109.876124409 71.1626878643 109.876124409 71.1626878643 111.950540916 69.0655032952 c 128,-1,135
 114.024957422 66.9683187261 114.024957422 66.9683187261 116.292629006 64.8729168743 c 128,-1,136
 118.56030059 62.7775150225 118.56030059 62.7775150225 121.046958191 60.6634335352 c 128,-1,137
 123.533615792 58.5493520479 123.533615792 58.5493520479 126.212674297 56.4420917586 c 128,-1,138
 128.811252418 54.3980116588 128.811252418 54.3980116588 131.34005679 52.6876518267 c 128,-1,139
 133.868861161 50.9772919947 133.868861161 50.9772919947 135.65237894 49.9669784057 c 128,-1,140
 137.435896719 48.9566648168 137.435896719 48.9566648168 138.904656253 48.2480903151 c 128,-1,141
 140.373415787 47.5395158134 140.373415787 47.5395158134 141.113259146 47.2697579067 c 128,-1,142
 141.853102505 47 141.853102505 47 142.033203125 47 c 0,143,144
 151.322679289 47.7034631432 151.322679289 47.7034631432 156.206135672 52.9184749493 c 0,145,146
 165.694967672 69.1830072132 165.694967672 69.1830072132 173.825935904 86.7522795325 c 128,-1,147
 181.956904136 104.321551852 181.956904136 104.321551852 189.34785924 124.491916706 c 0,148,149
 204.169793353 164.938334505 204.169793353 164.938334505 211.258568673 193.163631147 c 0,150,151
 217.468866092 217.889651258 217.468866092 217.889651258 225.74268396 256.082539467 c 1,124,125
EndSplineSet
Validated: 1
EndChar

StartChar: I
Encoding: 73 73 17
Width: 301
VWidth: 965
Flags: W
LayerCount: 2
Fore
SplineSet
106.913830641 133.854598021 m 0,0,1
 111.351242678 169.182718182 111.351242678 169.182718182 114.551421334 197.842383188 c 0,2,3
 117.777804979 226.720010497 117.777804979 226.720010497 142.658386401 337.172797243 c 128,-1,4
 167.51106982 447.519530248 167.51106982 447.519530248 184.91293973 554.712547619 c 0,5,6
 200.084318326 648.170936635 200.084318326 648.170936635 203.310343081 661.209518512 c 0,7,8
 204.279152458 665.125142646 204.279152458 665.125142646 208.003445103 666.674448384 c 0,9,10
 209.801232131 667.422327786 209.801232131 667.422327786 212.337791208 667.852492662 c 128,-1,11
 214.758483295 668.262517757 214.758483295 668.262517757 216.722989294 668.408653325 c 128,-1,12
 218.726132032 668.554200026 218.726132032 668.554200026 221.70882248 668.758851779 c 0,13,14
 223.34761038 668.873390718 223.34761038 668.873390718 224.654302544 668.973395101 c 128,-1,15
 225.960994709 669.073399483 225.960994709 669.073399483 226.996349697 669.163492527 c 128,-1,16
 227.900941287 669.239257812 227.900941287 669.239257812 228.776367188 669.239257812 c 0,17,18
 230.207711165 669.239257812 230.207711165 669.239257812 231.583435051 669.04237425 c 0,19,20
 233.86783487 668.717493203 233.86783487 668.717493203 235.794046129 667.920537374 c 0,21,22
 236.725908448 667.539820763 236.725908448 667.539820763 237.627054107 667.033178455 c 128,-1,23
 238.528199767 666.526536147 238.528199767 666.526536147 239.35632951 665.909498299 c 0,24,25
 242.550476115 663.521732517 242.550476115 663.521732517 244.333204379 659.499026599 c 0,26,27
 246.63602494 654.308187627 246.63602494 654.308187627 246.637695307 641.661832444 c 0,28,29
 246.637183098 626.865116088 246.637183098 626.865116088 243.64792712 602.204470259 c 128,-1,30
 240.658671143 577.543824429 240.658671143 577.543824429 234.781617065 543.362447913 c 128,-1,31
 228.904562986 509.181071396 228.904562986 509.181071396 219.984233668 464.299940545 c 0,32,33
 185.769025587 292.140769831 185.769025587 292.140769831 172.120462702 208.411579746 c 0,34,35
 165.348239339 166.852519163 165.348239339 166.852519163 161.924607951 138.671205747 c 128,-1,36
 158.500976562 110.489892332 158.500976562 110.489892332 158.500976562 96.85546875 c 0,37,38
 158.500976562 74.0314869914 158.500976562 74.0314869914 159.090346727 55.6823747478 c 128,-1,39
 159.679716892 37.3332625043 159.679716892 37.3332625043 160.844137302 23.6428926576 c 0,40,41
 160.946832333 22.517388235 160.946832333 22.517388235 161.001248198 21.3802975019 c 128,-1,42
 161.055664062 20.2432067688 161.055664062 20.2432067688 161.055664062 19.1708984375 c 0,43,44
 161.055664062 6.82994204325 161.055664062 6.82994204325 154.181469008 0.594585610653 c 0,45,46
 150.709403858 -2.56004764402 150.709403858 -2.56004764402 145.343511795 -4.12877059382 c 0,47,48
 142.79882099 -4.87272669222 142.79882099 -4.87272669222 139.992731825 -5.21363154131 c 128,-1,49
 137.18664266 -5.5545363904 137.18664266 -5.5545363904 133.963867188 -5.5615234375 c 0,50,51
 104.944539427 -5.5615234375 104.944539427 -5.5615234375 103.510312513 17.6751256676 c 2,52,-1
 103.495410342 18.0994824127 l 2,53,54
 103.33818881 36.4641113218 103.33818881 36.4641113218 102.906903188 67.3674984895 c 0,55,56
 102.871632999 70.1273908301 102.871632999 70.1273908301 102.870117188 72.931640625 c 0,57,58
 102.870117188 101.607545367 102.870117188 101.607545367 106.913830641 133.854598021 c 0,0,1
111.495117188 18.16796875 m 1025,59,-1
110.49609375 18.1328125 m 1025,60,-1
109.497070312 18.0986328125 m 1025,61,-1
107.497070312 18.03125 m 1025,62,-1
106.497070312 17.998046875 m 1025,63,-1
EndSplineSet
Validated: 1
EndChar

StartChar: J
Encoding: 74 74 18
Width: 392
VWidth: 965
Flags: W
LayerCount: 2
Fore
SplineSet
243.400390625 624.079101562 m 0,0,1
 243.400390625 644.373321654 243.400390625 644.373321654 244.857408236 648.930479102 c 0,2,3
 251.300225849 671.824218831 251.300225849 671.824218831 269.30859375 671.82421875 c 0,4,5
 271.991913856 671.82421875 271.991913856 671.82421875 274.864312831 671.264493495 c 0,6,7
 295.679687516 668.150553765 295.679687516 668.150553765 295.6796875 649.16796875 c 2,8,-1
 294.886320766 641.720503238 l 2,9,10
 294.676173534 640.670868768 294.676173534 640.670868768 294.480350175 637.762059333 c 128,-1,11
 294.284526816 634.853249898 294.284526816 634.853249898 294.142263408 629.725617433 c 128,-1,12
 294 624.597984968 294 624.597984968 294 618.579101562 c 2,13,-1
 293.981725641 617.943555286 l 2,14,15
 292.963867188 600.411845787 292.963867188 600.411845787 292.963867188 579.815429688 c 0,16,17
 292.963867188 486.976267262 292.963867188 486.976267262 315.989221073 315.704563738 c 0,18,19
 339.134765625 143.535614611 339.134765625 143.535614611 339.134765625 46.1865234375 c 0,20,21
 339.134765625 -19.0583922423 339.134765625 -19.0583922423 328.685553779 -51.3460581372 c 1,22,23
 328.685553779 -51.3460581372 328.685553779 -51.3460581372 328.4999096 -51.859239117 c 0,24,25
 318.690439296 -76.3322408887 318.690439296 -76.3322408887 304.688483556 -93.0406829311 c 128,-1,26
 290.686527815 -109.749124974 290.686527815 -109.749124974 272.346871016 -118.439619964 c 128,-1,27
 254.007214217 -127.130114955 254.007214217 -127.130114955 231.925497858 -127.145505869 c 0,28,29
 231.625818211 -127.145714745 231.625818211 -127.145714745 231.326962809 -127.123502519 c 2,30,-1
 217.018369059 -126.060025957 l 2,31,32
 200.360476847 -123.819401016 200.360476847 -123.819401016 184.762502556 -119.452468521 c 128,-1,33
 169.164528264 -115.085536026 169.164528264 -115.085536026 154.194455593 -108.560671174 c 128,-1,34
 139.224382923 -102.035806322 139.224382923 -102.035806322 124.891813786 -93.3616123689 c 0,35,36
 81.8196639513 -67.2921044649 81.8196639513 -67.2921044649 53.9273182092 -28.938422675 c 0,37,38
 25.599609375 10.0165986107 25.599609375 10.0165986107 25.599609375 41.521484375 c 0,39,40
 25.599609375 107.617490988 25.599609375 107.617490988 84.40650583 122.765091394 c 0,41,42
 88.0194519805 123.696851191 88.0194519805 123.696851191 91.4133123961 124.180566179 c 128,-1,43
 94.8071728118 124.664281168 94.8071728118 124.664281168 98.0179571043 124.678631042 c 0,44,45
 98.6283886224 124.681359227 98.6283886224 124.681359227 99.2321668633 124.591437499 c 2,46,-1
 103.894276238 123.897101561 l 2,47,48
 105.530429926 123.653426389 105.530429926 123.653426389 106.935770017 122.780846473 c 0,49,50
 112.512155905 119.3184516 112.512155905 119.3184516 115.475188705 117.107018758 c 128,-1,51
 118.438221504 114.895585917 118.438221504 114.895585917 121.247919346 110.863067881 c 128,-1,52
 124.057617188 106.830549846 124.057617188 106.830549846 124.057617188 102.33984375 c 0,53,54
 124.057617188 95.559192598 124.057617188 95.559192598 117.125250454 90.8109248838 c 0,55,56
 116.703793975 90.5401819241 116.703793975 90.5401819241 116.600410212 90.4805744549 c 0,57,58
 80.7318782053 69.8000309647 80.7318782053 69.8000309647 81.6848467663 45.4875912638 c 0,59,60
 91.2486466511 -2.76625384137 91.2486466511 -2.76625384137 136.106019562 -37.2826661286 c 0,61,62
 181.616668014 -72.2999340029 181.616668014 -72.2999340029 228.120068046 -73.3212890625 c 0,63,64
 234.297177486 -73.3212890625 234.297177486 -73.3212890625 240.052878816 -71.7667002842 c 128,-1,65
 245.808580146 -70.212111506 245.808580146 -70.212111506 251.390345222 -66.9504044569 c 128,-1,66
 256.972110298 -63.6886974078 256.972110298 -63.6886974078 262.282207303 -58.6912431769 c 0,67,68
 274.981464855 -46.8381972298 274.981464855 -46.8381972298 282.290537115 -10.6653689305 c 128,-1,69
 289.599609375 25.5074593688 289.599609375 25.5074593688 289.599609375 83.9794921875 c 0,70,71
 289.599609375 111.595630254 289.599609375 111.595630254 288.135594784 134.190706723 c 128,-1,72
 286.671580193 156.785783191 286.671580193 156.785783191 283.779244275 174.186851736 c 0,73,74
 280.79560025 192.131063424 280.79560025 192.131063424 274.870611181 235.627046134 c 128,-1,75
 268.945622112 279.123028845 268.945622112 279.123028845 259.980220896 348.860958498 c 0,76,77
 243.400390625 495.869669042 243.400390625 495.869669042 243.400390625 624.079101562 c 0,0,1
98.0537109375 116.678710938 m 1025,78,-1
217.611328125 -118.08203125 m 1025,79,-1
231.919921875 -119.145507812 m 1025,80,-1
321.07421875 -48.8828125 m 1025,81,-1
EndSplineSet
Validated: 33
EndChar

StartChar: K
Encoding: 75 75 19
Width: 505
VWidth: 965
Flags: W
LayerCount: 2
Fore
SplineSet
143.814150592 347.443825575 m 1,0,1
 158.298482161 333.243142976 158.298482161 333.243142976 179.189275956 296.312254343 c 1,2,3
 214.687545578 327.72033693 214.687545578 327.72033693 242.622919955 359.213605759 c 128,-1,4
 270.558294332 390.706874588 270.558294332 390.706874588 292.729441627 424.176850498 c 0,5,6
 293.462316609 425.294484846 293.462316609 425.294484846 294.471367428 426.725935648 c 128,-1,7
 295.480418247 428.15738645 295.480418247 428.15738645 296.708764764 429.827737903 c 128,-1,8
 297.93711128 431.498089356 297.93711128 431.498089356 299.441790303 433.489556846 c 0,9,10
 341.931630388 490.7070896 341.931630388 490.7070896 371.079251497 547.117498919 c 128,-1,11
 400.226872606 603.527908238 400.226872606 603.527908238 415.871454673 658.66036549 c 0,12,13
 417.655416856 665.810749489 417.655416856 665.810749489 419.460826465 672.539106612 c 0,14,15
 426.710510349 699.557054201 426.710510349 699.557054201 452.012166883 693.1496102 c 0,16,17
 460.225123758 690.349481312 460.225123758 690.349481312 466.462508928 683.70124547 c 0,18,19
 474.058058756 675.093155971 474.058058756 675.093155971 471.046670039 660.809607076 c 0,20,21
 470.987242081 660.527729771 470.987242081 660.527729771 470.907693964 660.250856886 c 0,22,23
 459.232885091 619.615853233 459.232885091 619.615853233 441.532124661 579.767505311 c 128,-1,24
 423.83136423 539.919157388 423.83136423 539.919157388 400.12523613 500.876209706 c 0,25,26
 359.313329333 433.662925114 359.313329333 433.662925114 322.799800263 383.561192237 c 128,-1,27
 286.286271194 333.459459359 286.286271194 333.459459359 253.78896572 300.183843543 c 0,28,29
 225.460023377 271.276060415 225.460023377 271.276060415 203.405073821 251.665261141 c 1,30,31
 268.012308025 131.583801571 268.012308025 131.583801571 314.248661877 86.930910104 c 0,32,33
 322.720065969 78.7944795285 322.720065969 78.7944795285 325.692228253 75.1323190786 c 0,34,35
 392.657987844 13.0456300572 392.657987844 13.0456300572 449.914861638 -0.00735782264476 c 0,36,37
 457.287321903 -1.6337546464 457.287321903 -1.6337546464 462.806728057 -4.91816294997 c 0,38,39
 485.000871878 -16.9504054963 485.000871878 -16.9504054963 473.58810167 -39.5461774814 c 2,40,-1
 473.382310646 -39.9275793215 l 2,41,42
 467.592786371 -49.9951171875 467.592786371 -49.9951171875 451.987304688 -49.9951171875 c 0,43,44
 439.462525038 -49.9951171875 439.462525038 -49.9951171875 419.091839881 -43.2264428751 c 0,45,46
 344.90964147 -17.0888840719 344.90964147 -17.0888840719 289.871641017 41.3590283212 c 2,47,-1
 266.439230052 66.2739699287 l 2,48,49
 218.851893796 119.88378172 218.851893796 119.88378172 163.636912055 220.228052039 c 1,50,51
 154.962885729 214.151339418 154.962885729 214.151339418 146.859981367 209.413553817 c 128,-1,52
 138.757077005 204.675768216 138.757077005 204.675768216 131.11896492 201.224876308 c 128,-1,53
 123.480852835 197.773984401 123.480852835 197.773984401 116.319569904 195.639792168 c 128,-1,54
 109.158286973 193.505599936 109.158286973 193.505599936 102.438379527 192.675932419 c 1,55,56
 76.2075043352 100.404260396 76.2075043352 100.404260396 64.2470772862 38.550773608 c 1,57,58
 79.2265806283 21.5037844857 79.2265806283 21.5037844857 63.0203084811 4.65017000323 c 0,59,60
 60.670903184 2.20701981285 60.670903184 2.20701981285 58.02956287 0.304663833275 c 128,-1,61
 55.3882225559 -1.5976921463 55.3882225559 -1.5976921463 52.5040945678 -2.92592497772 c 128,-1,62
 49.6199665796 -4.25415780915 49.6199665796 -4.25415780915 46.4792061459 -4.94885624832 c 128,-1,63
 43.3384457122 -5.6435546875 43.3384457122 -5.6435546875 40.09375 -5.6435546875 c 0,64,65
 31.9099510884 -5.6435546875 31.9099510884 -5.6435546875 22.9813140745 -1.42155079473 c 0,66,67
 10.0618855913 4.68803643978 10.0618855913 4.68803643978 12.6835915819 18.5924414256 c 0,68,69
 14.1474685008 26.3520533817 14.1474685008 26.3520533817 18.2797259599 50.7113411086 c 0,70,71
 19.1125835395 55.6198054017 19.1125835395 55.6198054017 19.8905057143 60.0897784852 c 128,-1,72
 20.6684278891 64.5597515686 20.6684278891 64.5597515686 21.3957006911 68.6150631719 c 128,-1,73
 22.1229734931 72.6703747753 22.1229734931 72.6703747753 22.7969786627 76.2952538425 c 128,-1,74
 23.4709838324 79.9201329097 23.4709838324 79.9201329097 24.0946192024 83.129840106 c 128,-1,75
 24.7182545723 86.3395473024 24.7182545723 86.3395473024 25.2902900824 89.1268806361 c 0,76,77
 33.6616128225 129.916644424 33.6616128225 129.916644424 55.8431344385 204.815380564 c 1,78,79
 32.818359375 224.527486017 32.818359375 224.527486017 32.818359375 261.012695312 c 0,80,81
 32.818359375 306.006878171 32.818359375 306.006878171 66.614847132 344.597753815 c 0,82,83
 70.2994177372 348.68317256 70.2994177372 348.68317256 74.4210954431 352.128401776 c 128,-1,84
 78.5427731489 355.573630993 78.5427731489 355.573630993 82.6913517478 358.103375336 c 128,-1,85
 86.8399303466 360.633119679 86.8399303466 360.633119679 90.9863207973 362.324424328 c 128,-1,86
 95.132711248 364.015728977 95.132711248 364.015728977 99.0155514606 364.739479014 c 0,87,88
 122.524045884 466.509153039 122.524045884 466.509153039 124.910957512 515.20215026 c 0,89,90
 125.73854772 532.088584506 125.73854772 532.088584506 126.151988704 546.587588159 c 128,-1,91
 126.565429688 561.086591811 126.565429688 561.086591811 126.565429688 573.166015625 c 0,92,93
 126.565429688 620.13870362 126.565429688 620.13870362 121.084337081 628.389785441 c 2,94,-1
 120.850128297 628.764404363 l 2,95,96
 109.74225464 647.673874346 109.74225464 647.673874346 120.363490756 659.8748033 c 0,97,98
 129.477797921 670.344678275 129.477797921 670.344678275 144.355333091 670.908327303 c 0,99,100
 144.771242531 670.924084413 144.771242531 670.924084413 145.186541696 670.896597082 c 0,101,102
 176.944335938 668.794649705 176.944335938 668.794649705 176.944335938 582.055664062 c 0,103,104
 176.944335938 575.876332519 176.944335938 575.876332519 176.799755045 569.255792419 c 128,-1,105
 176.655174152 562.635252318 176.655174152 562.635252318 176.365798309 555.565077391 c 128,-1,106
 176.076422466 548.494902463 176.076422466 548.494902463 175.643316468 540.978522903 c 128,-1,107
 175.21021047 533.462143342 175.21021047 533.462143342 174.632028844 525.46992269 c 0,108,109
 172.063782116 491.120637305 172.063782116 491.120637305 164.205556383 445.849969755 c 128,-1,110
 156.34733065 400.579302206 156.34733065 400.579302206 143.814150592 347.443825575 c 1,0,1
127.686932755 283.174108818 m 1,111,112
 125.387053208 274.448336143 125.387053208 274.448336143 123.478608846 267.372423131 c 128,-1,113
 121.570164484 260.296510119 121.570164484 260.296510119 119.384106667 252.364246398 c 1,114,115
 124.670677154 255.092352041 124.670677154 255.092352041 129.22409863 257.8405426 c 128,-1,116
 133.777520105 260.58873316 133.777520105 260.58873316 139.127394437 264.195120838 c 1,117,118
 135.906552404 269.721316721 135.906552404 269.721316721 133.093727659 274.379419213 c 128,-1,119
 130.280902913 279.037521705 130.280902913 279.037521705 127.686932755 283.174108818 c 1,111,112
EndSplineSet
Validated: 33
EndChar

StartChar: L
Encoding: 76 76 20
Width: 487
VWidth: 965
Flags: W
LayerCount: 2
Fore
SplineSet
111.636675707 252.765354076 m 1,0,1
 110.114724762 251.36852359 110.114724762 251.36852359 108.775008506 249.792850715 c 0,2,3
 105.608578035 246.070763815 105.608578035 246.070763815 101.590579366 238.66839083 c 128,-1,4
 97.5725806965 231.266017846 97.5725806965 231.266017846 93.2125234516 220.815721909 c 0,5,6
 85.5146920017 202.361082846 85.5146920017 202.361082846 76.6437207299 174.483782962 c 0,7,8
 72.2523865509 160.705432811 72.2523865509 160.705432811 68.6863075507 148.438184885 c 128,-1,9
 65.1202285505 136.170936959 65.1202285505 136.170936959 62.3837991396 125.436455848 c 0,10,11
 53.7804794368 91.6958899829 53.7804794368 91.6958899829 53.3603991468 73.1824378797 c 1,12,13
 57.2811137239 77.150075276 57.2811137239 77.150075276 61.7910949274 82.8374296196 c 128,-1,14
 66.3010761309 88.5247839631 66.3010761309 88.5247839631 71.6321586162 96.2694183505 c 0,15,16
 86.0744123136 115.949555422 86.0744123136 115.949555422 100.084878226 140.257309964 c 0,17,18
 106.587754647 151.537190053 106.587754647 151.537190053 113.01766152 163.843854115 c 128,-1,19
 119.447568393 176.150518178 119.447568393 176.150518178 125.800981748 189.480503447 c 0,20,21
 127.264295138 192.550231963 127.264295138 192.550231963 128.701649237 195.572887102 c 128,-1,22
 130.139003337 198.595542241 130.139003337 198.595542241 131.041259792 200.497545136 c 128,-1,23
 131.943516246 202.399548031 131.943516246 202.399548031 132.405745959 203.378262009 c 2,24,-1
 131.456648463 205.955529576 l 2,25,26
 125.13849901 223.772369512 125.13849901 223.772369512 119.700175553 236.351981326 c 128,-1,27
 114.261852096 248.931593139 114.261852096 248.931593139 111.636675707 252.765354076 c 1,0,1
314.831115533 631.765831758 m 0,28,-1
 316.932903015 637.424875035 l 1,29,-1
 317.116269844 637.853237688 l 2,30,31
 317.998803213 639.75946731 317.998803213 639.75946731 318.649658092 641.759379203 c 1,32,33
 312.981708905 639.293570513 312.981708905 639.293570513 305.123924166 634.761455132 c 0,34,35
 298.257142736 630.800918318 298.257142736 630.800918318 294.233892831 637.631145201 c 0,36,37
 288.328589954 647.656512609 288.328589954 647.656512609 297.730181219 659.575362569 c 0,38,39
 305.588458893 670.127368225 305.588458893 670.127368225 318.017477304 676.732378171 c 0,40,41
 335.765704131 687.5471959 335.765704131 687.5471959 350.206583349 683.458045615 c 0,42,43
 353.463504062 682.719473334 353.463504062 682.719473334 356.456360969 681.432537011 c 128,-1,44
 359.449217875 680.145600688 359.449217875 680.145600688 362.17320344 678.304480422 c 128,-1,45
 364.897189005 676.463360155 364.897189005 676.463360155 367.305222942 674.089917353 c 0,46,47
 369.229814266 672.129525697 369.229814266 672.129525697 370.707427949 670.034650687 c 128,-1,48
 372.185041632 667.939775678 372.185041632 667.939775678 373.237047075 665.572386329 c 128,-1,49
 374.289052518 663.204996979 374.289052518 663.204996979 374.744382983 660.779867328 c 0,50,51
 376.319476136 653.323309315 376.319476136 653.323309315 374.233444707 647.952922761 c 0,52,53
 366.888446691 628.143111126 366.888446691 628.143111126 359.891037397 609.084524482 c 128,-1,54
 352.893628104 590.025937839 352.893628104 590.025937839 346.287087579 571.835874298 c 0,55,56
 330.482782826 529.169632073 330.482782826 529.169632073 315.20147097 489.593574738 c 0,57,58
 310.630540324 477.457649808 310.630540324 477.457649808 306.021642579 465.529224076 c 128,-1,59
 301.412744834 453.600798345 301.412744834 453.600798345 296.782126325 441.922002497 c 128,-1,60
 292.151507815 430.24320665 292.151507815 430.24320665 287.519256913 418.865028809 c 0,61,62
 279.459310972 398.911676466 279.459310972 398.911676466 271.81535033 380.19363034 c 128,-1,63
 264.171389687 361.475584214 264.171389687 361.475584214 256.921046581 343.938253759 c 0,64,65
 244.350147216 313.840544391 244.350147216 313.840544391 232.226282106 286.419519157 c 0,66,67
 211.12677833 237.637150245 211.12677833 237.637150245 191.213073053 198.038372165 c 1,68,69
 196.127458134 180.133271774 196.127458134 180.133271774 201.995876049 164.689371409 c 0,70,71
 212.461165754 136.508836429 212.461165754 136.508836429 225.604709521 116.049003216 c 128,-1,72
 238.748253287 95.5891700038 238.748253287 95.5891700038 254.560507046 82.530953893 c 0,73,74
 258.637714198 79.0144437501 258.637714198 79.0144437501 263.096391365 75.8508194701 c 128,-1,75
 267.555068531 72.68719519 267.555068531 72.68719519 272.436915566 69.8388817884 c 0,76,77
 282.854996804 64.0101657759 282.854996804 64.0101657759 293.3394901 58.3440697111 c 0,78,79
 296.509622012 56.7375113356 296.509622012 56.7375113356 299.968790015 55.1918200954 c 128,-1,80
 303.427958018 53.6461288552 303.427958018 53.6461288552 307.117578188 52.191222826 c 128,-1,81
 310.807198357 50.7363167968 310.807198357 50.7363167968 314.56723352 49.4400594638 c 0,82,83
 348.311464401 38.0025332833 348.311464401 38.0025332833 378.401264156 38.0603176285 c 0,84,85
 385.97682674 38.286453825 385.97682674 38.286453825 392.963407938 38.7794682128 c 128,-1,86
 399.949989136 39.2724826005 399.949989136 39.2724826005 406.141381046 40.0106514625 c 128,-1,87
 412.332772956 40.7488203245 412.332772956 40.7488203245 417.761042554 41.7196952877 c 128,-1,88
 423.189312152 42.690570251 423.189312152 42.690570251 427.77581005 43.8816629391 c 0,89,90
 431.843024558 44.972410248 431.843024558 44.972410248 436.717927192 41.4548871092 c 128,-1,91
 441.592829826 37.9373639705 441.592829826 37.9373639705 439.961481222 32.2585648384 c 0,92,93
 437.40534602 22.7287343803 437.40534602 22.7287343803 430.766405792 14.8630647841 c 0,94,95
 425.118674739 7.53668643226 425.118674739 7.53668643226 414.336655711 2.91092831737 c 0,96,97
 395.952692637 -5.90601938129 395.952692637 -5.90601938129 379.060306136 -6.82033836774 c 0,98,99
 335.912926366 -7.00445146819 335.912926366 -7.00445146819 299.717210027 3.16907661887 c 0,100,101
 263.385085588 13.719243484 263.385085588 13.719243484 232.524936111 36.6519964702 c 0,102,103
 217.68164705 47.9957304557 217.68164705 47.9957304557 204.545331068 61.4468337327 c 0,104,105
 199.534601246 66.6382218312 199.534601246 66.6382218312 194.886655839 72.1485388781 c 128,-1,106
 190.238710432 77.658855925 190.238710432 77.658855925 185.969395531 83.4672623569 c 128,-1,107
 181.700080629 89.2756687888 181.700080629 89.2756687888 177.806857409 95.3800081791 c 128,-1,108
 173.913634188 101.484347569 173.913634188 101.484347569 170.400224787 107.878828317 c 0,109,110
 162.973936648 121.068527218 162.973936648 121.068527218 157.372001882 135.177102119 c 1,111,112
 145.567747066 114.724639414 145.567747066 114.724639414 139.632403559 104.467385443 c 128,-1,113
 133.697060052 94.2101314724 133.697060052 94.2101314724 131.767250235 90.9326124046 c 0,114,115
 97.1771128369 32.7350427126 97.1771128369 32.7350427126 58.8128731019 0.724250627037 c 0,116,117
 52.3826188702 -4.88512008575 52.3826188702 -4.88512008575 46.0310657671 -7.94343838122 c 128,-1,118
 39.6795126639 -11.0017566767 39.6795126639 -11.0017566767 33.1607372106 -11.0353297692 c 0,119,120
 26.3990169842 -10.9783756446 26.3990169842 -10.9783756446 20.8019206117 -6.82396571507 c 0,121,122
 15.1718065166 -2.94520679972 15.1718065166 -2.94520679972 12.6957254403 4.89985167439 c 0,123,124
 6.94555583898 24.002947576 6.94555583898 24.002947576 8.83138488166 64.9208875443 c 0,125,126
 10.048627071 87.1055550515 10.048627071 87.1055550515 20.2679140555 132.486571678 c 0,127,128
 22.7778696599 142.81453561 22.7778696599 142.81453561 25.7142871343 154.3738539 c 128,-1,129
 28.6507046088 165.933172189 28.6507046088 165.933172189 32.0982623443 179.05982345 c 0,130,131
 41.4735303378 213.815502283 41.4735303378 213.815502283 60.1598435436 252.258020304 c 0,132,133
 69.0933015884 270.605447778 69.0933015884 270.605447778 76.3913962646 283.928957747 c 128,-1,134
 83.6894909407 297.252467716 83.6894909407 297.252467716 89.4344530922 305.64961236 c 0,135,136
 104.042116145 328.130584807 104.042116145 328.130584807 127.644165787 317.408305605 c 0,137,138
 133.500104264 314.741062724 133.500104264 314.741062724 139.912198798 308.769362449 c 0,139,140
 140.217433864 308.48509148 140.217433864 308.48509148 140.491451414 308.170619205 c 0,141,142
 143.077892167 305.202327914 143.077892167 305.202327914 145.577404097 302.050188413 c 0,143,144
 149.437420646 297.712429853 149.437420646 297.712429853 153.153230973 290.61874977 c 0,145,146
 157.073542083 284.547744377 157.073542083 284.547744377 158.998879922 278.882523332 c 0,147,148
 161.583963076 273.550617538 161.583963076 273.550617538 163.886449084 267.103847871 c 1,149,150
 165.585410975 270.231368741 165.585410975 270.231368741 168.167080246 274.994047254 c 128,-1,151
 170.748749517 279.756725768 170.748749517 279.756725768 175.544129399 288.67782758 c 128,-1,152
 180.33950928 297.598929392 180.33950928 297.598929392 181.369006717 299.66073425 c 0,153,154
 193.755680852 324.400151739 193.755680852 324.400151739 204.993693274 350.013269014 c 0,155,156
 221.67131794 387.208645331 221.67131794 387.208645331 237.972778526 425.35474456 c 0,157,158
 252.578985158 460.988474346 252.578985158 460.988474346 266.809131565 496.975319178 c 0,159,160
 274.639768089 516.844236122 274.639768089 516.844236122 282.070696987 537.035117973 c 128,-1,161
 289.501625885 557.225999824 289.501625885 557.225999824 296.485392137 577.608085751 c 0,162,163
 305.422659542 604.566432577 305.422659542 604.566432577 314.831115533 631.765831758 c 0,28,-1
EndSplineSet
Validated: 33
EndChar

StartChar: M
Encoding: 77 77 21
Width: 480
VWidth: 965
Flags: W
LayerCount: 2
Fore
SplineSet
399.206111532 676.85750198 m 0,0,1
 403.487213925 681.818402749 403.487213925 681.818402749 407.320554774 685.126928288 c 128,-1,2
 411.153895623 688.435453828 411.153895623 688.435453828 415.819990018 690.582473008 c 128,-1,3
 420.486084413 692.729492188 420.486084413 692.729492188 425.204101562 692.729492188 c 0,4,5
 427.382273193 692.729492188 427.382273193 692.729492188 429.565792267 692.208757977 c 128,-1,6
 431.749311341 691.688023767 431.749311341 691.688023767 433.668064262 690.799124349 c 128,-1,7
 435.586817183 689.910224932 435.586817183 689.910224932 437.44469206 688.64569797 c 128,-1,8
 439.24518045 687.420230021 439.24518045 687.420230021 440.174038533 685.338807348 c 128,-1,9
 441.102896617 683.257384675 441.102896617 683.257384675 440.904774899 681.247457266 c 0,10,11
 438.135721961 653.155658621 438.135721961 653.155658621 431.462899542 620.22990336 c 128,-1,12
 424.790077123 587.3041481 424.790077123 587.3041481 414.407776033 550.161643508 c 0,13,14
 403.00069762 495.739111438 403.00069762 495.739111438 373.433085205 393.990875146 c 0,15,16
 344.016660439 292.779635638 344.016660439 292.779635638 326.53166803 211.351697033 c 0,17,18
 318.618321272 174.499104898 318.618321272 174.499104898 314.66778419 140.915183492 c 128,-1,19
 310.717247108 107.331262085 310.717247108 107.331262085 310.71484375 77.056640625 c 0,20,21
 310.71484375 71.2667348957 310.71484375 71.2667348957 310.85898049 65.6014846414 c 0,22,23
 313.109161368 40.6288267132 313.109161368 40.6288267132 318.966347645 31.6954105328 c 0,24,25
 323.911871054 24.1533916618 323.911871054 24.1533916618 333.930387136 25.0437794232 c 0,26,27
 352.856445312 26.726015312 352.856445312 26.726015312 352.856445312 14.3359375 c 0,28,29
 351.374351943 -3.41405273355 351.374351943 -3.41405273355 324.50822835 -6.32527698667 c 0,30,31
 320.085857362 -6.716796875 320.085857362 -6.716796875 315.965820312 -6.716796875 c 0,32,33
 294.831183608 -6.716796875 294.831183608 -6.716796875 280.996762959 3.51802170231 c 0,34,35
 261.144932902 18.2053942096 261.144932902 18.2053942096 260.840126082 53.6730239766 c 0,36,37
 260.800788615 58.3551660401 260.800788615 58.3551660401 260.799804688 62.9619140625 c 0,38,39
 260.799804688 140.56444759 260.799804688 140.56444759 272.253256792 196.369438817 c 0,40,41
 274.083454417 205.285043276 274.083454417 205.285043276 276.642386161 216.326165086 c 128,-1,42
 279.201317905 227.367286896 279.201317905 227.367286896 282.422508658 240.264447334 c 128,-1,43
 285.643699411 253.161607773 285.643699411 253.161607773 289.519636329 267.91016402 c 128,-1,44
 293.395573246 282.658720267 293.395573246 282.658720267 297.877159641 299.068904318 c 128,-1,45
 302.358746037 315.47908837 302.358746037 315.47908837 307.421090642 333.466546686 c 1,46,47
 301.128878252 323.064190266 301.128878252 323.064190266 293.491148635 311.915119004 c 128,-1,48
 285.853419019 300.766047743 285.853419019 300.766047743 276.820960958 288.788671043 c 0,49,50
 257.171286672 262.732005848 257.171286672 262.732005848 234.596416548 248.662664111 c 0,51,52
 223.153978668 241.531778047 223.153978668 241.531778047 211.081448604 237.670975864 c 128,-1,53
 199.00891854 233.810173682 199.00891854 233.810173682 186.478363415 233.324269978 c 0,54,55
 185.213307383 233.275613977 185.213307383 233.275613977 183.977539062 233.275390625 c 0,56,57
 163.92839888 233.275390625 163.92839888 233.275390625 148.204138259 245.819629419 c 0,58,59
 140.137808995 252.25506151 140.137808995 252.25506151 133.854530063 260.90108708 c 128,-1,60
 127.571251131 269.54711265 127.571251131 269.54711265 123.104905047 280.234762493 c 0,61,62
 118.854099591 290.406993452 118.854099591 290.406993452 115.6269041 299.69593039 c 128,-1,63
 112.399708609 308.984867328 112.399708609 308.984867328 110.18948933 317.439704308 c 2,64,-1
 109.923573115 318.465306787 l 1,65,66
 83.8126123596 189.80691249 83.8126123596 189.80691249 70.9027723881 19.9571660956 c 0,67,68
 70.8716587566 19.5478161399 70.8716587566 19.5478161399 70.7753675683 19.0535114446 c 128,-1,69
 70.67907638 18.5592067493 70.67907638 18.5592067493 70.572893439 18.2136520652 c 0,70,71
 63.1335035173 -5.99660253667 63.1335035173 -5.99660253667 45.0009010905 -7.61014377003 c 0,72,73
 43.7246443201 -7.7254185751 43.7246443201 -7.7254185751 42.5244140625 -7.72265625 c 0,74,75
 22.1948978716 -7.72265625 22.1948978716 -7.72265625 19.6846171178 20.4883688006 c 0,76,77
 19 28.205405699 19 28.205405699 19 38.1152575494 c 0,78,79
 26.9957524499 220.967894321 26.9957524499 220.967894321 86.2303018802 454.09098879 c 0,80,81
 92.8389552823 479.858236264 92.8389552823 479.858236264 98.3796843903 502.57864968 c 128,-1,82
 103.920413498 525.299063095 103.920413498 525.299063095 108.371128553 544.877261069 c 128,-1,83
 112.821843608 564.455459043 112.821843608 564.455459043 116.192957337 580.921237983 c 128,-1,84
 119.564071067 597.387016922 119.564071067 597.387016922 121.852641649 610.725617047 c 0,85,86
 125.110155599 629.701245423 125.110155599 629.701245423 128.078629152 640.895049069 c 128,-1,87
 131.047102706 652.088852715 131.047102706 652.088852715 136.782972401 660.977502008 c 128,-1,88
 142.518842097 669.866151301 142.518842097 669.866151301 150.631310399 671.304812723 c 128,-1,89
 158.871430654 672.766208582 158.871430654 672.766208582 165.587140169 669.295817825 c 128,-1,90
 172.302849683 665.825427068 172.302849683 665.825427068 173.056503702 657.367138467 c 0,91,92
 174.317382812 643.17498765 174.317382812 643.17498765 174.317382812 625.784179688 c 0,93,94
 174.317382812 609.003347961 174.317382812 609.003347961 173.147498668 589.242425437 c 128,-1,95
 171.977614524 569.481502914 171.977614524 569.481502914 169.65100795 546.819588115 c 128,-1,96
 167.324401376 524.157673317 167.324401376 524.157673317 163.832517574 498.435242829 c 0,97,98
 161.034431768 477.829942836 161.034431768 477.829942836 158.930748193 459.704568493 c 128,-1,99
 156.827064618 441.57919415 156.827064618 441.57919415 155.43428532 426.10434938 c 128,-1,100
 154.041506022 410.62950461 154.041506022 410.62950461 153.34448348 397.750402174 c 128,-1,101
 152.647460938 384.871299738 152.647460938 384.871299738 152.647460938 374.615234375 c 0,102,103
 152.647460938 369.529695047 152.647460938 369.529695047 152.820882689 365.009980126 c 128,-1,104
 152.99430444 360.490265206 152.99430444 360.490265206 153.326536293 356.749479775 c 0,105,106
 157.328993624 317.264809633 157.328993624 317.264809633 166.642731505 299.241291536 c 128,-1,107
 175.956469386 281.217773438 175.956469386 281.217773438 188.008789062 281.217773438 c 0,108,109
 198.619497625 281.217773438 198.619497625 281.217773438 213.436815449 292.123114272 c 0,110,111
 235.243165777 308.176746995 235.243165777 308.176746995 257.819771736 339.792311897 c 128,-1,112
 280.396377695 371.407876799 280.396377695 371.407876799 302.905677626 417.911163123 c 0,113,114
 331.825319726 483.457706624 331.825319726 483.457706624 354.402089019 559.640597017 c 0,115,116
 377.223356067 636.636469201 377.223356067 636.636469201 398.227282804 675.439135998 c 0,117,118
 398.639865415 676.20134136 398.639865415 676.20134136 399.206111532 676.85750198 c 0,0,1
EndSplineSet
Validated: 1
EndChar

StartChar: N
Encoding: 78 78 22
Width: 581
VWidth: 965
Flags: W
LayerCount: 2
Fore
SplineSet
406.64517827 21.9411345836 m 0,0,1
 380.373960505 -8.3623046875 380.373960505 -8.3623046875 353.012695312 -8.3623046875 c 0,2,3
 347.999783237 -8.3623046875 347.999783237 -8.3623046875 343.006995014 -7.33352294673 c 0,4,5
 312.268581403 -1.00144636326 312.268581403 -1.00144636326 285.765381949 32.7409510445 c 0,6,7
 260.405811127 65.0263413038 260.405811127 65.0263413038 241.474629185 110.028590768 c 0,8,9
 222.783477544 154.456922892 222.783477544 154.456922892 206.675156908 209.528794456 c 0,10,11
 198.704536039 236.782424621 198.704536039 236.782424621 191.859876882 264.244672257 c 128,-1,12
 185.015217725 291.706919893 185.015217725 291.706919893 179.357298455 319.065494005 c 128,-1,13
 173.699379186 346.424068117 173.699379186 346.424068117 169.176444141 373.850055348 c 1,14,15
 149.17907702 316.664218844 149.17907702 316.664218844 133.457765542 266.203949055 c 128,-1,16
 117.736454064 215.743679265 117.736454064 215.743679265 106.36910188 172.293327255 c 128,-1,17
 95.0017496965 128.842975244 95.0017496965 128.842975244 87.9291238481 92.3088054397 c 128,-1,18
 80.8564979997 55.7746356349 80.8564979997 55.7746356349 78.0832795102 26.1882889285 c 0,19,20
 75.6945607863 0.69332038739 75.6945607863 0.69332038739 68.810784074 -13.9662529748 c 128,-1,21
 61.9270073617 -28.625826337 61.9270073617 -28.625826337 47.8093976687 -29.9095147571 c 0,22,23
 46.5971584956 -30.0197414472 46.5971584956 -30.0197414472 46.2312301951 -29.9808779242 c 0,24,25
 38.2483534085 -29.9808779242 38.2483534085 -29.9808779242 29.6035581881 -22.7799126166 c 0,26,27
 19.7626953125 -14.5803438858 19.7626953125 -14.5803438858 19.7626953125 8.6904296875 c 0,28,29
 19.7626953125 28.9841151593 19.7626953125 28.9841151593 33.4971751202 99.7392907103 c 0,30,31
 47.1842974371 170.250497241 47.1842974371 170.250497241 100.229813496 329.396841448 c 0,32,33
 151.612639264 483.556705741 151.612639264 483.556705741 151.612639264 533.072178002 c 0,34,35
 151.612639264 534.052668771 151.612639264 534.052668771 151.591840836 534.979459224 c 0,36,37
 151.605660281 535.689257582 151.605660281 535.689257582 151.620640994 535.859492966 c 0,38,39
 151.879882812 538.805422715 151.879882812 538.805422715 151.879882812 541.775390625 c 0,40,41
 151.879882812 557.141203299 151.879882812 557.141203299 144.92761996 573.353322804 c 0,42,43
 141.348800299 581.700195312 141.348800299 581.700195312 138.413085938 581.700195312 c 0,44,45
 136.552355865 581.700195312 136.552355865 581.700195312 133.249038054 579.187756883 c 0,46,47
 130.975489998 576.180373236 130.975489998 576.180373236 127.957271228 571.708270144 c 0,48,49
 127.861320207 571.566099252 127.861320207 571.566099252 127.623915184 571.152464909 c 0,50,51
 124.680230439 566.023638702 124.680230439 566.023638702 118.996608266 566.023638702 c 0,52,53
 113.81651478 566.023638702 113.81651478 566.023638702 111.492225894 569.219066802 c 128,-1,54
 109.167937007 572.414494902 109.167937007 572.414494902 109.433694864 575.609923003 c 2,55,-1
 109.69945272 578.805351103 l 2,56,57
 109.69945272 579.588521516 109.69945272 579.588521516 109.727912319 580.461832072 c 0,58,59
 110.816561193 613.731362387 110.816561193 613.731362387 127.100295343 636.954393745 c 0,60,61
 135.426408107 648.828126117 135.426408107 648.828126117 142.978881458 655.376309797 c 128,-1,62
 150.531354809 661.924493477 150.531354809 661.924493477 158.879986673 662.922014912 c 0,63,64
 160.092103678 663.066842558 160.092103678 663.066842558 160.621566461 663.014630678 c 0,65,66
 169.490813311 663.014630678 169.490813311 663.014630678 175.454997428 655.851120235 c 128,-1,67
 181.419181545 648.687609792 181.419181545 648.687609792 186.364674319 636.064957205 c 0,68,69
 195.672999247 612.307828238 195.672999247 612.307828238 212.086778022 458.310768237 c 1,70,71
 218.058177158 357.64721051 218.058177158 357.64721051 246.744712738 256.944599887 c 128,-1,72
 275.412370186 156.305830245 275.412370186 156.305830245 307.272179084 99.6114076427 c 0,73,74
 335.513170938 49.353515625 335.513170938 49.353515625 350.315429688 49.353515625 c 2,75,-1
 350.997986539 49.3902859857 l 1,76,77
 374.933420865 55.472334141 374.933420865 55.472334141 391.805001083 103.317844107 c 0,78,79
 413.37861759 164.493298005 413.37861759 164.493298005 421.373126648 215.953557082 c 0,80,81
 429.473821394 268.10263329 429.473821394 268.10263329 433.920658707 298.95451751 c 128,-1,82
 438.345408261 329.659891862 438.345408261 329.659891862 442.945336439 377.881807571 c 0,83,84
 449.613988748 447.785055099 449.613988748 447.785055099 453.495929027 496.551797739 c 0,85,86
 464.169485586 630.638845788 464.169485586 630.638845788 469.242634858 641.150393153 c 0,87,88
 471.707439427 646.2568761 471.707439427 646.2568761 473.893736765 649.867895432 c 128,-1,89
 476.080034102 653.478914764 476.080034102 653.478914764 478.416417071 656.087984213 c 0,90,91
 480.321593839 658.215396245 480.321593839 658.215396245 481.956956917 659.882225571 c 128,-1,92
 483.592319995 661.549054897 483.592319995 661.549054897 485.075860789 662.856136723 c 0,93,94
 488.708284095 666.055243391 488.708284095 666.055243391 494.914499459 668.270929803 c 0,95,96
 500.035304691 670.096260953 500.035304691 670.096260953 502.34347418 670.676800551 c 0,97,98
 503.684865477 671.013840342 503.684865477 671.013840342 505.720595082 671.383567357 c 128,-1,99
 507.756324686 671.753294371 507.756324686 671.753294371 511.246931336 672.3152815 c 2,100,-1
 522.921807902 674.324119024 l 2,101,102
 529.025755387 675.450869814 529.025755387 675.450869814 533.638225519 675.662491673 c 0,103,104
 537.083498189 675.820562074 537.083498189 675.820562074 539.598414926 673.3385224 c 128,-1,105
 542.113331663 670.856482727 542.113331663 670.856482727 542.000608759 667.409428394 c 0,106,107
 541.902895618 664.421371003 541.902895618 664.421371003 539.869492443 662.229726333 c 0,108,109
 538.03617494 660.253738205 538.03617494 660.253738205 535.322000487 657.955481682 c 0,110,111
 528.388753625 652.075228368 528.388753625 652.075228368 523.33943834 646.571913018 c 128,-1,112
 518.290123055 641.068597669 518.290123055 641.068597669 516.40133394 638.156062937 c 128,-1,113
 514.512544825 635.243528205 514.512544825 635.243528205 514.409133438 634.114155253 c 0,114,115
 513.510976086 624.293654214 513.510976086 624.293654214 506.933306202 539.073792595 c 0,116,117
 505.835618043 524.852542189 505.835618043 524.852542189 504.759687971 511.282170351 c 128,-1,118
 503.683757899 497.711798512 503.683757899 497.711798512 502.629342891 484.789303949 c 128,-1,119
 501.574927883 471.866809386 501.574927883 471.866809386 500.542148815 459.593958188 c 128,-1,120
 499.509369747 447.32110699 499.509369747 447.32110699 498.498138868 435.696778686 c 128,-1,121
 497.486907989 424.072450383 497.486907989 424.072450383 496.497180552 413.096404854 c 128,-1,122
 495.507453115 402.120359325 495.507453115 402.120359325 494.539296639 391.793356923 c 0,123,124
 485.946652483 300.133095614 485.946652483 300.133095614 474.31286217 227.231461662 c 128,-1,125
 462.679071856 154.32982771 462.679071856 154.32982771 447.937188524 99.9597764354 c 0,126,127
 441.957546177 77.8996005173 441.957546177 77.8996005173 431.619345828 58.3608504645 c 128,-1,128
 421.281145479 38.8221004117 421.281145479 38.8221004117 406.64517827 21.9411345836 c 0,0,1
EndSplineSet
Validated: 1
EndChar

StartChar: O
Encoding: 79 79 23
Width: 437
VWidth: 965
Flags: W
LayerCount: 2
Fore
SplineSet
188.478073727 591.580119067 m 1,0,1
 198.967642733 599.337741963 198.967642733 599.337741963 209.367195564 604.995598743 c 0,2,3
 219.963623916 611.903851889 219.963623916 611.903851889 228.071137863 614.951925944 c 128,-1,4
 236.17865181 618 236.17865181 618 244.5 618 c 0,5,6
 259.404625963 618 259.404625963 618 267.719884345 614.450455377 c 0,7,8
 273.440244936 611.602715194 273.440244936 611.602715194 278.117758672 607.922284074 c 128,-1,9
 282.795272409 604.241852955 282.795272409 604.241852955 286.753959156 599.663451102 c 128,-1,10
 290.712645903 595.085049248 290.712645903 595.085049248 294.002273254 589.601731371 c 0,11,12
 295.070570554 587.821479275 295.070570554 587.821479275 295.847430642 585.840521547 c 128,-1,13
 296.624290731 583.85956382 296.624290731 583.85956382 297.09217251 581.758627684 c 128,-1,14
 297.560054289 579.657691548 297.560054289 579.657691548 297.780027145 577.500539818 c 128,-1,15
 298 575.343388088 298 575.343388088 298 573 c 0,16,17
 298 564.370423366 298 564.370423366 295.094619299 553.846001007 c 128,-1,18
 292.189238598 543.321578649 292.189238598 543.321578649 286.396488092 530.157273232 c 0,19,20
 279.865407299 515.461632119 279.865407299 515.461632119 276.655918476 509.118294847 c 128,-1,21
 273.446429653 502.774957575 273.446429653 502.774957575 267.485922491 496.387478787 c 128,-1,22
 261.52541533 490 261.52541533 490 255.015625 490 c 0,23,24
 251.921449969 490 251.921449969 490 249.632543486 492.082024551 c 0,25,26
 246 495.386241991 246 495.386241991 246 505.000976562 c 0,27,28
 246 511.58223635 246 511.58223635 248.103895441 524.201469511 c 0,29,30
 250.057430516 534.947100414 250.057430516 534.947100414 251.028715258 542.978922461 c 128,-1,31
 252 551.010744508 252 551.010744508 252 556 c 2,32,-1
 252 558.458002271 l 2,33,34
 251.554373292 561 251.554373292 561 244 561 c 2,35,-1
 240.222757589 561 l 2,36,37
 237.071996334 560.825170869 237.071996334 560.825170869 232.910361613 559.160285939 c 128,-1,38
 228.748726892 557.495401008 228.748726892 557.495401008 223.635681906 554.326621962 c 128,-1,39
 218.52263692 551.157842916 218.52263692 551.157842916 212.296515225 545.974796806 c 128,-1,40
 206.070393529 540.791750695 206.070393529 540.791750695 199.493657866 534.09544643 c 128,-1,41
 192.766931487 527.246563139 192.766931487 527.246563139 186.567785354 520.101629731 c 128,-1,42
 180.368639221 512.956696324 180.368639221 512.956696324 174.691518868 505.508902573 c 128,-1,43
 169.014398514 498.061108821 169.014398514 498.061108821 163.858484127 490.310946928 c 128,-1,44
 158.70256974 482.560785036 158.70256974 482.560785036 154.059297104 474.496541684 c 0,45,46
 135.470719736 442.52330917 135.470719736 442.52330917 121.547730787 411.979421078 c 128,-1,47
 107.624741839 381.435532986 107.624741839 381.435532986 98.4074083604 352.443374042 c 128,-1,48
 89.190074882 323.451215098 89.190074882 323.451215098 84.595037441 295.985868295 c 128,-1,49
 80 268.520521492 80 268.520521492 80 242.5 c 0,50,51
 80 189.700783099 80 189.700783099 86.3593775382 158.393517944 c 0,52,53
 88.4516236207 148.094962167 88.4516236207 148.094962167 91.7735865334 137.693386464 c 128,-1,54
 95.0955494462 127.29181076 95.0955494462 127.29181076 99.6938791467 116.687246245 c 128,-1,55
 104.292208847 106.082681731 104.292208847 106.082681731 110.157035473 95.3303410836 c 0,56,57
 131.534170661 55.3633378817 131.534170661 55.3633378817 153.168188477 51.9017955378 c 0,58,59
 177.900478302 47.4857697226 177.900478302 47.4857697226 218.38041255 83.2599435274 c 0,60,61
 268.835783852 127.199148919 268.835783852 127.199148919 310.509356666 226.379199491 c 0,62,63
 342.866772182 303.389482483 342.866772182 303.389482483 356.036341861 427.714050416 c 0,64,65
 360.999034338 478.326927748 360.999034338 478.326927748 361 513 c 2,66,-1
 361 526.897741182 l 2,67,68
 359.121188999 591.709445551 359.121188999 591.709445551 305.63171397 619.862231132 c 0,69,70
 286.141067048 631 286.141067048 631 254.5 631 c 0,71,72
 223.159180121 631 223.159180121 631 213.943469947 624.716524897 c 0,73,74
 211.366276818 622.959203877 211.366276818 622.959203877 209.11586819 621.234887148 c 128,-1,75
 206.865459563 619.51057042 206.865459563 619.51057042 205.082629231 617.940176192 c 128,-1,76
 203.299798899 616.369781964 203.299798899 616.369781964 201.918313282 614.943728841 c 128,-1,77
 200.536827666 613.517675717 200.536827666 613.517675717 199.547988272 612.232620117 c 2,78,-1
 193.507303951 602.418521598 l 1,79,-1
 193.353521143 602.060203273 l 2,80,81
 190.790030964 596.467364711 190.790030964 596.467364711 188.478073727 591.580119067 c 1,0,1
165.690922372 571.893224133 m 0,82,-1
 164.565846076 573.840315912 l 2,83,84
 163 577.708968457 163 577.708968457 163 584 c 0,85,86
 163 591.740999863 163 591.740999863 166.155127737 606.466309049 c 2,87,-1
 172.169942681 634.534792585 l 2,88,89
 174.647422075 645.063458152 174.647422075 645.063458152 182.732976732 653.399280722 c 128,-1,90
 190.818531389 661.735103291 190.818531389 661.735103291 203.869791837 668.261003761 c 0,91,92
 229.349876104 681 229.349876104 681 263 681 c 0,93,94
 349.892590318 681 349.892590318 681 392.908683739 611.754707155 c 0,95,96
 406.689235374 590.549761936 406.689235374 590.549761936 410.927589226 563.007765813 c 0,97,98
 418.953338709 504.168705191 418.953338709 504.168705191 413.595610377 438.387448434 c 128,-1,99
 408.237882044 372.606191678 408.237882044 372.606191678 389.52262274 299.139562863 c 0,100,101
 381.184607241 267.111382408 381.184607241 267.111382408 370.014645022 236.466215349 c 128,-1,102
 358.844682803 205.82104829 358.844682803 205.82104829 344.839721871 176.551255929 c 128,-1,103
 330.834760938 147.281463569 330.834760938 147.281463569 313.992165297 119.381806195 c 0,104,105
 297.735368081 92.4550869754 297.735368081 92.4550869754 282.231587079 72.3701519089 c 128,-1,106
 266.727806076 52.2852168425 266.727806076 52.2852168425 251.652642164 38.7697108257 c 0,107,108
 199.64068087 -7.00114203267 199.64068087 -7.00114203267 161.000450958 -6.99902342479 c 0,109,110
 123.545529768 -7.00113475067 123.545529768 -7.00113475067 91.5093311354 18.6276135576 c 0,111,112
 34.2276737747 68.6201431847 34.2276737747 68.6201431847 24.0192563167 209.481507848 c 0,113,114
 23.5110769337 216.093812553 23.5110769337 216.093812553 23.2555384668 222.738666039 c 128,-1,115
 23 229.383519525 23 229.383519525 23 236 c 0,116,117
 23 374.171689491 23 374.171689491 127.259548956 526.005945632 c 0,118,119
 146.089940687 552.561856826 146.089940687 552.561856826 165.690922372 571.893224133 c 0,82,-1
186.081054688 605.393554688 m 1025,120,-1
264.579101562 607.092773438 m 1025,121,-1
EndSplineSet
Validated: 33
EndChar

StartChar: P
Encoding: 80 80 24
Width: 551
VWidth: 965
Flags: W
LayerCount: 2
Fore
SplineSet
139.527146682 47.1764152778 m 0,0,1
 139.162535991 31.1825941147 139.162535991 31.1825941147 136.541654692 19.8300031142 c 128,-1,2
 133.920773393 8.47741211358 133.920773393 8.47741211358 127.345342424 0.836051730074 c 128,-1,3
 120.769911455 -6.80530865343 120.769911455 -6.80530865343 110.42037216 -7.32959842311 c 0,4,5
 93.3658803402 -7.30598493756 93.3658803402 -7.30598493756 86.0664314247 8.55943979133 c 0,6,7
 79.8145325511 22.1570157068 79.8145325511 22.1570157068 79.8134765625 45.439453125 c 0,8,9
 79.8134765625 88.5936412437 79.8134765625 88.5936412437 87.5386168402 119.014794592 c 0,10,11
 92.0622455233 135.420288889 92.0622455233 135.420288889 97.6948415476 151.931943645 c 128,-1,12
 103.281049384 168.311474991 103.281049384 168.311474991 110.604855287 188.184350056 c 0,13,14
 112.917724239 194.460233981 112.917724239 194.460233981 115.010378654 200.231243446 c 128,-1,15
 117.103033068 206.002252912 117.103033068 206.002252912 118.725767347 210.565893513 c 1,16,17
 71.1486919262 220.534070615 71.1486919262 220.534070615 50.9113577421 234.558146431 c 0,18,19
 36.7859543686 244.345966914 36.7859543686 244.345966914 40.2640487659 271.499802552 c 0,20,21
 40.3422118812 272.110029919 40.3422118812 272.110029919 40.5127590956 272.70113106 c 0,22,23
 44.3911245325 286.143193084 44.3911245325 286.143193084 53.9460087839 285.8085753 c 0,24,25
 55.504028544 285.754012512 55.504028544 285.754012512 56.9275583318 285.118429619 c 0,26,27
 100.858411915 265.50401814 100.858411915 265.50401814 137.599107758 260.938363943 c 1,28,29
 142.587849619 271.475541514 142.587849619 271.475541514 153.278460377 295.706600331 c 0,30,31
 185.84757026 367.047561037 185.84757026 367.047561037 204.891557219 416.163778788 c 128,-1,32
 223.935544177 465.279996539 223.935544177 465.279996539 229.069447792 490.815143916 c 0,33,34
 229.322871018 492.074006798 229.322871018 492.074006798 229.683841709 493.881296401 c 128,-1,35
 230.0448124 495.688586003 230.0448124 495.688586003 230.511985809 498.037606002 c 0,36,37
 231.913347856 505.085806675 231.913347856 505.085806675 232.986372622 510.249333076 c 128,-1,38
 234.059397388 515.412859477 234.059397388 515.412859477 234.825659799 518.789532536 c 0,39,40
 236.367489058 525.577665592 236.367489058 525.577665592 238.96957972 534.013981298 c 0,41,42
 240.439451686 538.77987554 240.439451686 538.77987554 241.922974916 541.980255731 c 128,-1,43
 243.406498146 545.180635923 243.406498146 545.180635923 245.619695991 547.662074692 c 0,44,45
 250.271183097 552.876953125 250.271183097 552.876953125 256.701171875 552.876953125 c 0,46,47
 269.90496663 552.876953125 269.90496663 552.876953125 279.605335709 531.713536508 c 2,48,-1
 285.350477153 515.989111818 l 2,49,50
 287.364257812 508.297479393 287.364257812 508.297479393 287.364257812 501.326171875 c 0,51,52
 287.364257812 500.927209098 287.364257812 500.927209098 287.308686848 500.439501719 c 0,53,54
 281.333470016 473.01175311 281.333470016 473.01175311 273.378319778 446.662478332 c 0,55,56
 271.3869396 440.06632507 271.3869396 440.06632507 269.197722981 433.33790366 c 128,-1,57
 267.008506362 426.60948225 267.008506362 426.60948225 264.622707518 419.752370775 c 128,-1,58
 262.236908674 412.8952593 262.236908674 412.8952593 259.655222441 405.909932428 c 128,-1,59
 257.073536209 398.924605556 257.073536209 398.924605556 254.293948832 391.80530234 c 0,60,61
 243.247944724 363.513386356 243.247944724 363.513386356 235.483083979 344.930310477 c 0,62,63
 234.704829939 343.067771745 234.704829939 343.067771745 233.859693229 341.064313912 c 128,-1,64
 233.014556519 339.060856078 233.014556519 339.060856078 232.102678786 336.91681861 c 128,-1,65
 231.190801053 334.772781142 231.190801053 334.772781142 230.212118011 332.487967356 c 128,-1,66
 229.233434968 330.203153569 229.233434968 330.203153569 228.187676321 327.776961616 c 128,-1,67
 227.141917675 325.350769663 227.141917675 325.350769663 226.029458541 322.784006929 c 128,-1,68
 224.916999407 320.217244196 224.916999407 320.217244196 223.737130087 317.508304764 c 128,-1,69
 222.557260767 314.799365331 222.557260767 314.799365331 221.310795782 311.950060657 c 128,-1,70
 220.064330798 309.100755982 220.064330798 309.100755982 218.750121046 306.108476077 c 128,-1,71
 217.435911294 303.116196171 217.435911294 303.116196171 216.055210701 299.983756561 c 128,-1,72
 214.674510108 296.851316951 214.674510108 296.851316951 213.225757628 293.575166333 c 0,73,74
 208.820562957 283.613138766 208.820562957 283.613138766 204.75621193 274.375735034 c 128,-1,75
 200.691860903 265.138331303 200.691860903 265.138331303 198.247755521 259.542449993 c 1,76,77
 218.109538068 261.410624267 218.109538068 261.410624267 238.358691871 265.430551065 c 128,-1,78
 258.607845674 269.450477864 258.607845674 269.450477864 279.375498247 275.656796711 c 128,-1,79
 300.14315082 281.863115559 300.14315082 281.863115559 321.430599353 290.262898593 c 128,-1,80
 342.718047887 298.662681627 342.718047887 298.662681627 364.631949091 309.292324547 c 0,81,82
 383.495742839 318.444512593 383.495742839 318.444512593 400.28299846 328.612130478 c 128,-1,83
 417.049760315 338.768183422 417.049760315 338.768183422 431.756892588 349.930784141 c 128,-1,84
 446.427616315 361.066703573 446.427616315 361.066703573 459.092077388 373.233605065 c 0,85,86
 465.373016976 379.268399723 465.373016976 379.268399723 471.223129558 385.628173563 c 128,-1,87
 477.073242141 391.987947402 477.073242141 391.987947402 482.284961938 398.438644663 c 0,88,89
 516.035414868 442.230416123 516.035414868 442.230416123 517.502448954 492.345414679 c 0,90,91
 518.23212408 517.271671172 518.23212408 517.271671172 510.601734474 538.784426721 c 128,-1,92
 502.971344869 560.29718227 502.971344869 560.29718227 486.868857866 578.803815306 c 0,93,94
 460.18018963 608.597285411 460.18018963 608.597285411 412.038110877 618.603904072 c 0,95,96
 397.879706238 621.546538338 397.879706238 621.546538338 382.846928997 623.01464946 c 0,97,98
 316.853320337 628.325557757 316.853320337 628.325557757 258.33887999 613.844576284 c 0,99,100
 212.726770618 602.263399393 212.726770618 602.263399393 188.498103183 594.451474414 c 0,101,102
 164.804319806 586.811368672 164.804319806 586.811368672 132.333231572 568.421788623 c 0,103,104
 116.417873199 559.407597949 116.417873199 559.407597949 101.967025673 548.133439131 c 128,-1,105
 87.5161781463 536.859280313 87.5161781463 536.859280313 74.8261827143 523.67990186 c 0,106,107
 72.4172329846 520.51920882 72.4172329846 520.51920882 71.4142124496 518.340900377 c 128,-1,108
 70.498046875 516.349542858 70.498046875 516.349542858 70.498046875 514.952148438 c 2,109,-1
 70.5841243516 514.151566484 l 2,110,111
 71.6450553136 513.375444727 71.6450553136 513.375444727 72.1791926672 512.988631224 c 2,112,-1
 77.7423773319 509.020284603 l 2,113,114
 81.1820205192 506.589214756 81.1820205192 506.589214756 85.6565985051 503.462647124 c 0,115,116
 86.5326344187 502.851256615 86.5326344187 502.851256615 88.047826124 501.824942224 c 128,-1,117
 89.5630178293 500.798627832 89.5630178293 500.798627832 91.6628060262 499.395246974 c 0,118,119
 96.1261319369 496.407747735 96.1261319369 496.407747735 97.7915710555 495.135736835 c 128,-1,120
 99.4960961723 493.835866887 99.4960961723 493.835866887 102.044271287 491.581053108 c 0,121,122
 105.358365559 488.643059754 105.358365559 488.643059754 106.693466417 485.742527662 c 2,123,-1
 108.049676267 480.294255754 l 2,124,125
 108.104555925 479.633753775 108.104555925 479.633753775 108.049991876 478.973225648 c 0,126,127
 107.770735047 475.592666605 107.770735047 475.592666605 105.425402874 472.841431428 c 128,-1,128
 103.0800707 470.09019625 103.0800707 470.09019625 99.925196929 469.194508759 c 0,129,130
 95.2794360113 468.541523926 95.2794360113 468.541523926 93.5515887335 468.790255596 c 128,-1,131
 91.8237414557 469.038987267 91.8237414557 469.038987267 87.4790617012 470.304406899 c 0,132,133
 84.0864522494 471.292364597 84.0864522494 471.292364597 80.0381875058 472.981888555 c 128,-1,134
 75.9899227621 474.671412514 75.9899227621 474.671412514 71.1747068338 477.070030157 c 0,135,136
 69.1875324343 478.029302847 69.1875324343 478.029302847 67.3288499923 478.923601049 c 128,-1,137
 65.4701675503 479.817899252 65.4701675503 479.817899252 63.7561130933 480.639464802 c 128,-1,138
 62.0420586364 481.461030351 62.0420586364 481.461030351 60.47601743 482.208284717 c 128,-1,139
 58.9099762237 482.955539084 58.9099762237 482.955539084 57.4987623911 483.625182661 c 128,-1,140
 56.0875485584 484.294826237 56.0875485584 484.294826237 54.8438692695 484.880821934 c 0,141,142
 48.7353217503 487.760214652 48.7353217503 487.760214652 47.4482025785 488.281251197 c 0,143,144
 45.5776080151 489.035950306 45.5776080151 489.035950306 43.676950781 489.890891256 c 128,-1,145
 41.7762935469 490.745832205 41.7762935469 490.745832205 39.8434214091 491.701009333 c 0,146,147
 35.6051498151 493.795476257 35.6051498151 493.795476257 32.3525002983 497.962093407 c 0,148,149
 29.6653653685 501.406614891 29.6653653685 501.406614891 26.3193551154 507.370077288 c 0,150,151
 16.9281934839 524.10482175 16.9281934839 524.10482175 27.3168278623 534.480137366 c 0,152,153
 29.3657111487 536.524042142 29.3657111487 536.524042142 34.4514980059 541.984046967 c 128,-1,154
 39.5372848632 547.444051792 39.5372848632 547.444051792 47.2821949036 555.925113594 c 0,155,156
 82.5551209657 594.548367752 82.5551209657 594.548367752 128.012071881 621.126983873 c 128,-1,157
 173.397829209 647.66160765 173.397829209 647.66160765 228.713921274 662.100031738 c 0,158,159
 259.113614692 670.034910641 259.113614692 670.034910641 287.106646018 674.010375711 c 128,-1,160
 315.186435859 677.998002798 315.186435859 677.998002798 340.910329031 677.999999917 c 0,161,162
 354.858739792 677.997995979 354.858739792 677.997995979 367.970271887 676.834491578 c 0,163,164
 383.059007739 675.980872185 383.059007739 675.980872185 397.164050003 674.043457182 c 128,-1,165
 411.269092267 672.10604218 411.269092267 672.10604218 424.406403361 669.064478751 c 128,-1,166
 437.543714454 666.022915322 437.543714454 666.022915322 449.477741983 661.910103846 c 0,167,168
 485.539807209 649.481722649 485.539807209 649.481722649 507.712663529 631.755141018 c 128,-1,169
 529.904787364 614.011306487 529.904787364 614.011306487 544.65450467 589.812808459 c 0,170,171
 549.501884923 581.859267742 549.501884923 581.859267742 553.405041878 574.05773393 c 128,-1,172
 557.308198834 566.256200118 557.308198834 566.256200118 560.297944088 558.512472592 c 128,-1,173
 563.287689342 550.768745065 563.287689342 550.768745065 565.315625136 543.165536248 c 0,174,175
 568.296029577 531.993196315 568.296029577 531.993196315 570.186829852 520.124641306 c 128,-1,176
 572.077630127 508.256086297 572.077630127 508.256086297 572.884890124 495.697757936 c 2,177,-1
 572.901028861 495.258144196 l 2,178,179
 573.097563822 473.888969382 573.097563822 473.888969382 568.200185928 453.389988204 c 128,-1,180
 563.302808033 432.891007027 563.302808033 432.891007027 553.420511192 413.486157256 c 128,-1,181
 543.538214351 394.081307485 543.538214351 394.081307485 528.710756101 375.74594877 c 0,182,183
 484.862582599 321.524114078 484.862582599 321.524114078 424.072182401 284.512166748 c 0,184,185
 416.627411302 279.99002285 416.627411302 279.99002285 409.065899571 275.704532994 c 128,-1,186
 401.50438784 271.419043137 401.50438784 271.419043137 393.827367264 267.370860965 c 128,-1,187
 386.150346688 263.322678793 386.150346688 263.322678793 378.357263577 259.511436168 c 128,-1,188
 370.564180466 255.700193544 370.564180466 255.700193544 362.656080026 252.126414767 c 128,-1,189
 354.747979585 248.55263599 354.747979585 248.55263599 346.724507146 245.21609089 c 128,-1,190
 338.701034707 241.87954579 338.701034707 241.87954579 330.563036454 238.780620702 c 128,-1,191
 322.425038201 235.681695613 322.425038201 235.681695613 314.172358485 232.820298331 c 128,-1,192
 305.919678769 229.958901048 305.919678769 229.958901048 297.552977194 227.335288564 c 0,193,194
 233.552652859 207.265256371 233.552652859 207.265256371 176.074509774 206.16594742 c 1,195,196
 139.06767382 100.921771128 139.06767382 100.921771128 139.527146682 47.1764152778 c 0,0,1
EndSplineSet
Validated: 33
EndChar

StartChar: Q
Encoding: 81 81 25
Width: 526
VWidth: 965
Flags: W
LayerCount: 2
Fore
SplineSet
79.9672914466 252.632304915 m 0,0,1
 79.4100786002 246.178934861 79.4100786002 246.178934861 79.1396096126 239.924623212 c 128,-1,2
 78.869140625 233.670311563 78.869140625 233.670311563 78.869140625 227.306640625 c 0,3,4
 78.869140625 213.653555979 78.869140625 213.653555979 80.1478230066 200.050380445 c 128,-1,5
 81.4265053883 186.447204911 81.4265053883 186.447204911 83.9884807593 172.869222638 c 128,-1,6
 86.5504561303 159.291240365 86.5504561303 159.291240365 90.3970999977 145.742265977 c 0,7,8
 105.204447687 93.579976056 105.204447687 93.579976056 136.656815829 68.5575322997 c 0,9,10
 166.187560042 46.59765625 166.187560042 46.59765625 196.168945312 46.59765625 c 0,11,12
 202.855100114 46.59765625 202.855100114 46.59765625 209.539118726 47.6642594495 c 128,-1,13
 216.223137337 48.7308626491 216.223137337 48.7308626491 223.095347762 50.9245718398 c 128,-1,14
 229.967558188 53.1182810305 229.967558188 53.1182810305 236.994801203 56.4559217575 c 0,15,16
 261.52630332 67.6134493848 261.52630332 67.6134493848 294.428369454 89.8154883901 c 0,17,18
 296.566269557 91.7181789545 296.566269557 91.7181789545 304.568502005 98.0468986436 c 0,19,20
 307.357748907 100.252267885 307.357748907 100.252267885 310.049378499 102.450270012 c 128,-1,21
 312.74100809 104.648272139 312.74100809 104.648272139 315.328230123 106.833123575 c 128,-1,22
 317.915452155 109.017975012 317.915452155 109.017975012 320.402047024 111.192630314 c 0,23,24
 322.265898211 112.823411551 322.265898211 112.823411551 323.958263253 114.442764888 c 128,-1,25
 325.650628294 116.062118226 325.650628294 116.062118226 326.771461451 117.230268025 c 0,26,27
 320.34248818 130.772509178 320.34248818 130.772509178 314.239660456 144.989611728 c 128,-1,28
 308.136832732 159.206714278 308.136832732 159.206714278 302.314089107 174.211353074 c 128,-1,29
 296.491345483 189.215991871 296.491345483 189.215991871 290.945501778 204.995696894 c 128,-1,30
 285.399658074 220.775401917 285.399658074 220.775401917 280.055139674 237.531086508 c 0,31,32
 277.745438623 244.801997434 277.745438623 244.801997434 276.09965473 250.892100734 c 0,33,34
 275.546572838 252.937351483 275.546572838 252.937351483 275.074243442 254.838782955 c 128,-1,35
 274.601914046 256.740214427 274.601914046 256.740214427 274.203631637 258.529996054 c 128,-1,36
 273.805349229 260.319777681 273.805349229 260.319777681 273.489476501 261.96650423 c 0,37,38
 273.009494428 264.455300165 273.009494428 264.455300165 272.707560763 266.647061781 c 128,-1,39
 272.405627097 268.838823396 272.405627097 268.838823396 272.281233834 270.816908793 c 0,40,41
 272.13671875 273.126960516 272.13671875 273.126960516 272.13671875 275.28515625 c 0,42,43
 272.13671875 279.348254242 272.13671875 279.348254242 272.654310981 282.940458843 c 128,-1,44
 273.171903213 286.532663444 273.171903213 286.532663444 274.284574046 289.725767005 c 0,45,46
 276.93180512 297.320908825 276.93180512 297.320908825 284.284406478 302.367297719 c 2,47,-1
 284.821577621 302.905785458 l 2,48,49
 286.867081584 304.956302912 286.867081584 304.956302912 289.751186265 305.222100729 c 2,50,-1
 292.591030015 305.483819479 l 1,51,-1
 293.0521837 305.512918309 l 1,52,-1
 294.189626302 305.551757812 l 2,53,54
 304.537031834 305.551757812 304.537031834 305.551757812 312.96844218 296.665586161 c 0,55,56
 314.31859405 295.242611739 314.31859405 295.242611739 314.857364524 293.356480075 c 0,57,58
 342.819445177 195.466621117 342.819445177 195.466621117 366.388326724 157.042517729 c 1,59,60
 390.952132255 184.219556912 390.952132255 184.219556912 408.795435263 218.598894817 c 128,-1,61
 426.638738272 252.978232721 426.638738272 252.978232721 438.08273 295.248009279 c 0,62,63
 459.557687913 374.562187169 459.557687913 374.562187169 459.5625 446.965820312 c 0,64,65
 459.5625 456.636168174 459.5625 456.636168174 459.180226809 466.147125176 c 0,66,67
 455.476150521 537.336194823 455.476150521 537.336194823 419.161448531 582.136007033 c 0,68,69
 402.928494341 602.16056666 402.928494341 602.16056666 382.611926969 611.972861455 c 128,-1,70
 362.295359596 621.78515625 362.295359596 621.78515625 337.1484375 621.78515625 c 0,71,72
 331.973746074 621.78515625 331.973746074 621.78515625 326.53448555 621.359409899 c 0,73,74
 311.652041075 620.472608287 311.652041075 620.472608287 296.881858483 615.794722454 c 128,-1,75
 282.111675892 611.116836622 282.111675892 611.116836622 267.134552136 602.446046655 c 128,-1,76
 252.15742838 593.775256687 252.15742838 593.775256687 237.119673672 581.099799286 c 0,77,78
 191.659620762 542.783087183 191.659620762 542.783087183 159.167868078 487.320603306 c 0,79,80
 126.412850126 431.423516012 126.412850126 431.423516012 104.840277416 368.324922855 c 0,81,82
 99.4530834799 352.568644908 99.4530834799 352.568644908 95.2013323469 337.42838359 c 128,-1,83
 90.9495812138 322.288122272 90.9495812138 322.288122272 87.8470178172 307.825166798 c 128,-1,84
 84.7444544207 293.362211323 84.7444544207 293.362211323 82.7755688394 279.568159425 c 128,-1,85
 80.8066832582 265.774107528 80.8066832582 265.774107528 79.9672914466 252.632304915 c 0,0,1
510.215195018 490.503069536 m 0,86,87
 510.804304474 475.987847459 510.804304474 475.987847459 510.675831663 462.708700074 c 0,88,89
 510.804166994 364.195538831 510.804166994 364.195538831 484.701344141 271.041015701 c 0,90,91
 457.032237076 171.601361084 457.032237076 171.601361084 393.684418971 106.104986089 c 1,92,93
 410.82871173 76.718292276 410.82871173 76.718292276 425.088744246 60.6099132148 c 0,94,95
 440.461694733 43.4994367579 440.461694733 43.4994367579 471.186760918 28.6165894959 c 0,96,97
 501.535926997 14.3701510795 501.535926997 14.3701510795 549.426482487 7.48479173295 c 1,98,-1
 550.096165645 7.49573893455 l 2,99,100
 551.693733908 7.5521568838 551.693733908 7.5521568838 553.28053004 7.60256615319 c 0,101,102
 557.367677568 7.57027795679 557.367677568 7.57027795679 560.052275353 6.98325263221 c 128,-1,103
 562.736873138 6.39622730764 562.736873138 6.39622730764 566.059229464 4.55188952066 c 0,104,105
 571.878891971 -0.290079474953 571.878891971 -0.290079474953 571.03793736 -7.8993623232 c 0,106,107
 569.659211409 -20.6156545786 569.659211409 -20.6156545786 559.427484265 -25.6160594101 c 128,-1,108
 549.195757121 -30.6164642416 549.195757121 -30.6164642416 532.931771918 -30.3461176241 c 0,109,110
 502.803714613 -29.6487205461 502.803714613 -29.6487205461 475.681588946 -22.870154606 c 128,-1,111
 448.559463279 -16.0915886658 448.559463279 -16.0915886658 424.47488846 -3.19274112188 c 0,112,113
 383.522549944 18.990326592 383.522549944 18.990326592 353.749167971 65.7424351791 c 1,114,115
 337.273392078 52.2615391922 337.273392078 52.2615391922 321.451127476 41.3299054522 c 128,-1,116
 305.628862874 30.3982717122 305.628862874 30.3982717122 290.239110005 21.8908985944 c 128,-1,117
 274.849357136 13.3835254766 274.849357136 13.3835254766 259.977646768 7.39432956436 c 128,-1,118
 245.1059364 1.40513365215 245.1059364 1.40513365215 230.608785824 -2.12334345363 c 128,-1,119
 216.111635247 -5.6518205594 216.111635247 -5.6518205594 201.997058383 -6.69320550086 c 0,120,121
 194.355614571 -7.43452425601 194.355614571 -7.43452425601 186.466431673 -7.25643424249 c 0,122,123
 170.74331219 -7.35654553026 170.74331219 -7.35654553026 158.982782172 -5.38410423827 c 128,-1,124
 147.222252153 -3.41166294628 147.222252153 -3.41166294628 139.101788855 1.04633524252 c 0,125,126
 85.7678221729 30.0268044485 85.7678221729 30.0268044485 56.6836494407 81.5809542695 c 0,127,128
 27.8326536841 132.722556913 27.8326536841 132.722556913 23.0881670459 205.646628613 c 0,129,130
 23.0602032142 206.128028133 23.0602032142 206.128028133 23.0846464901 206.577664601 c 128,-1,131
 23.109089766 207.027301069 23.109089766 207.027301069 23.1828675262 207.501873088 c 0,132,133
 23.0525959285 208.672261116 23.0525959285 208.672261116 23.0537755575 208.965748323 c 0,134,135
 23.41802562 299.589778126 23.41802562 299.589778126 50.6568405495 386.124605693 c 0,136,137
 78.9695363315 473.18720946 78.9695363315 473.18720946 123.01921058 535.795505566 c 0,138,139
 145.296069852 566.712027133 145.296069852 566.712027133 170.353224773 591.835044046 c 128,-1,140
 195.410379693 616.958060958 195.410379693 616.958060958 223.421885842 636.423522867 c 0,141,142
 249.259357458 653.995830644 249.259357458 653.995830644 277.149384252 664.019632457 c 128,-1,143
 305.039411046 674.043434271 305.039411046 674.043434271 334.843081763 676.455972775 c 0,144,145
 337.811399023 676.706765715 337.811399023 676.706765715 340.800534121 676.829178163 c 128,-1,146
 343.789669218 676.951590612 343.789669218 676.951590612 346.702634342 676.942382081 c 0,147,148
 390.470675878 676.961094814 390.470675878 676.961094814 427.359207455 649.486013781 c 0,149,150
 447.743913537 634.104858718 447.743913537 634.104858718 463.027214841 615.653065435 c 128,-1,151
 478.310516145 597.201272151 478.310516145 597.201272151 488.386988838 575.756223071 c 0,152,153
 508.7900137 532.464145731 508.7900137 532.464145731 510.215195018 490.503069536 c 0,86,87
EndSplineSet
Validated: 33
EndChar

StartChar: R
Encoding: 82 82 26
Width: 583
VWidth: 965
Flags: W
LayerCount: 2
Fore
SplineSet
144.187984212 296.871593758 m 1,0,1
 144.409509563 297.569993462 144.409509563 297.569993462 144.591743276 298.14407856 c 0,2,3
 146.23132961 303.30921547 146.23132961 303.30921547 148.240936237 309.605852576 c 0,4,5
 149.245538197 312.754028854 149.245538197 312.754028854 150.346159908 316.195640011 c 128,-1,6
 151.446781619 319.637251168 151.446781619 319.637251168 152.643037484 323.371093484 c 0,7,8
 158.607939308 341.992687444 158.607939308 341.992687444 162.894214596 355.803610877 c 1,9,10
 161.683755901 355.104570579 161.683755901 355.104570579 160.954185234 354.640712772 c 0,11,12
 159.102539884 353.462768743 159.102539884 353.462768743 157.240755866 352.000803011 c 128,-1,13
 155.378971848 350.538837279 155.378971848 350.538837279 153.513848047 348.787790951 c 0,14,15
 145.923738831 341.661709392 145.923738831 341.661709392 141.855540723 327.127812177 c 0,16,17
 138.453353281 314.967121571 138.453353281 314.967121571 140.778368181 305.852458437 c 0,18,19
 141.274685132 303.905843319 141.274685132 303.905843319 141.947926477 302.029139645 c 128,-1,20
 142.621167821 300.152435971 142.621167821 300.152435971 143.476604986 298.331288836 c 0,21,22
 143.66823369 297.923236757 143.66823369 297.923236757 144.187984212 296.871593758 c 1,0,1
209.537721775 349.7874544 m 1,23,24
 208.614715323 346.735886489 208.614715323 346.735886489 207.956601267 344.587498923 c 128,-1,25
 207.298487211 342.439111357 207.298487211 342.439111357 206.753247735 340.689377306 c 128,-1,26
 206.20800826 338.939643255 206.20800826 338.939643255 205.343919743 336.194163079 c 0,27,28
 204.670140917 334.053192807 204.670140917 334.053192807 203.963591464 331.831591327 c 128,-1,29
 203.257042012 329.609989847 203.257042012 329.609989847 202.517909952 327.308345285 c 128,-1,30
 201.778777892 325.006700723 201.778777892 325.006700723 201.006991068 322.624745046 c 128,-1,31
 200.235204244 320.242789369 200.235204244 320.242789369 199.430608427 317.780058463 c 128,-1,32
 198.626012609 315.317327557 198.626012609 315.317327557 197.788900705 312.774675778 c 128,-1,33
 196.951788801 310.232023998 196.951788801 310.232023998 196.081664333 307.607934991 c 0,34,35
 188.191355925 283.813993267 188.191355925 283.813993267 183.626891351 268.949025161 c 1,36,37
 213.45039452 258.587987091 213.45039452 258.587987091 241.720685296 270.350857455 c 0,38,39
 240.981467489 272.843038612 240.981467489 272.843038612 240.469289462 274.631583854 c 0,40,41
 239.534684496 277.895260115 239.534684496 277.895260115 238.4478628 281.874293547 c 128,-1,42
 237.361041104 285.853326979 237.361041104 285.853326979 236.116454592 290.56680454 c 0,43,44
 231.06335074 309.711798848 231.06335074 309.711798848 227.31251957 321.332754668 c 0,45,46
 223.917435047 331.851548081 223.917435047 331.851548081 216.276367206 342.535305907 c 0,47,48
 213.273003497 346.734226557 213.273003497 346.734226557 209.537721775 349.7874544 c 1,23,24
109.292857034 18.2823318846 m 0,49,50
 108.824003786 15.9361939717 108.824003786 15.9361939717 108.304374652 13.6003951709 c 0,51,52
 108.04318817 12.4258197069 108.04318817 12.4258197069 107.782667201 11.3180295668 c 128,-1,53
 107.522146232 10.2102394267 107.522146232 10.2102394267 107.261590497 9.16698662198 c 128,-1,54
 106.979476389 8.03741511588 106.979476389 8.03741511588 106.387102919 7.0351108562 c 0,55,56
 103.043073013 1.37696512838 103.043073013 1.37696512838 96.4181359061 -1.12602616595 c 128,-1,57
 89.7931987994 -3.62901746027 89.7931987994 -3.62901746027 78.1490472136 -5.46753665668 c 1,58,59
 78.1490472136 -5.46753665668 78.1490472136 -5.46753665668 77.6987184862 -5.52559494373 c 0,60,61
 68.2504072791 -6.4720103722 68.2504072791 -6.4720103722 63.0431723896 0.066035521611 c 128,-1,62
 57.8359375 6.60408141542 57.8359375 6.60408141542 57.8359375 16.298828125 c 2,63,-1
 57.8469583679 16.7571576689 l 2,64,65
 58.9068315828 33.7130529591 58.9068315828 33.7130529591 83.4454456564 116.84098804 c 0,66,67
 85.8421827331 124.960626608 85.8421827331 124.960626608 88.6326001181 133.924874328 c 128,-1,68
 91.4230175031 142.889122048 91.4230175031 142.889122048 94.606720844 152.696894733 c 128,-1,69
 97.790424185 162.504667417 97.790424185 162.504667417 101.365369362 173.151555527 c 128,-1,70
 104.940314539 183.798443636 104.940314539 183.798443636 108.912763837 195.303607057 c 0,71,72
 114.686938321 212.025041699 114.686938321 212.025041699 118.835256806 224.111801359 c 128,-1,73
 122.983575291 236.198561019 122.983575291 236.198561019 124.883761814 241.823209719 c 1,74,75
 118.215612578 248.094836496 118.215612578 248.094836496 114.391497094 252.037315686 c 0,76,77
 111.515393049 255.002327231 111.515393049 255.002327231 109.096587206 257.999402447 c 128,-1,78
 106.640901016 261.04243705 106.640901016 261.04243705 104.6522382 264.126577829 c 0,79,80
 100.74917137 270.183510968 100.74917137 270.183510968 98.9026342963 274.692148591 c 0,81,82
 98.0541497736 276.767409223 98.0541497736 276.767409223 96.9712136014 279.830363881 c 128,-1,83
 95.9202872769 282.802782538 95.9202872769 282.802782538 94.6198337566 286.786108653 c 0,84,85
 86.5781496605 311.411479795 86.5781496605 311.411479795 93.8859694053 338.26878575 c 0,86,87
 100.809198153 363.720176628 100.809198153 363.720176628 122.015959393 384.904861727 c 0,88,89
 128.91989102 391.801740221 128.91989102 391.801740221 138.026724409 397.305810881 c 128,-1,90
 147.133557798 402.80988154 147.133557798 402.80988154 158.380425091 406.990714229 c 0,91,92
 160.663675735 407.84050515 160.663675735 407.84050515 163.630330535 408.473278584 c 0,93,94
 166.351060293 409.053834139 166.351060293 409.053834139 169.782207935 409.490702606 c 2,95,-1
 178.524080256 410.523465673 l 1,96,-1
 182.846045283 430.799934846 l 2,97,98
 183.886542931 437.156070425 183.886542931 437.156070425 184.588368614 442.353348677 c 128,-1,99
 185.290777157 447.561934603 185.290777157 447.561934603 185.647869769 451.569411104 c 2,100,-1
 186.181876979 457.999604399 l 2,101,102
 186.326721846 459.84044217 186.326721846 459.84044217 186.482289352 461.911843313 c 128,-1,103
 186.637856858 463.983244457 186.637856858 463.983244457 186.803989417 466.283354605 c 0,104,105
 187.136708123 470.889854818 187.136708123 470.889854818 187.510602326 476.403820626 c 0,106,107
 188.644648033 493.088811434 188.644648033 493.088811434 189.513523861 503.072519423 c 0,108,109
 189.538378946 503.358113637 189.538378946 503.358113637 189.583612121 503.641196293 c 0,110,111
 191.909806391 518.199211518 191.909806391 518.199211518 194.626609184 522.012839914 c 128,-1,112
 197.364910193 525.855414898 197.364910193 525.855414898 201.165251128 526.870090261 c 128,-1,113
 204.965592064 527.884765625 204.965592064 527.884765625 210.3671875 527.884765625 c 0,114,115
 218.509889422 527.884765625 218.509889422 527.884765625 222.271899812 527.04031031 c 0,116,117
 229.082517782 525.512234384 229.082517782 525.512234384 232.944290413 518.301705185 c 0,118,119
 235.99995205 512.591172379 235.99995205 512.591172379 235.643713366 502.236829994 c 0,120,121
 234.992854063 483.306264237 234.992854063 483.306264237 231.925831021 456.959725543 c 0,122,123
 231.050669485 449.441856605 231.050669485 449.441856605 229.839103735 440.368901896 c 128,-1,124
 228.627537986 431.295947186 228.627537986 431.295947186 227.276163775 422.051964018 c 128,-1,125
 225.924789564 412.807980849 225.924789564 412.807980849 224.52257044 403.944158294 c 1,126,127
 239.108638696 397.339905881 239.108638696 397.339905881 250.385728179 382.466961272 c 0,128,129
 253.925278847 377.798270619 253.925278847 377.798270619 257.192877986 372.087230106 c 128,-1,130
 260.460477124 366.376189594 260.460477124 366.376189594 263.400754367 359.793994646 c 128,-1,131
 266.34103161 353.211799698 266.34103161 353.211799698 269.096539585 345.522807958 c 0,132,133
 277.11149496 323.155005711 277.11149496 323.155005711 282.386520191 302.165298416 c 0,134,135
 282.934156052 299.986892292 282.934156052 299.986892292 283.44776168 297.971512051 c 128,-1,136
 283.961367309 295.95613181 283.961367309 295.95613181 284.441083404 294.103167821 c 2,137,-1
 285.629772174 289.562774899 l 1,138,139
 293.513418162 293.799047321 293.513418162 293.799047321 300.735655792 298.033918571 c 0,140,141
 312.194550457 304.753019499 312.194550457 304.753019499 322.888068356 311.957708931 c 0,142,143
 328.230248913 315.55729144 328.230248913 315.55729144 333.380439604 319.275808326 c 128,-1,144
 338.530630296 322.994325213 338.530630296 322.994325213 343.486809677 326.830010336 c 0,145,146
 353.393161486 334.498426778 353.393161486 334.498426778 362.585986033 342.684472744 c 128,-1,147
 371.774717441 350.866978396 371.774717441 350.866978396 380.237267641 359.546174462 c 128,-1,148
 388.698325212 368.22286115 388.698325212 368.22286115 396.496272056 377.451798973 c 0,149,150
 442.989314272 432.485781059 442.989314272 432.485781059 445.844511152 502.6232507 c 0,151,152
 447.036183964 531.896508962 447.036183964 531.896508962 437.23908439 557.230525254 c 128,-1,153
 427.441984815 582.564541547 427.441984815 582.564541547 411.921829123 597.85949226 c 0,154,155
 379.910039163 629.405864841 379.910039163 629.405864841 316.24603804 629.873046875 c 0,156,157
 222.699581511 629.087274799 222.699581511 629.087274799 122.57509151 554.354171517 c 0,158,159
 113.717389681 548.293176191 113.717389681 548.293176191 102.546987677 537.371177707 c 128,-1,160
 91.3765856727 526.449179223 91.3765856727 526.449179223 77.8814276454 510.561856219 c 0,161,162
 56.1889169563 480.982962501 56.1889169563 480.982962501 43.3194974018 464.153797703 c 0,163,164
 30.2496262178 447.063950988 30.2496262178 447.063950988 22.1112186487 437.907867224 c 0,165,166
 21.6916822425 437.435869423 21.6916822425 437.435869423 21.2032865878 437.035541551 c 2,167,-1
 10.2364897128 428.046283739 l 2,168,169
 2.80888136412 421.958025961 2.80888136412 421.958025961 -3.36681518699 428.118536376 c 0,170,171
 -6.5009765625 431.252697751 -6.5009765625 431.252697751 -6.5009765625 437.954101562 c 0,172,173
 -6.5009765625 490.869684143 -6.5009765625 490.869684143 51.236947772 555.825861538 c 0,174,175
 101.893366424 611.546725729 101.893366424 611.546725729 176.689976012 648.944533081 c 0,176,177
 188.539568113 654.700125376 188.539568113 654.700125376 200.126366357 659.48270661 c 128,-1,178
 211.713164601 664.265287843 211.713164601 664.265287843 223.114845689 668.102585322 c 128,-1,179
 234.516526776 671.939882801 234.516526776 671.939882801 245.744701443 674.832079649 c 0,180,181
 279.497929259 683.526367188 279.497929259 683.526367188 311.326171875 683.526367188 c 2,182,-1
 318.387946117 683.526367188 l 2,183,184
 324.375655226 683.350532695 324.375655226 683.350532695 330.042133362 682.943234135 c 128,-1,185
 335.708611499 682.535935575 335.708611499 682.535935575 341.452191068 681.871958588 c 0,186,187
 352.793777773 680.561841055 352.793777773 680.561841055 363.846665037 678.282510691 c 0,188,189
 366.586705203 677.717657022 366.586705203 677.717657022 369.348785683 677.082811006 c 128,-1,190
 372.110866163 676.44796499 372.110866163 676.44796499 374.842862522 675.755927026 c 128,-1,191
 377.574858882 675.063889062 377.574858882 675.063889062 380.276664688 674.315594217 c 128,-1,192
 382.978470493 673.567299372 382.978470493 673.567299372 385.612926462 672.772573465 c 0,193,194
 399.269005136 668.918682366 399.269005136 668.918682366 411.684672461 662.498977464 c 128,-1,195
 424.100339785 656.079272563 424.100339785 656.079272563 435.143290006 647.135313962 c 0,196,197
 457.252008601 628.03656048 457.252008601 628.03656048 470.501390213 606.083570395 c 0,198,199
 473.850674633 600.296347071 473.850674633 600.296347071 476.776996713 594.407097036 c 128,-1,200
 479.703318793 588.517847002 479.703318793 588.517847002 482.265737823 582.411385734 c 128,-1,201
 484.817185472 576.329859936 484.817185472 576.329859936 486.983738324 570.078483821 c 128,-1,202
 489.150291175 563.827107706 489.150291175 563.827107706 490.931488842 557.408199075 c 128,-1,203
 492.717075139 550.972049579 492.717075139 550.972049579 494.079536294 544.525274879 c 128,-1,204
 495.441997449 538.07850018 495.441997449 538.07850018 496.388477247 531.578006068 c 128,-1,205
 497.334957044 525.077511955 497.334957044 525.077511955 497.862394195 518.523101055 c 128,-1,206
 498.389831347 511.968690155 498.389831347 511.968690155 498.500976562 505.335574423 c 0,207,208
 498.500976562 477.965902796 498.500976562 477.965902796 492.085844051 451.013630385 c 128,-1,209
 485.67071154 424.061357975 485.67071154 424.061357975 472.857560619 397.41018536 c 0,210,211
 431.629199601 312.141659929 431.629199601 312.141659929 301.871640187 241.921335009 c 1,212,213
 329.650327674 173.830932978 329.650327674 173.830932978 356.482977416 125.290134815 c 0,214,215
 384.560466934 74.4956572703 384.560466934 74.4956572703 412.296618279 43.5598424044 c 0,216,217
 423.26745989 31.3221247581 423.26745989 31.3221247581 439.318856152 27.5611245991 c 0,218,219
 441.138770265 27.1343016928 441.138770265 27.1343016928 444.899506182 26.6098998333 c 0,220,221
 448.887253091 26.0539748797 448.887253091 26.0539748797 454.730132064 25.4463154664 c 0,222,223
 456.572683551 25.2546312214 456.572683551 25.2546312214 460.268556284 24.9429946188 c 128,-1,224
 463.964429018 24.6313580162 463.964429018 24.6313580162 465.670966121 24.4463419086 c 128,-1,225
 467.377503225 24.2613258011 467.377503225 24.2613258011 470.161265954 23.7346230784 c 128,-1,226
 472.945028683 23.2079203558 472.945028683 23.2079203558 474.530105316 22.4983125636 c 128,-1,227
 476.115181949 21.7887047714 476.115181949 21.7887047714 477.896938909 20.5215288604 c 128,-1,228
 479.67869587 19.2543529493 479.67869587 19.2543529493 480.947966591 17.5005991581 c 0,229,230
 489.291411428 5.96013340494 489.291411428 5.96013340494 469.062701799 -3.22489797916 c 0,231,232
 468.020219619 -3.6977981614 468.020219619 -3.6977981614 466.785532178 -4.22802543355 c 2,233,-1
 464.278878793 -5.27296768805 l 2,234,235
 437.152449304 -16.2749931283 437.152449304 -16.2749931283 416.597346161 -10.1385197602 c 0,236,237
 402.796255003 -5.8920701109 402.796255003 -5.8920701109 391.515015986 0.288516080617 c 128,-1,238
 380.233776968 6.46910227213 380.233776968 6.46910227213 371.480357556 14.6756666127 c 0,239,240
 354.826557991 30.2900076886 354.826557991 30.2900076886 329.402604029 69.950415568 c 0,241,242
 312.28811428 98.550792251 312.28811428 98.550792251 294.008098987 137.222991838 c 128,-1,243
 275.728083693 175.895191426 275.728083693 175.895191426 256.612675132 223.75115836 c 1,244,245
 252.213811017 222.193729406 252.213811017 222.193729406 248.068977465 220.910975733 c 128,-1,246
 243.924143914 219.62822206 243.924143914 219.62822206 239.924482864 218.590946621 c 128,-1,247
 235.924821814 217.553671182 235.924821814 217.553671182 232.109375578 216.77824573 c 128,-1,248
 228.293929341 216.002820279 228.293929341 216.002820279 224.576169874 215.470150481 c 128,-1,249
 220.858410406 214.937480682 220.858410406 214.937480682 217.253561333 214.653162065 c 128,-1,250
 213.648712261 214.368843447 213.648712261 214.368843447 210.092575556 214.323884388 c 0,251,252
 190.383999506 214.074145304 190.383999506 214.074145304 168.010414804 220.706483762 c 1,253,254
 127.960966916 103.464420875 127.960966916 103.464420875 111.282034864 28.2332687365 c 0,255,256
 111.002616302 26.9729374237 111.002616302 26.9729374237 110.635409099 24.9941359645 c 128,-1,257
 110.268201897 23.0153345054 110.268201897 23.0153345054 109.925042951 21.2270295149 c 128,-1,258
 109.581884006 19.4387245244 109.581884006 19.4387245244 109.292857034 18.2823318846 c 0,49,50
EndSplineSet
Validated: 33
EndChar

StartChar: S
Encoding: 83 83 27
Width: 457
VWidth: 965
Flags: W
LayerCount: 2
Fore
SplineSet
7.59482264597 -24.4673280327 m 1,0,1
 4.21406809601 -24.896484375 4.21406809601 -24.896484375 2.703125 -24.896484375 c 0,2,3
 -10.066508867 -24.896484375 -10.066508867 -24.896484375 -13.6309391352 -11.814845667 c 0,4,5
 -14.3037109375 -9.61380211624 -14.3037109375 -9.61380211624 -14.3037109375 -8.2568359375 c 0,6,7
 -14.3037109375 -4.98099930618 -14.3037109375 -4.98099930618 -8.58734999583 1.4932930119 c 0,8,9
 7.02778829561 20.4412971993 7.02778829561 20.4412971993 46.7258528413 59.1489035365 c 0,10,11
 80.4220098931 91.9566512813 80.4220098931 91.9566512813 96.5091161815 109.537852639 c 1,12,13
 93.9346519324 113.991356611 93.9346519324 113.991356611 92.0604014943 117.456357928 c 128,-1,14
 90.1861510562 120.921359244 90.1861510562 120.921359244 88.2752465345 124.743580298 c 0,15,16
 83.5603128268 134.173447713 83.5603128268 134.173447713 79.8887366902 144.137748523 c 128,-1,17
 76.2824095814 153.926636416 76.2824095814 153.926636416 73.1546651783 164.345372461 c 0,18,19
 68.6025390625 181.473622783 68.6025390625 181.473622783 68.6025390625 197.5078125 c 0,20,21
 68.6025390625 203.479945355 68.6025390625 203.479945355 69.232498658 209.323346606 c 128,-1,22
 69.8624582535 215.166747858 69.8624582535 215.166747858 71.1240738883 220.876794972 c 128,-1,23
 72.3856895231 226.586842086 72.3856895231 226.586842086 74.2748675724 232.133027057 c 0,24,25
 80.4566923725 250.282664669 80.4566923725 250.282664669 91.4734871902 265.079153833 c 128,-1,26
 102.490282008 279.875642997 102.490282008 279.875642997 118.135893474 291.045203822 c 0,27,28
 119.073450636 291.714535396 119.073450636 291.714535396 120.161763338 292.092151141 c 0,29,30
 123.726733473 293.329101562 123.726733473 293.329101562 126.877929688 293.329101562 c 0,31,32
 129.760390095 293.329101562 129.760390095 293.329101562 132.47795254 292.285354259 c 128,-1,33
 135.195514984 291.241606956 135.195514984 291.241606956 137.304450311 289.531423256 c 128,-1,34
 139.413385638 287.821239556 139.413385638 287.821239556 141.054605735 285.544949468 c 0,35,36
 141.434699576 285.017778344 141.434699576 285.017778344 141.724717666 284.436168312 c 0,37,38
 142.796632945 282.286520749 142.796632945 282.286520749 143.853383857 279.906005919 c 128,-1,39
 144.910134769 277.525491089 144.910134769 277.525491089 145.963070159 274.894702569 c 0,40,41
 148.157853241 269.40720719 148.157853241 269.40720719 150.305968076 260.813699991 c 0,42,43
 160.383437794 217.774605875 160.383437794 217.774605875 167.791061862 204.007871689 c 0,44,45
 171.300821608 197.991784558 171.300821608 197.991784558 174.246928054 194.02413633 c 1,46,47
 263.115838584 307.606666377 263.115838584 307.606666377 301.922973783 362.063358958 c 0,48,49
 301.618664904 365.11900631 301.618664904 365.11900631 301.38803109 367.94849853 c 128,-1,50
 301.157397276 370.777990749 301.157397276 370.777990749 300.9826888 373.557115006 c 128,-1,51
 300.807980323 376.336239264 300.807980323 376.336239264 300.655477974 379.532877659 c 0,52,53
 300.170570653 389.750634625 300.170570653 389.750634625 298.209264485 402.497233392 c 0,54,55
 298.161287336 402.809038596 298.161287336 402.809038596 298.138012653 403.123653568 c 0,56,57
 296.133223705 430.223339505 296.133223705 430.223339505 294.114898196 450.895620477 c 0,58,59
 293.604820691 456.127621864 293.604820691 456.127621864 293.158706796 461.57748658 c 128,-1,60
 292.712592901 467.027351296 292.712592901 467.027351296 292.330511844 472.693771566 c 128,-1,61
 291.948430787 478.360191837 291.948430787 478.360191837 291.630106947 484.24219402 c 128,-1,62
 291.311783106 490.124196203 291.311783106 490.124196203 291.056669759 496.230171662 c 0,63,64
 290.716068568 504.446428433 290.716068568 504.446428433 290.715820312 512.393554688 c 0,65,66
 290.715820312 528.319589995 290.715820312 528.319589995 292.092988108 543.121890248 c 0,67,68
 294.450486801 568.463486095 294.450486801 568.463486095 299.406617144 584.314145716 c 0,69,70
 311.941612086 631.324743092 311.941612086 631.324743092 342.040718301 656.022491389 c 0,71,72
 371.766920265 680.413085938 371.766920265 680.413085938 404.337890625 680.413085938 c 2,73,-1
 405.675003654 680.402355804 l 2,74,75
 407.627329492 680.372036822 407.627329492 680.372036822 409.559736344 680.248255015 c 0,76,77
 443.499714797 676.038422738 443.499714797 676.038422738 455.2552138 653.226419305 c 0,78,79
 466.046638472 632.280288342 466.046638472 632.280288342 467.138064001 597.592838261 c 0,80,81
 467.058651957 590.16467745 467.058651957 590.16467745 466.428899944 582.644716958 c 128,-1,82
 465.79914793 575.124756467 465.79914793 575.124756467 464.626635293 567.464764589 c 128,-1,83
 463.454122655 559.80477271 463.454122655 559.80477271 461.709386225 551.724387936 c 0,84,85
 458.897125542 538.701845658 458.897125542 538.701845658 454.409205354 524.836919455 c 128,-1,86
 449.921285166 510.971993251 449.921285166 510.971993251 443.791003598 496.323971032 c 128,-1,87
 437.660722031 481.675948812 437.660722031 481.675948812 429.850246558 466.137488461 c 128,-1,88
 422.039771085 450.59902811 422.039771085 450.59902811 412.616984937 434.270294538 c 128,-1,89
 403.194198789 417.941560967 403.194198789 417.941560967 392.086684336 400.674335057 c 0,90,91
 366.744570648 361.586154977 366.744570648 361.586154977 358.902054064 348.705459911 c 1,92,93
 360.555439295 330.179925368 360.555439295 330.179925368 361.57200902 316.760668545 c 0,94,95
 363.593196718 289.997995313 363.593196718 289.997995313 364.60140788 276.875654679 c 128,-1,96
 365.616372962 263.688976563 365.616372962 263.688976563 367.136974653 235.30310531 c 0,97,98
 367.596373758 226.730619209 367.596373758 226.730619209 367.826507192 219.158750136 c 128,-1,99
 368.056640625 211.586881063 368.056640625 211.586881063 368.056640625 204.9921875 c 0,100,101
 368.056640625 200.64416038 368.056640625 200.64416038 367.956500456 196.726122634 c 128,-1,102
 367.856360287 192.808084889 367.856360287 192.808084889 367.654087201 189.302478533 c 0,103,104
 367.63939227 179.929319951 367.63939227 179.929319951 366.61056632 169.122651819 c 0,105,106
 365.605637341 158.553437385 365.605637341 158.553437385 364.593968256 145.417408898 c 0,107,108
 357.963998723 82.0028387505 357.963998723 82.0028387505 337.998150553 44.986464722 c 0,109,110
 326.520185691 23.7058471185 326.520185691 23.7058471185 307.688913801 11.2560041332 c 0,111,112
 280.362279114 -6.80798790403 280.362279114 -6.80798790403 252.73963944 -7.38883282347 c 0,113,114
 251.87009641 -7.40724158001 251.87009641 -7.40724158001 250.995117188 -7.4072265625 c 0,115,116
 222.828510345 -7.4072265625 222.828510345 -7.4072265625 188.000650881 11.5348548965 c 0,117,118
 159.091712481 27.2594760164 159.091712481 27.2594760164 125.197407385 64.0537554588 c 1,119,120
 114.115224031 52.5039729865 114.115224031 52.5039729865 104.677121844 43.2686771289 c 128,-1,121
 95.2390196568 34.0333812712 95.2390196568 34.0333812712 86.7830774123 26.4644645318 c 128,-1,122
 78.3271351677 18.8955477925 78.3271351677 18.8955477925 70.1633818811 12.3644186277 c 0,123,124
 46.6420932158 -7.23427677759 46.6420932158 -7.23427677759 9.36615017561 -24.2424739557 c 0,125,126
 7.59482264597 -24.4673280327 7.59482264597 -24.4673280327 7.59482264597 -24.4673280327 c 1,0,1
9.36615017561 -24.2424739557 m 5,127,-1
 9.36615017561 -24.2424739557 l 5,127,-1
398.032226562 628.909179688 m 0,129,130
 342.360351562 628.909179688 342.360351562 628.909179688 342.360351562 512.049804688 c 0,131,132
 342.360351562 509.018646522 342.360351562 509.018646522 342.40234375 505.652435584 c 0,133,134
 342.40234375 462.185587446 342.40234375 462.185587446 346.435684366 420.619560988 c 1,135,136
 381.45058663 469.590589471 381.45058663 469.590589471 399.7451232 510.494059913 c 0,137,138
 405.764785789 523.951791465 405.764785789 523.951791465 409.766899347 537.553957192 c 128,-1,139
 413.769012904 551.156122918 413.769012904 551.156122918 415.760483015 564.897528674 c 128,-1,140
 417.751953125 578.638934429 417.751953125 578.638934429 417.751953125 592.587890625 c 0,141,142
 417.751953125 599.091671971 417.751953125 599.091671971 417.319374956 605.619584872 c 0,143,144
 416.491429821 616.792139951 416.491429821 616.792139951 412.730511987 622.482814883 c 0,145,146
 409.50682076 626.021032505 409.50682076 626.021032505 406.171978675 627.465106096 c 128,-1,147
 402.83713659 628.909179688 402.83713659 628.909179688 398.032226562 628.909179688 c 0,129,130
315.617532434 135.438812776 m 1,148,149
 305.59834148 131.81746515 305.59834148 131.81746515 297.295179679 129.11701966 c 128,-1,150
 288.992017878 126.41657417 288.992017878 126.41657417 282.459586362 124.665268555 c 0,151,152
 274.991020463 122.663697222 274.991020463 122.663697222 265.162966724 121.721497048 c 128,-1,153
 255.334912986 120.779296875 255.334912986 120.779296875 242.750976562 120.779296875 c 0,154,155
 240.978577181 120.779296875 240.978577181 120.779296875 239.154119262 120.798284062 c 0,156,157
 213.66690012 121.063319038 213.66690012 121.063319038 187.054441342 129.829237369 c 1,158,159
 183.417681183 125.76323177 183.417681183 125.76323177 179.393328656 121.427950047 c 128,-1,160
 175.36897613 117.092668323 175.36897613 117.092668323 171.092230019 112.619590023 c 128,-1,161
 166.815483909 108.146511722 166.815483909 108.146511722 161.830927181 103.04582042 c 1,162,163
 210.377543876 40.4464117021 210.377543876 40.4464117021 249.717773438 40.447265625 c 0,164,165
 259.605219268 40.447265625 259.605219268 40.447265625 269.087677968 44.4292895619 c 0,166,167
 305.462323913 59.5281001784 305.462323913 59.5281001784 315.617532434 135.438812776 c 1,148,149
317.870323751 157.362435309 m 1,168,169
 319.183322735 174.753590542 319.183322735 174.753590542 319.33203125 194.55932987 c 0,170,171
 319.33203125 210.498581403 319.33203125 210.498581403 318.332595313 228.48264003 c 128,-1,172
 317.330938202 246.537728037 317.330938202 246.537728037 315.818784236 265.6894107 c 0,173,174
 314.849028274 277.966994657 314.849028274 277.966994657 313.982578132 287.997193 c 1,175,176
 299.316288028 268.953382009 299.316288028 268.953382009 275.19867517 239.119755473 c 0,177,178
 256.242308078 215.67280819 256.242308078 215.67280819 230.428007625 184.884013929 c 0,179,180
 228.416941205 181.539290234 228.416941205 181.539290234 223.667796526 176.212140959 c 2,181,-1
 221.770978392 174.075791672 l 1,182,-1
 216.489184329 167.254551784 l 1,183,-1
 215.251572704 165.807267243 l 1,184,185
 239.959530375 156.237304688 239.959530375 156.237304688 284.815429688 156.237304688 c 0,186,187
 299.936790757 156.237304688 299.936790757 156.237304688 317.870323751 157.362435309 c 1,168,169
114.770363466 213.798945933 m 1,188,189
 114.193977176 210.277477631 114.193977176 210.277477631 114.032047182 208.317194504 c 128,-1,190
 113.870117188 206.356911376 113.870117188 206.356911376 113.870117188 203.438476562 c 0,191,192
 113.870117188 200.746773039 113.870117188 200.746773039 114.092480771 198.103227617 c 128,-1,193
 114.314844353 195.459682195 114.314844353 195.459682195 114.78204829 192.705011211 c 128,-1,194
 115.249252227 189.950340227 115.249252227 189.950340227 115.975182208 187.046008734 c 0,195,196
 121.791573369 160.872631021 121.791573369 160.872631021 132.414861709 145.106603838 c 1,197,198
 134.344257931 146.87492075 134.344257931 146.87492075 135.63091635 148.107168452 c 128,-1,199
 136.917574768 149.339416154 136.917574768 149.339416154 138.567675969 150.989782176 c 0,200,201
 141.97387705 154.398432 141.97387705 154.398432 144.514165097 157.36218583 c 0,202,203
 132.277167359 170.199722034 132.277167359 170.199722034 123.217549719 187.175835089 c 2,204,-1
 123.035625407 187.538590869 l 2,205,206
 117.789559041 198.696819528 117.789559041 198.696819528 114.770363466 213.798945933 c 1,188,189
EndSplineSet
Validated: 33
EndChar

StartChar: T
Encoding: 84 84 28
Width: 580
VWidth: 965
Flags: W
LayerCount: 2
Fore
SplineSet
686.404107966 694.991784816 m 0,0,1
 705.777222682 695.186486381 705.777222682 695.186486381 709.796988478 688.543187869 c 0,2,3
 711.341382133 685.990833182 711.341382133 685.990833182 711.640293396 683.643297329 c 128,-1,4
 711.939204658 681.295761477 711.939204658 681.295761477 710.857459184 679.370200648 c 128,-1,5
 709.775713709 677.444639819 709.775713709 677.444639819 708.575764715 675.954640696 c 128,-1,6
 707.37581572 674.464641572 707.37581572 674.464641572 704.963857903 673.036017898 c 128,-1,7
 702.551900087 671.607394225 702.551900087 671.607394225 701.212926352 670.884497957 c 128,-1,8
 699.873952618 670.161601689 699.873952618 670.161601689 697.491617976 669.139481298 c 128,-1,9
 695.109283335 668.117360906 695.109283335 668.117360906 694.927211648 668.031710791 c 2,10,-1
 693.666469374 667.432022636 l 2,11,12
 681.516022148 661.425198188 681.516022148 661.425198188 671.573036295 656.921898601 c 128,-1,13
 661.630050441 652.418599013 661.630050441 652.418599013 654.045027002 649.491925812 c 0,14,15
 592.972921161 624.462374238 592.972921161 624.462374238 482.821763574 584.407407842 c 0,16,17
 458.691269292 575.632942676 458.691269292 575.632942676 378.420473333 547.002047355 c 1,18,19
 375.727736126 532.310440309 375.727736126 532.310440309 372.909367841 516.808711948 c 128,-1,20
 370.090999557 501.306983588 370.090999557 501.306983588 367.186389227 485.214430809 c 128,-1,21
 364.281778896 469.121878029 364.281778896 469.121878029 361.251477981 452.222124084 c 128,-1,22
 358.221177066 435.322370138 358.221177066 435.322370138 355.110191649 417.868813772 c 128,-1,23
 351.999206231 400.415257406 351.999206231 400.415257406 348.762470721 382.157420022 c 0,24,25
 348.968627375 332.651969497 348.968627375 332.651969497 350.073169764 315.00901421 c 0,26,27
 350.08574682 314.374292105 350.08574682 314.374292105 350.164712691 311.285188225 c 128,-1,28
 350.243678562 308.196084345 350.243678562 308.196084345 350.377398071 303.08261252 c 128,-1,29
 350.51111758 297.969140694 350.51111758 297.969140694 350.732581784 289.555223064 c 0,30,31
 351.363751333 265.575688233 351.363751333 265.575688233 351.310470054 253.644628539 c 0,32,33
 351.20670645 229.967347741 351.20670645 229.967347741 350.697124271 212.045780084 c 128,-1,34
 350.187542091 194.124212427 350.187542091 194.124212427 349.257043775 181.70577293 c 0,35,36
 343.04045685 105.08355105 343.04045685 105.08355105 330.351983248 60.2492889438 c 0,37,38
 318.563726656 18.5946755954 318.563726656 18.5946755954 306.053304784 3.0172442828 c 0,39,40
 303.845561138 0.268901021384 303.845561138 0.268901021384 300.89534904 -1.82763340897 c 128,-1,41
 297.945136941 -3.92416783932 297.945136941 -3.92416783932 294.41604348 -5.36640393031 c 0,42,43
 287.495364748 -8.19468058209 287.495364748 -8.19468058209 279.784711735 -8.0304123126 c 0,44,45
 275.215962217 -7.93309507259 275.215962217 -7.93309507259 270.933570482 -6.06731696872 c 128,-1,46
 266.651178747 -4.20153886484 266.651178747 -4.20153886484 262.859472143 -0.909816475389 c 0,47,48
 255.355422519 5.60582708387 255.355422519 5.60582708387 251.627563512 17.4377793251 c 0,49,50
 242.441063995 46.5953362846 242.441063995 46.5953362846 252.236899326 115.058867696 c 0,51,52
 268.190511435 226.56161248 268.190511435 226.56161248 307.356369949 448.437257374 c 1,53,54
 300.36619848 494.157801526 300.36619848 494.157801526 291.609089828 514.890524547 c 0,55,56
 289.075153778 513.850503367 289.075153778 513.850503367 284.83041229 512.408407485 c 0,57,58
 281.015672556 510.919257686 281.015672556 510.919257686 277.195108298 509.475561584 c 128,-1,59
 273.374544039 508.031865483 273.374544039 508.031865483 269.547915759 506.633539778 c 128,-1,60
 265.721287479 505.235214074 265.721287479 505.235214074 261.889012526 503.88241577 c 128,-1,61
 258.056737573 502.529617465 258.056737573 502.529617465 254.218488831 501.22224045 c 128,-1,62
 250.380240089 499.914863435 250.380240089 499.914863435 246.536522525 498.653087524 c 0,63,64
 227.338905797 492.350110602 227.338905797 492.350110602 208.029265161 486.597662848 c 0,65,66
 198.501869171 483.759261499 198.501869171 483.759261499 191.734253924 481.681134338 c 128,-1,67
 184.966638677 479.603007177 184.966638677 479.603007177 181.088935709 478.32678306 c 0,68,69
 129.597473288 461.379487412 129.597473288 461.379487412 84.7990040296 454.517987353 c 0,70,71
 34.0732276513 446.749111668 34.0732276513 446.749111668 -7.09737570373 453.014050455 c 0,72,73
 -20.5224522304 454.993630961 -20.5224522304 454.993630961 -36.468663329 463.152255624 c 0,74,75
 -44.8324134349 467.430882149 -44.8324134349 467.430882149 -50.5328252091 472.399818631 c 128,-1,76
 -56.2332369832 477.368755113 -56.2332369832 477.368755113 -59.1401934679 483.497253819 c 0,77,78
 -59.30030197 483.834797485 -59.30030197 483.834797485 -59.4282564236 484.185793377 c 0,79,80
 -67.7050879548 506.890230685 -67.7050879548 506.890230685 -62.5117267473 522.514983326 c 0,81,82
 -57.6492045617 537.147685362 -57.6492045617 537.147685362 -40.5268280885 555.549072615 c 0,83,84
 -27.1474496203 569.928794329 -27.1474496203 569.928794329 -10.2199110072 581.863396008 c 128,-1,85
 6.70762760585 593.797997687 6.70762760585 593.797997687 26.9287991851 603.195576127 c 128,-1,86
 47.1499707643 612.593154567 47.1499707643 612.593154567 70.8178058685 619.596942518 c 0,87,88
 120.525237663 634.306590674 120.525237663 634.306590674 172.091036938 633.657568027 c 0,89,90
 221.986835541 633.028815063 221.986835541 633.028815063 257.144492923 619.301874103 c 128,-1,91
 292.302150305 605.574933143 292.302150305 605.574933143 312.230652827 578.494222358 c 1,92,93
 320.10145963 581.285041008 320.10145963 581.285041008 331.301157416 585.453353171 c 1,94,95
 333.135773486 596.38132995 333.135773486 596.38132995 334.298723356 603.61380119 c 0,96,97
 334.592990303 605.443869096 334.592990303 605.443869096 335.662108221 606.95804493 c 0,98,99
 343.669864755 618.299311625 343.669864755 618.299311625 358.89867499 620.21670367 c 0,100,101
 374.859061161 622.225043402 374.859061161 622.225043402 386.542451825 606.18652391 c 1,102,103
 398.633383668 610.656680676 398.633383668 610.656680676 407.94534716 613.976884896 c 0,104,105
 582.28591041 673.842592098 582.28591041 673.842592098 625.838747793 686.603108683 c 0,106,107
 631.326597601 688.210824151 631.326597601 688.210824151 637.585894882 689.522580615 c 128,-1,108
 643.845192163 690.834337079 643.845192163 690.834337079 650.94479057 691.86299606 c 128,-1,109
 658.044388976 692.891655041 658.044388976 692.891655041 665.941525198 693.648880736 c 128,-1,110
 673.83866142 694.40610643 673.83866142 694.40610643 682.743223134 694.919190808 c 0,111,112
 685.278319745 694.991784816 685.278319745 694.991784816 686.404107966 694.991784816 c 0,0,1
172.376036726 587.41601849 m 0,113,114
 170.333413148 587.41601849 170.333413148 587.41601849 168.300909194 587.385202016 c 128,-1,115
 166.268405239 587.354385542 166.268405239 587.354385542 164.229219479 587.292245635 c 128,-1,116
 162.190033719 587.230105728 162.190033719 587.230105728 160.144896507 587.135405367 c 128,-1,117
 158.099759295 587.040705007 158.099759295 587.040705007 156.063347978 586.91388686 c 0,118,119
 119.45211563 584.635280351 119.45211563 584.635280351 87.5358072813 575.174757202 c 128,-1,120
 55.6194989326 565.714234052 55.6194989326 565.714234052 28.2404075838 549.087901249 c 0,121,122
 19.6016742632 543.841759666 19.6016742632 543.841759666 10.8956692745 536.934709122 c 128,-1,123
 2.25299516343 530.078639103 2.25299516343 530.078639103 -6.09007998338 521.210859833 c 0,124,125
 -12.0666638016 514.181067247 -12.0666638016 514.181067247 -12.3061209079 509.30928675 c 0,126,127
 -12.1700460052 506.124617752 -12.1700460052 506.124617752 -5.04974325989 503.396180183 c 128,-1,128
 2.16223508102 500.632830781 2.16223508102 500.632830781 9.36719115828 499.001725142 c 0,129,130
 11.6427735074 498.48649895 11.6427735074 498.48649895 14.0807392651 498.134567339 c 128,-1,131
 16.5187050227 497.782635729 16.5187050227 497.782635729 19.1742636339 497.592944028 c 128,-1,132
 21.829822245 497.403252327 21.829822245 497.403252327 24.6441867662 497.386583431 c 0,133,134
 33.8586012412 497.332988591 33.8586012412 497.332988591 39.7865027894 497.328123276 c 0,135,136
 45.0381583484 497.324675045 45.0381583484 497.324675045 55.5526414635 499.165236643 c 0,137,138
 66.7293005652 501.122515943 66.7293005652 501.122515943 70.8490220394 501.872526471 c 128,-1,139
 74.8275509165 502.59700299 74.8275509165 502.59700299 87.8461544951 505.543064763 c 128,-1,140
 101.061465889 508.532661873 101.061465889 508.532661873 103.91913769 509.154753523 c 0,141,142
 160.024594213 521.370526393 160.024594213 521.370526393 266.949708607 560.268133751 c 1,143,144
 236.476714999 587.359628711 236.476714999 587.359628711 172.376036726 587.41601849 c 0,113,114
319.719416989 215.184521132 m 1,145,146
 314.141052706 182.069473269 314.141052706 182.069473269 311.496552056 164.720345903 c 0,147,148
 301.289130427 97.7511451264 301.289130427 97.7511451264 298.207525686 64.0209082723 c 1,149,150
 299.562112021 68.7790470811 299.562112021 68.7790470811 300.625130273 72.9323993067 c 128,-1,151
 301.688148524 77.0857515324 301.688148524 77.0857515324 302.598065292 81.1215260481 c 128,-1,152
 303.50798206 85.1573005639 303.50798206 85.1573005639 304.56816631 90.3474819202 c 0,153,154
 305.762367143 96.1925644821 305.762367143 96.1925644821 306.890193944 102.170826545 c 128,-1,155
 308.018020745 108.149088607 308.018020745 108.149088607 309.07983294 114.262613439 c 128,-1,156
 310.141645134 120.376138271 310.141645134 120.376138271 311.137302394 126.625202185 c 128,-1,157
 312.132959653 132.874266098 312.132959653 132.874266098 313.061957176 139.255948843 c 0,158,159
 316.765733343 164.698777143 316.765733343 164.698777143 318.107173175 183.980892939 c 0,160,161
 319.133237961 198.732398442 319.133237961 198.732398442 319.719416989 215.184521132 c 1,145,146
EndSplineSet
Validated: 33
EndChar

StartChar: U
Encoding: 85 85 29
Width: 489
VWidth: 965
Flags: W
LayerCount: 2
Fore
SplineSet
246.060212435 88.2567962923 m 0,0,1
 212.014232809 36.1260956282 212.014232809 36.1260956282 161.36831477 7.53634252568 c 0,2,3
 147.745597564 -0.153934453232 147.745597564 -0.153934453232 135.39071675 -4.07989691412 c 128,-1,4
 123.035835936 -8.005859375 123.035835936 -8.005859375 111.763671875 -8.005859375 c 0,5,6
 108.244692066 -8.005859375 108.244692066 -8.005859375 104.867451554 -7.61252614265 c 0,7,8
 72.4997284581 -3.85066538127 72.4997284581 -3.85066538127 56.2520184121 22.0811176513 c 0,9,10
 50.4440294945 31.355514324 50.4440294945 31.355514324 46.1297386987 41.2668067155 c 128,-1,11
 41.7453714734 51.3382883743 41.7453714734 51.3382883743 39.1599075264 63.7466357417 c 0,12,13
 37.9249964553 69.6644080017 37.9249964553 69.6644080017 36.9176271796 74.6280971813 c 128,-1,14
 35.9102579039 79.5917863609 35.9102579039 79.5917863609 35.1313793753 83.5973068747 c 0,15,16
 33.4863201342 92.0309983004 33.4863201342 92.0309983004 32.9080781572 107.257697685 c 0,17,18
 32.7961208216 110.213019032 32.7961208216 110.213019032 32.699843523 112.808428844 c 128,-1,19
 32.6035662245 115.403838655 32.6035662245 115.403838655 32.5225235509 117.65169303 c 128,-1,20
 32.4414808773 119.899547404 32.4414808773 119.899547404 32.37598642 121.791763722 c 128,-1,21
 32.3104919628 123.683980039 32.3104919628 123.683980039 32.2603050702 125.227617057 c 128,-1,22
 32.2101181776 126.771254074 32.2101181776 126.771254074 32.1753476806 127.963526514 c 0,23,24
 32.0771484375 131.295214237 32.0771484375 131.295214237 32.0771484375 138.10546875 c 0,25,26
 32.0771484375 140.801697661 32.0771484375 140.801697661 32.0928437281 144.087331427 c 128,-1,27
 32.1085390187 147.372965193 32.1085390187 147.372965193 32.1399079468 151.253889766 c 0,28,29
 32.2773519593 168.317417705 32.2773519593 168.317417705 32.2783203197 172.201511333 c 0,30,31
 32.2793077844 195.473090924 32.2793077844 195.473090924 33.9731801418 221.122778359 c 128,-1,32
 35.6670524993 246.772465793 35.6670524993 246.772465793 39.0444552825 274.755747281 c 0,33,34
 66.9646868866 516.428825357 66.9646868866 516.428825357 105.616242893 621.806613853 c 0,35,36
 108.163804401 627.499037498 108.163804401 627.499037498 110.616765853 630.804021266 c 128,-1,37
 113.069727305 634.109005034 113.069727305 634.109005034 116.895954316 635.944241396 c 0,38,39
 122.110068359 638.444072174 122.110068359 638.444072174 133.480360895 639.780501632 c 0,40,41
 136.30535062 640.015625 136.30535062 640.015625 138.581054688 640.015625 c 0,42,43
 146.74944614 640.015625 146.74944614 640.015625 150.742732398 636.808401619 c 0,44,45
 155.598684178 632.90484296 155.598684178 632.90484296 156.702802768 622.678052636 c 0,46,47
 156.762878664 622.048711264 156.762878664 622.048711264 156.727859765 621.391839184 c 128,-1,48
 156.692840865 620.734967105 156.692840865 620.734967105 156.586803502 620.216462371 c 0,49,50
 156.292948327 618.779560372 156.292948327 618.779560372 155.330855567 614.632419469 c 128,-1,51
 154.368762808 610.485278566 154.368762808 610.485278566 152.661792348 603.302559304 c 128,-1,52
 150.954821888 596.119840042 150.954821888 596.119840042 148.636215385 586.44723963 c 128,-1,53
 146.317608882 576.774639217 146.317608882 576.774639217 143.135627893 563.556656423 c 0,54,55
 134.542253342 531.090966822 134.542253342 531.090966822 106.740114706 369.077452885 c 0,56,57
 85.688973351 243.721025593 85.688973351 243.721025593 84.7365581161 156.921540396 c 0,58,59
 86.435110955 95.1427744535 86.435110955 95.1427744535 93.9971815119 72.4463812923 c 0,60,61
 101.543181495 52.0722607439 101.543181495 52.0722607439 114.000562472 50.5186079515 c 0,62,63
 116.225334488 50.2412109375 116.225334488 50.2412109375 118.495117188 50.2412109375 c 0,64,65
 137.479837512 50.2412109375 137.479837512 50.2412109375 160.223093253 69.6189804079 c 0,66,67
 212.588903149 114.2314618 212.588903149 114.2314618 252.628998205 215.749408578 c 0,68,69
 282.34720743 291.484166837 282.34720743 291.484166837 301.517991737 347.551652115 c 0,70,71
 307.900718311 366.222676232 307.900718311 366.222676232 313.124325835 382.109648434 c 128,-1,72
 318.347933358 397.996620635 318.347933358 397.996620635 322.380407676 410.996292607 c 128,-1,73
 326.412881994 423.99596458 326.412881994 423.99596458 329.268672311 434.147954815 c 0,74,75
 333.575600428 449.457320886 333.575600428 449.457320886 339.934699512 473.572264705 c 128,-1,76
 346.293798597 497.687208525 346.293798597 497.687208525 354.682566992 530.526197453 c 128,-1,77
 363.063043921 563.327961445 363.063043921 563.327961445 371.335911451 593.668091326 c 128,-1,78
 379.60877898 624.008221208 379.60877898 624.008221208 387.775670841 651.89128834 c 0,79,80
 388.009918767 652.691047998 388.009918767 652.691047998 388.445612543 653.481906376 c 128,-1,81
 388.88130632 654.272764754 388.88130632 654.272764754 389.399106123 654.872191441 c 0,82,83
 394.831135522 661.160535634 394.831135522 661.160535634 414.758464358 661.216980185 c 0,84,85
 435.596660031 660.879818637 435.596660031 660.879818637 439.590401185 649.254473095 c 0,86,87
 439.945051614 648.222124321 439.945051614 648.222124321 439.987398019 646.909418371 c 128,-1,88
 440.029744424 645.596712421 440.029744424 645.596712421 439.800020596 644.773799804 c 0,89,90
 438.415549221 639.052165192 438.415549221 639.052165192 435.994619256 630.607085593 c 128,-1,91
 433.573689291 622.162005994 433.573689291 622.162005994 430.282025597 611.507378193 c 0,92,93
 416.329854873 551.886572093 416.329854873 551.886572093 404.467108322 488.498816714 c 128,-1,94
 392.604361771 425.111061335 392.604361771 425.111061335 382.402338664 355.79919678 c 0,95,96
 381.462704589 348.640911178 381.462704589 348.640911178 380.130562348 338.803226573 c 128,-1,97
 378.798420107 328.965541967 378.798420107 328.965541967 377.077223383 316.474794335 c 128,-1,98
 375.35602666 303.984046704 375.35602666 303.984046704 373.25945638 288.940383553 c 0,99,100
 366.941908451 243.580701686 366.941908451 243.580701686 363.650468992 218.372664014 c 0,101,102
 362.011728996 205.819178261 362.011728996 205.819178261 360.299200475 190.397968727 c 128,-1,103
 358.586671954 174.976759193 358.586671954 174.976759193 356.80391147 156.712589738 c 128,-1,104
 355.023682046 138.485252997 355.023682046 138.485252997 353.815735283 121.715689023 c 128,-1,105
 352.607788519 104.946125049 352.607788519 104.946125049 351.97535146 89.7009106303 c 0,106,107
 351.880872486 87.1311765303 351.880872486 87.1311765303 351.833014368 84.6207643731 c 128,-1,108
 351.78515625 82.1103522159 351.78515625 82.1103522159 351.78515625 79.72265625 c 0,109,110
 351.78515625 63.2472945286 351.78515625 63.2472945286 354.074053576 51.4980272498 c 128,-1,111
 356.362950901 39.748759971 356.362950901 39.748759971 360.400411956 33.3231955874 c 0,112,113
 365.284149542 25.5521285095 365.284149542 25.5521285095 370.73933358 22.1310447235 c 128,-1,114
 376.194517619 18.7099609375 376.194517619 18.7099609375 382.896484375 18.7099609375 c 2,115,-1
 389.018369088 19.3656202347 l 2,116,117
 397.504090289 21.0656285081 397.504090289 21.0656285081 398.53309332 12.4726869167 c 0,118,119
 398.961372568 8.89623625978 398.961372568 8.89623625978 396.567526031 6.20478290261 c 2,120,-1
 388.830221343 -2.49443584739 l 2,121,122
 387.897778081 -3.54280194344 387.897778081 -3.54280194344 386.664231709 -4.21129671313 c 0,123,124
 381.303262283 -7.11656246025 381.303262283 -7.11656246025 375.398113619 -8.58318357387 c 128,-1,125
 369.492964954 -10.0498046875 369.492964954 -10.0498046875 363.235351562 -10.0498046875 c 2,126,-1
 355.528999428 -9.53375834362 l 1,127,-1
 354.833242456 -9.41113158403 l 2,128,129
 324.142395632 -2.59229087689 324.142395632 -2.59229087689 314.03788642 15.5410408 c 0,130,131
 305 31.7527083238 305 31.7527083238 305 60.248046875 c 0,132,133
 305 61.9905138359 305 61.9905138359 305.034986232 63.8427261293 c 0,134,135
 305.47415187 84.6395498382 305.47415187 84.6395498382 306.196748705 101.751902314 c 128,-1,136
 306.919345541 118.86425479 306.919345541 118.86425479 307.93062001 132.354330469 c 0,137,138
 310.823851883 170.920934557 310.823851883 170.920934557 317.089262757 219.119572075 c 0,139,140
 318.930486377 233.27781043 318.930486377 233.27781043 322.833190704 255.527654389 c 2,141,-1
 324.282078742 263.743502341 l 1,142,143
 313.805900693 233.261986892 313.805900693 233.261986892 307.202815491 215.04595177 c 128,-1,144
 300.59973029 196.829916647 300.59973029 196.829916647 296.511399949 187.181710357 c 0,145,146
 283.946185993 157.216991563 283.946185993 157.216991563 271.352500333 132.5093985 c 0,147,148
 265.039383599 120.128796181 265.039383599 120.128796181 258.718894899 109.068176547 c 128,-1,149
 252.3984062 98.0075569124 252.3984062 98.0075569124 246.060212435 88.2567962923 c 0,0,1
356.568359375 -1.6015625 m 1025,150,-1
113.126953125 619.051757812 m 1025,151,-1
356.3984375 -2.5673828125 m 1025,152,-1
112.21875 619.421875 m 1025,153,-1
EndSplineSet
Validated: 1
EndChar

StartChar: V
Encoding: 86 86 30
Width: 361
VWidth: 965
Flags: W
LayerCount: 2
Fore
SplineSet
349.032069472 624.703758817 m 0,0,1
 334.691617254 598.004447604 334.691617254 598.004447604 315.867203506 545.898738383 c 128,-1,2
 297.042789759 493.793029162 297.042789759 493.793029162 273.666547308 415.837750873 c 128,-1,3
 250.290304857 337.882472585 250.290304857 337.882472585 222.872138787 235.540311315 c 0,4,5
 189.271428517 108.892006846 189.271428517 108.892006846 176.438846433 67.8791254948 c 0,6,7
 172.598415445 55.6024696455 172.598415445 55.6024696455 168.801654223 45.6492771301 c 128,-1,8
 165.004893 35.6960846147 165.004893 35.6960846147 161.004007276 27.5666873337 c 128,-1,9
 157.003121552 19.4372900526 157.003121552 19.4372900526 152.856514903 13.3881772973 c 0,10,11
 146.194419147 3.66860629315 146.194419147 3.66860629315 136.81561604 -1.60373121574 c 128,-1,12
 127.436812932 -6.87606872464 127.436812932 -6.87606872464 115.900270893 -7.236328125 c 0,13,14
 107.700842653 -7.236328125 107.700842653 -7.236328125 100.558021977 -2.60550490258 c 128,-1,15
 93.4152013 2.02531831983 93.4152013 2.02531831983 87.3379801336 11.1908551907 c 128,-1,16
 81.2607589672 20.3563920615 81.2607589672 20.3563920615 76.2157539537 31.8008342867 c 128,-1,17
 71.1707489401 43.2452765118 71.1707489401 43.2452765118 65.9627172159 59.0041385931 c 0,18,19
 45.622626105 120.545749799 45.622626105 120.545749799 36.2620677214 203.74720615 c 0,20,21
 26.9443359375 286.567997661 26.9443359375 286.567997661 26.9443359375 398.223632812 c 0,22,23
 26.9443359375 509.549961386 26.9443359375 509.549961386 27.9782841598 543.651631854 c 0,24,25
 28.9772555251 576.598749062 28.9772555251 576.598749062 29.0296112969 580.10728054 c 0,26,27
 29.2687159222 588.875374162 29.2687159222 588.875374162 33.5100588816 595.369815987 c 128,-1,28
 37.7514018411 601.864257812 37.7514018411 601.864257812 46.2705078125 601.864257812 c 0,29,30
 55.252538209 601.864257812 55.252538209 601.864257812 61.6558668457 595.449768009 c 128,-1,31
 68.0591954825 589.035278206 68.0591954825 589.035278206 72.2617161793 578.228633737 c 2,32,-1
 72.8017439106 575.579515346 l 1,33,34
 74.2009059165 530.902217783 74.2009059165 530.902217783 74.9976530939 450.603788762 c 0,35,36
 75.3950722524 410.550764415 75.3950722524 410.550764415 75.9501651553 380.187524503 c 128,-1,37
 76.5052580581 349.824284591 76.5052580581 349.824284591 77.2159497749 329.217143458 c 128,-1,38
 77.9214151534 308.761544668 77.9214151534 308.761544668 80.1854101742 282.692852552 c 128,-1,39
 82.449405195 256.624160437 82.449405195 256.624160437 86.2702408538 225.038747592 c 0,40,41
 93.8920810294 162.023846436 93.8920810294 162.023846436 108.607197696 102.064080261 c 0,42,43
 114.778899649 77.6881136506 114.778899649 77.6881136506 119.923270046 67.6984376132 c 1,44,45
 121.538430143 70.6292904799 121.538430143 70.6292904799 123.304999343 74.9473468909 c 128,-1,46
 125.071568542 79.2654033018 125.071568542 79.2654033018 127.074727643 85.2447864779 c 128,-1,47
 129.077886744 91.2241696541 129.077886744 91.2241696541 131.259628904 98.7515840257 c 0,48,49
 149.670801426 162.270080439 149.670801426 162.270080439 171.788833637 241.903509962 c 128,-1,50
 193.919322131 321.58674785 193.919322131 321.58674785 208.112341673 371.453075106 c 0,51,52
 215.228938009 396.452036421 215.228938009 396.452036421 221.390644098 416.763459548 c 128,-1,53
 227.552350186 437.074882674 227.552350186 437.074882674 232.777755889 452.753559258 c 0,54,55
 268.434194877 559.717975397 268.434194877 559.717975397 283.548246259 593.076055051 c 0,56,57
 284.66492583 595.51534731 284.66492583 595.51534731 286.842935249 600.321307317 c 0,58,59
 291.978060893 611.646199386 291.978060893 611.646199386 296.034175726 620.026355411 c 128,-1,60
 300.090290558 628.406511435 300.090290558 628.406511435 303.169542888 634.033708054 c 0,61,62
 309.599750429 645.784443343 309.599750429 645.784443343 323.086313985 659.905850879 c 0,63,64
 329.970940687 667.112922789 329.970940687 667.112922789 338.174405008 673.006533629 c 128,-1,65
 346.377869328 678.900144469 346.377869328 678.900144469 355.828426647 683.447800713 c 0,66,67
 357.811980095 684.402472115 357.811980095 684.402472115 361.632893674 686.262911808 c 128,-1,68
 365.453807252 688.123351501 365.453807252 688.123351501 366.955413957 688.836892854 c 128,-1,69
 368.457020662 689.550434207 368.457020662 689.550434207 371.215191176 690.816094386 c 128,-1,70
 373.973361689 692.081754566 373.973361689 692.081754566 375.322841024 692.560516582 c 128,-1,71
 376.672320359 693.039278598 376.672320359 693.039278598 378.598139713 693.668933332 c 128,-1,72
 380.523959067 694.298588066 380.523959067 694.298588066 381.951702937 694.501344814 c 128,-1,73
 383.379446807 694.704101562 383.379446807 694.704101562 384.802734375 694.704101562 c 0,74,75
 393.588823792 694.704101562 393.588823792 694.704101562 393.588823792 686.217790304 c 0,76,77
 393.569167819 680.250237492 393.569167819 680.250237492 386.615614845 673.569308575 c 0,78,79
 383.97730957 671.034441856 383.97730957 671.034441856 382.593814208 669.500283759 c 0,80,81
 359.095488355 643.438867037 359.095488355 643.438867037 349.032069472 624.703758817 c 0,0,1
EndSplineSet
Validated: 1
EndChar

